<ttFont>
    <TTGlyph name=".001" xMin="27" yMin="-160" xMax="441" yMax="476">
      <contour>
        <pt x="78" y="-107" on="1"/>
        <pt x="143" y="-107" on="0"/>
        <pt x="245" y="-66" on="0"/>
        <pt x="317" y="0" on="0"/>
        <pt x="361" y="85" on="0"/>
        <pt x="369" y="129" on="1"/>
        <pt x="367" y="131" on="1"/>
        <pt x="342" y="100" on="0"/>
        <pt x="264" y="69" on="0"/>
        <pt x="221" y="69" on="1"/>
        <pt x="175" y="69" on="0"/>
        <pt x="103" y="99" on="0"/>
        <pt x="53" y="151" on="0"/>
        <pt x="27" y="224" on="0"/>
        <pt x="27" y="266" on="1"/>
        <pt x="27" y="314" on="0"/>
        <pt x="60" y="391" on="0"/>
        <pt x="116" y="446" on="0"/>
        <pt x="191" y="476" on="0"/>
        <pt x="234" y="476" on="1"/>
        <pt x="278" y="476" on="0"/>
        <pt x="354" y="444" on="0"/>
        <pt x="409" y="380" on="0"/>
        <pt x="441" y="282" on="0"/>
        <pt x="441" y="215" on="1"/>
        <pt x="441" y="138" on="0"/>
        <pt x="395" y="1" on="0"/>
        <pt x="307" y="-101" on="0"/>
        <pt x="175" y="-160" on="0"/>
        <pt x="90" y="-160" on="1"/>
        <pt x="79" y="-160" on="0"/>
        <pt x="55" y="-158" on="0"/>
        <pt x="44" y="-156" on="1"/>
        <pt x="39" y="-104" on="1"/>
        <pt x="48" y="-106" on="0"/>
        <pt x="65" y="-107" on="0"/>
      </contour>
      <contour>
        <pt x="374" y="245" on="1"/>
        <pt x="374" y="279" on="0"/>
        <pt x="357" y="343" on="0"/>
        <pt x="322" y="392" on="0"/>
        <pt x="269" y="422" on="0"/>
        <pt x="232" y="422" on="1"/>
        <pt x="202" y="422" on="0"/>
        <pt x="152" y="400" on="0"/>
        <pt x="116" y="359" on="0"/>
        <pt x="96" y="303" on="0"/>
        <pt x="96" y="270" on="1"/>
        <pt x="96" y="204" on="0"/>
        <pt x="169" y="125" on="0"/>
        <pt x="230" y="125" on="1"/>
        <pt x="279" y="125" on="0"/>
        <pt x="341" y="161" on="0"/>
        <pt x="355" y="182" on="1"/>
        <pt x="364" y="196" on="0"/>
        <pt x="374" y="226" on="0"/>
      </contour>
    </TTGlyph>
    <TTGlyph name=".004" xMin="68" yMin="-160" xMax="453" yMax="470">
      <contour>
        <pt x="383" y="470" on="1"/>
        <pt x="453" y="470" on="1"/>
        <pt x="453" y="0" on="1"/>
        <pt x="400" y="0" on="1"/>
        <pt x="390" y="59" on="1"/>
        <pt x="387" y="59" on="1"/>
        <pt x="361" y="31" on="0"/>
        <pt x="283" y="-9" on="0"/>
        <pt x="230" y="-9" on="1"/>
        <pt x="171" y="-9" on="0"/>
        <pt x="132" y="17" on="1"/>
        <pt x="138" y="-58" on="1"/>
        <pt x="138" y="-160" on="1"/>
        <pt x="68" y="-160" on="1"/>
        <pt x="68" y="470" on="1"/>
        <pt x="138" y="470" on="1"/>
        <pt x="138" y="165" on="1"/>
        <pt x="138" y="131" on="0"/>
        <pt x="154" y="86" on="0"/>
        <pt x="183" y="59" on="0"/>
        <pt x="222" y="47" on="0"/>
        <pt x="245" y="47" on="1"/>
        <pt x="288" y="47" on="0"/>
        <pt x="359" y="85" on="0"/>
        <pt x="383" y="115" on="1"/>
      </contour>
    </TTGlyph>
    <TTGlyph name=".notdef" xMin="0" yMin="0" xMax="490" yMax="700">
      <contour>
        <pt x="0" y="700" on="1"/>
        <pt x="490" y="700" on="1"/>
        <pt x="490" y="0" on="1"/>
        <pt x="0" y="0" on="1"/>
      </contour>
      <contour>
        <pt x="420" y="655" on="1"/>
        <pt x="70" y="655" on="1"/>
        <pt x="245" y="390" on="1"/>
      </contour>
      <contour>
        <pt x="445" y="90" on="1"/>
        <pt x="445" y="610" on="1"/>
        <pt x="272" y="350" on="1"/>
      </contour>
      <contour>
        <pt x="420" y="45" on="1"/>
        <pt x="245" y="310" on="1"/>
        <pt x="70" y="45" on="1"/>
      </contour>
      <contour>
        <pt x="45" y="90" on="1"/>
        <pt x="217" y="350" on="1"/>
        <pt x="45" y="610" on="1"/>
      </contour>
    </TTGlyph>
    <TTGlyph name=".notdef#1" xMin="-404" yMin="700" xMax="-102" yMax="902">
      <contour>
        <pt x="-156" y="902" on="1"/>
        <pt x="-102" y="902" on="1"/>
        <pt x="-102" y="700" on="1"/>
        <pt x="-156" y="700" on="1"/>
      </contour>
      <contour>
        <pt x="-280" y="902" on="1"/>
        <pt x="-226" y="902" on="1"/>
        <pt x="-226" y="700" on="1"/>
        <pt x="-280" y="700" on="1"/>
      </contour>
      <contour>
        <pt x="-404" y="902" on="1"/>
        <pt x="-350" y="902" on="1"/>
        <pt x="-350" y="700" on="1"/>
        <pt x="-404" y="700" on="1"/>
      </contour>
    </TTGlyph>
    <TTGlyph name=".notdef#2" xMin="-177" yMin="626" xMax="32" yMax="858">
      <contour>
        <pt x="-67" y="720" on="1"/>
        <pt x="-67" y="733" on="0"/>
        <pt x="-51" y="751" on="0"/>
        <pt x="-37" y="751" on="1"/>
        <pt x="-23" y="751" on="0"/>
        <pt x="-7" y="733" on="0"/>
        <pt x="-7" y="720" on="1"/>
        <pt x="-7" y="706" on="0"/>
        <pt x="-23" y="688" on="0"/>
        <pt x="-37" y="688" on="1"/>
        <pt x="-51" y="688" on="0"/>
        <pt x="-67" y="706" on="0"/>
      </contour>
      <contour>
        <pt x="-147" y="626" on="1"/>
        <pt x="-147" y="633" on="1"/>
        <pt x="-159" y="653" on="0"/>
        <pt x="-177" y="706" on="0"/>
        <pt x="-177" y="739" on="1"/>
        <pt x="-177" y="795" on="0"/>
        <pt x="-107" y="858" on="0"/>
        <pt x="-54" y="858" on="1"/>
        <pt x="-25" y="858" on="0"/>
        <pt x="18" y="844" on="0"/>
        <pt x="32" y="835" on="1"/>
        <pt x="16" y="786" on="1"/>
        <pt x="1" y="794" on="0"/>
        <pt x="-23" y="804" on="0"/>
        <pt x="-48" y="804" on="1"/>
        <pt x="-77" y="804" on="0"/>
        <pt x="-115" y="766" on="0"/>
        <pt x="-115" y="728" on="1"/>
        <pt x="-115" y="702" on="0"/>
        <pt x="-96" y="646" on="0"/>
        <pt x="-85" y="630" on="1"/>
      </contour>
    </TTGlyph>
    <TTGlyph name=".notdef#3" xMin="-189" yMin="626" xMax="41" yMax="858">
      <contour>
        <pt x="41" y="737" on="1"/>
        <pt x="41" y="697" on="0"/>
        <pt x="3" y="667" on="0"/>
        <pt x="-21" y="667" on="1"/>
        <pt x="-49" y="667" on="0"/>
        <pt x="-87" y="699" on="0"/>
        <pt x="-87" y="737" on="1"/>
        <pt x="-61" y="737" on="1"/>
        <pt x="-60" y="694" on="0"/>
        <pt x="-23" y="694" on="1"/>
        <pt x="14" y="694" on="0"/>
        <pt x="15" y="737" on="1"/>
      </contour>
      <contour>
        <pt x="-41" y="737" on="1"/>
        <pt x="-41" y="746" on="0"/>
        <pt x="-31" y="758" on="0"/>
        <pt x="-23" y="758" on="1"/>
        <pt x="-15" y="758" on="0"/>
        <pt x="-5" y="746" on="0"/>
        <pt x="-5" y="737" on="1"/>
        <pt x="-5" y="726" on="0"/>
        <pt x="-15" y="716" on="0"/>
        <pt x="-23" y="716" on="1"/>
        <pt x="-31" y="716" on="0"/>
        <pt x="-41" y="727" on="0"/>
      </contour>
      <contour>
        <pt x="-147" y="626" on="1"/>
        <pt x="-147" y="633" on="1"/>
        <pt x="-163" y="653" on="0"/>
        <pt x="-189" y="706" on="0"/>
        <pt x="-189" y="739" on="1"/>
        <pt x="-189" y="795" on="0"/>
        <pt x="-114" y="858" on="0"/>
        <pt x="-54" y="858" on="1"/>
        <pt x="33" y="858" on="1"/>
        <pt x="33" y="804" on="1"/>
        <pt x="-48" y="804" on="1"/>
        <pt x="-84" y="804" on="0"/>
        <pt x="-127" y="766" on="0"/>
        <pt x="-127" y="728" on="1"/>
        <pt x="-127" y="702" on="0"/>
        <pt x="-102" y="648" on="0"/>
        <pt x="-85" y="630" on="1"/>
      </contour>
    </TTGlyph>
    <TTGlyph name="A" xMin="12" yMin="0" xMax="571" yMax="630">
      <contour>
        <pt x="176" y="238" on="1"/>
        <pt x="404" y="238" on="1"/>
        <pt x="354" y="373" on="1"/>
        <pt x="340" y="408" on="0"/>
        <pt x="310" y="497" on="0"/>
        <pt x="293" y="550" on="1"/>
        <pt x="291" y="550" on="1"/>
        <pt x="283" y="524" on="0"/>
        <pt x="267" y="478" on="0"/>
        <pt x="252" y="436" on="0"/>
        <pt x="237" y="395" on="0"/>
        <pt x="228" y="373" on="1"/>
      </contour>
      <contour>
        <pt x="260" y="630" on="1"/>
        <pt x="327" y="630" on="1"/>
        <pt x="571" y="0" on="1"/>
        <pt x="495" y="0" on="1"/>
        <pt x="426" y="180" on="1"/>
        <pt x="156" y="180" on="1"/>
        <pt x="87" y="0" on="1"/>
        <pt x="12" y="0" on="1"/>
      </contour>
    </TTGlyph>
    <TTGlyph name="AE" xMin="9" yMin="0" xMax="734" yMax="630">
      <contour>
        <pt x="9" y="0" on="1"/>
        <pt x="333" y="630" on="1"/>
        <pt x="731" y="630" on="1"/>
        <pt x="731" y="571" on="1"/>
        <pt x="448" y="571" on="1"/>
        <pt x="448" y="355" on="1"/>
        <pt x="705" y="355" on="1"/>
        <pt x="705" y="296" on="1"/>
        <pt x="448" y="296" on="1"/>
        <pt x="448" y="59" on="1"/>
        <pt x="734" y="59" on="1"/>
        <pt x="734" y="0" on="1"/>
        <pt x="378" y="0" on="1"/>
        <pt x="378" y="184" on="1"/>
        <pt x="182" y="184" on="1"/>
        <pt x="91" y="0" on="1"/>
      </contour>
      <contour>
        <pt x="378" y="577" on="1"/>
        <pt x="208" y="240" on="1"/>
        <pt x="378" y="240" on="1"/>
      </contour>
    </TTGlyph>
    <TTGlyph name="AEacute" xMin="9" yMin="0" xMax="734" yMax="834">
      <contour>
        <pt x="9" y="0" on="1"/>
        <pt x="333" y="630" on="1"/>
        <pt x="731" y="630" on="1"/>
        <pt x="731" y="571" on="1"/>
        <pt x="448" y="571" on="1"/>
        <pt x="448" y="355" on="1"/>
        <pt x="705" y="355" on="1"/>
        <pt x="705" y="296" on="1"/>
        <pt x="448" y="296" on="1"/>
        <pt x="448" y="59" on="1"/>
        <pt x="734" y="59" on="1"/>
        <pt x="734" y="0" on="1"/>
        <pt x="378" y="0" on="1"/>
        <pt x="378" y="184" on="1"/>
        <pt x="182" y="184" on="1"/>
        <pt x="91" y="0" on="1"/>
      </contour>
      <contour>
        <pt x="378" y="577" on="1"/>
        <pt x="208" y="240" on="1"/>
        <pt x="378" y="240" on="1"/>
      </contour>
      <contour>
        <pt x="412" y="710" on="1"/>
        <pt x="355" y="710" on="1"/>
        <pt x="440" y="834" on="1"/>
        <pt x="523" y="834" on="1"/>
      </contour>
    </TTGlyph>
    <TTGlyph name="Aacute" xMin="12" yMin="0" xMax="571" yMax="834">
      <contour>
        <pt x="317" y="710" on="1"/>
        <pt x="260" y="710" on="1"/>
        <pt x="345" y="834" on="1"/>
        <pt x="428" y="834" on="1"/>
      </contour>
      <contour>
        <pt x="176" y="238" on="1"/>
        <pt x="404" y="238" on="1"/>
        <pt x="354" y="373" on="1"/>
        <pt x="340" y="408" on="0"/>
        <pt x="310" y="497" on="0"/>
        <pt x="293" y="550" on="1"/>
        <pt x="291" y="550" on="1"/>
        <pt x="283" y="524" on="0"/>
        <pt x="267" y="478" on="0"/>
        <pt x="252" y="436" on="0"/>
        <pt x="237" y="395" on="0"/>
        <pt x="228" y="373" on="1"/>
      </contour>
      <contour>
        <pt x="260" y="630" on="1"/>
        <pt x="327" y="630" on="1"/>
        <pt x="571" y="0" on="1"/>
        <pt x="495" y="0" on="1"/>
        <pt x="426" y="180" on="1"/>
        <pt x="156" y="180" on="1"/>
        <pt x="87" y="0" on="1"/>
        <pt x="12" y="0" on="1"/>
      </contour>
    </TTGlyph>
    <TTGlyph name="Abreve" xMin="12" yMin="0" xMax="571" yMax="834">
      <contour>
        <pt x="211" y="834" on="1"/>
        <pt x="213" y="799" on="0"/>
        <pt x="247" y="757" on="0"/>
        <pt x="291" y="757" on="1"/>
        <pt x="328" y="757" on="0"/>
        <pt x="367" y="797" on="0"/>
        <pt x="369" y="834" on="1"/>
        <pt x="424" y="834" on="1"/>
        <pt x="424" y="780" on="0"/>
        <pt x="356" y="710" on="0"/>
        <pt x="291" y="710" on="1"/>
        <pt x="255" y="710" on="0"/>
        <pt x="204" y="731" on="0"/>
        <pt x="171" y="765" on="0"/>
        <pt x="155" y="810" on="0"/>
        <pt x="155" y="834" on="1"/>
      </contour>
      <contour>
        <pt x="176" y="238" on="1"/>
        <pt x="404" y="238" on="1"/>
        <pt x="354" y="373" on="1"/>
        <pt x="340" y="408" on="0"/>
        <pt x="310" y="497" on="0"/>
        <pt x="293" y="550" on="1"/>
        <pt x="291" y="550" on="1"/>
        <pt x="283" y="524" on="0"/>
        <pt x="267" y="478" on="0"/>
        <pt x="252" y="436" on="0"/>
        <pt x="237" y="395" on="0"/>
        <pt x="228" y="373" on="1"/>
      </contour>
      <contour>
        <pt x="260" y="630" on="1"/>
        <pt x="327" y="630" on="1"/>
        <pt x="571" y="0" on="1"/>
        <pt x="495" y="0" on="1"/>
        <pt x="426" y="180" on="1"/>
        <pt x="156" y="180" on="1"/>
        <pt x="87" y="0" on="1"/>
        <pt x="12" y="0" on="1"/>
      </contour>
    </TTGlyph>
    <TTGlyph name="Acircumflex" xMin="12" yMin="0" xMax="571" yMax="844">
      <contour>
        <pt x="263" y="844" on="1"/>
        <pt x="322" y="844" on="1"/>
        <pt x="447" y="710" on="1"/>
        <pt x="377" y="710" on="1"/>
        <pt x="292" y="801" on="1"/>
        <pt x="207" y="710" on="1"/>
        <pt x="141" y="710" on="1"/>
      </contour>
      <contour>
        <pt x="176" y="238" on="1"/>
        <pt x="404" y="238" on="1"/>
        <pt x="354" y="373" on="1"/>
        <pt x="340" y="408" on="0"/>
        <pt x="310" y="497" on="0"/>
        <pt x="293" y="550" on="1"/>
        <pt x="291" y="550" on="1"/>
        <pt x="283" y="524" on="0"/>
        <pt x="267" y="478" on="0"/>
        <pt x="252" y="436" on="0"/>
        <pt x="237" y="395" on="0"/>
        <pt x="228" y="373" on="1"/>
      </contour>
      <contour>
        <pt x="260" y="630" on="1"/>
        <pt x="327" y="630" on="1"/>
        <pt x="571" y="0" on="1"/>
        <pt x="495" y="0" on="1"/>
        <pt x="426" y="180" on="1"/>
        <pt x="156" y="180" on="1"/>
        <pt x="87" y="0" on="1"/>
        <pt x="12" y="0" on="1"/>
      </contour>
    </TTGlyph>
    <TTGlyph name="Acute" xMin="26" yMin="710" xMax="194" yMax="834">
      <contour>
        <pt x="83" y="710" on="1"/>
        <pt x="26" y="710" on="1"/>
        <pt x="111" y="834" on="1"/>
        <pt x="194" y="834" on="1"/>
      </contour>
    </TTGlyph>
    <TTGlyph name="Adieresis" xMin="12" yMin="0" xMax="571" yMax="810">
      <contour>
        <pt x="164" y="763" on="1"/>
        <pt x="164" y="783" on="0"/>
        <pt x="190" y="810" on="0"/>
        <pt x="209" y="810" on="1"/>
        <pt x="227" y="810" on="0"/>
        <pt x="254" y="783" on="0"/>
        <pt x="254" y="763" on="1"/>
        <pt x="254" y="743" on="0"/>
        <pt x="227" y="716" on="0"/>
        <pt x="209" y="716" on="1"/>
        <pt x="190" y="716" on="0"/>
        <pt x="164" y="743" on="0"/>
      </contour>
      <contour>
        <pt x="332" y="763" on="1"/>
        <pt x="332" y="783" on="0"/>
        <pt x="358" y="810" on="0"/>
        <pt x="377" y="810" on="1"/>
        <pt x="395" y="810" on="0"/>
        <pt x="422" y="783" on="0"/>
        <pt x="422" y="763" on="1"/>
        <pt x="422" y="743" on="0"/>
        <pt x="395" y="716" on="0"/>
        <pt x="377" y="716" on="1"/>
        <pt x="358" y="716" on="0"/>
        <pt x="332" y="743" on="0"/>
      </contour>
      <contour>
        <pt x="176" y="238" on="1"/>
        <pt x="404" y="238" on="1"/>
        <pt x="354" y="373" on="1"/>
        <pt x="340" y="408" on="0"/>
        <pt x="310" y="497" on="0"/>
        <pt x="293" y="550" on="1"/>
        <pt x="291" y="550" on="1"/>
        <pt x="283" y="524" on="0"/>
        <pt x="267" y="478" on="0"/>
        <pt x="252" y="436" on="0"/>
        <pt x="237" y="395" on="0"/>
        <pt x="228" y="373" on="1"/>
      </contour>
      <contour>
        <pt x="260" y="630" on="1"/>
        <pt x="327" y="630" on="1"/>
        <pt x="571" y="0" on="1"/>
        <pt x="495" y="0" on="1"/>
        <pt x="426" y="180" on="1"/>
        <pt x="156" y="180" on="1"/>
        <pt x="87" y="0" on="1"/>
        <pt x="12" y="0" on="1"/>
      </contour>
    </TTGlyph>
    <TTGlyph name="Agrave" xMin="12" yMin="0" xMax="571" yMax="834">
      <contour>
        <pt x="159" y="834" on="1"/>
        <pt x="242" y="834" on="1"/>
        <pt x="327" y="710" on="1"/>
        <pt x="270" y="710" on="1"/>
      </contour>
      <contour>
        <pt x="176" y="238" on="1"/>
        <pt x="404" y="238" on="1"/>
        <pt x="354" y="373" on="1"/>
        <pt x="340" y="408" on="0"/>
        <pt x="310" y="497" on="0"/>
        <pt x="293" y="550" on="1"/>
        <pt x="291" y="550" on="1"/>
        <pt x="283" y="524" on="0"/>
        <pt x="267" y="478" on="0"/>
        <pt x="252" y="436" on="0"/>
        <pt x="237" y="395" on="0"/>
        <pt x="228" y="373" on="1"/>
      </contour>
      <contour>
        <pt x="260" y="630" on="1"/>
        <pt x="327" y="630" on="1"/>
        <pt x="571" y="0" on="1"/>
        <pt x="495" y="0" on="1"/>
        <pt x="426" y="180" on="1"/>
        <pt x="156" y="180" on="1"/>
        <pt x="87" y="0" on="1"/>
        <pt x="12" y="0" on="1"/>
      </contour>
    </TTGlyph>
    <TTGlyph name="Amacron" xMin="12" yMin="0" xMax="571" yMax="772">
      <contour>
        <pt x="413" y="772" on="1"/>
        <pt x="413" y="720" on="1"/>
        <pt x="168" y="720" on="1"/>
        <pt x="168" y="772" on="1"/>
      </contour>
      <contour>
        <pt x="176" y="238" on="1"/>
        <pt x="404" y="238" on="1"/>
        <pt x="354" y="373" on="1"/>
        <pt x="340" y="408" on="0"/>
        <pt x="310" y="497" on="0"/>
        <pt x="293" y="550" on="1"/>
        <pt x="291" y="550" on="1"/>
        <pt x="283" y="524" on="0"/>
        <pt x="267" y="478" on="0"/>
        <pt x="252" y="436" on="0"/>
        <pt x="237" y="395" on="0"/>
        <pt x="228" y="373" on="1"/>
      </contour>
      <contour>
        <pt x="260" y="630" on="1"/>
        <pt x="327" y="630" on="1"/>
        <pt x="571" y="0" on="1"/>
        <pt x="495" y="0" on="1"/>
        <pt x="426" y="180" on="1"/>
        <pt x="156" y="180" on="1"/>
        <pt x="87" y="0" on="1"/>
        <pt x="12" y="0" on="1"/>
      </contour>
    </TTGlyph>
    <TTGlyph name="Aogonek" xMin="12" yMin="-206" xMax="600" yMax="630">
      <contour>
        <pt x="260" y="630" on="1"/>
        <pt x="327" y="630" on="1"/>
        <pt x="571" y="0" on="1"/>
        <pt x="519" y="-23" on="0"/>
        <pt x="472" y="-71" on="0"/>
        <pt x="472" y="-100" on="1"/>
        <pt x="472" y="-127" on="0"/>
        <pt x="506" y="-156" on="0"/>
        <pt x="536" y="-156" on="1"/>
        <pt x="567" y="-156" on="0"/>
        <pt x="589" y="-146" on="1"/>
        <pt x="600" y="-185" on="1"/>
        <pt x="565" y="-206" on="0"/>
        <pt x="520" y="-206" on="1"/>
        <pt x="474" y="-206" on="0"/>
        <pt x="413" y="-156" on="0"/>
        <pt x="413" y="-109" on="1"/>
        <pt x="413" y="-71" on="0"/>
        <pt x="462" y="-15" on="0"/>
        <pt x="495" y="0" on="1"/>
        <pt x="426" y="180" on="1"/>
        <pt x="156" y="180" on="1"/>
        <pt x="87" y="0" on="1"/>
        <pt x="12" y="0" on="1"/>
      </contour>
      <contour>
        <pt x="176" y="238" on="1"/>
        <pt x="404" y="238" on="1"/>
        <pt x="354" y="373" on="1"/>
        <pt x="340" y="408" on="0"/>
        <pt x="310" y="497" on="0"/>
        <pt x="293" y="550" on="1"/>
        <pt x="291" y="550" on="1"/>
        <pt x="283" y="524" on="0"/>
        <pt x="267" y="478" on="0"/>
        <pt x="252" y="436" on="0"/>
        <pt x="237" y="395" on="0"/>
        <pt x="228" y="373" on="1"/>
      </contour>
    </TTGlyph>
    <TTGlyph name="Aring" xMin="12" yMin="0" xMax="571" yMax="843">
      <contour>
        <pt x="198" y="760" on="1"/>
        <pt x="198" y="803" on="0"/>
        <pt x="254" y="843" on="0"/>
        <pt x="293" y="843" on="1"/>
        <pt x="333" y="843" on="0"/>
        <pt x="388" y="803" on="0"/>
        <pt x="388" y="760" on="1"/>
        <pt x="388" y="738" on="0"/>
        <pt x="372" y="707" on="0"/>
        <pt x="346" y="687" on="0"/>
        <pt x="312" y="677" on="0"/>
        <pt x="293" y="677" on="1"/>
        <pt x="255" y="677" on="0"/>
        <pt x="198" y="718" on="0"/>
      </contour>
      <contour>
        <pt x="242" y="760" on="1"/>
        <pt x="242" y="735" on="0"/>
        <pt x="269" y="707" on="0"/>
        <pt x="293" y="707" on="1"/>
        <pt x="317" y="707" on="0"/>
        <pt x="344" y="735" on="0"/>
        <pt x="344" y="760" on="1"/>
        <pt x="344" y="784" on="0"/>
        <pt x="316" y="812" on="0"/>
        <pt x="293" y="812" on="1"/>
        <pt x="270" y="812" on="0"/>
        <pt x="242" y="784" on="0"/>
      </contour>
      <contour>
        <pt x="176" y="238" on="1"/>
        <pt x="404" y="238" on="1"/>
        <pt x="354" y="373" on="1"/>
        <pt x="340" y="408" on="0"/>
        <pt x="310" y="497" on="0"/>
        <pt x="293" y="550" on="1"/>
        <pt x="291" y="550" on="1"/>
        <pt x="283" y="524" on="0"/>
        <pt x="267" y="478" on="0"/>
        <pt x="252" y="436" on="0"/>
        <pt x="237" y="395" on="0"/>
        <pt x="228" y="373" on="1"/>
      </contour>
      <contour>
        <pt x="260" y="630" on="1"/>
        <pt x="327" y="630" on="1"/>
        <pt x="571" y="0" on="1"/>
        <pt x="495" y="0" on="1"/>
        <pt x="426" y="180" on="1"/>
        <pt x="156" y="180" on="1"/>
        <pt x="87" y="0" on="1"/>
        <pt x="12" y="0" on="1"/>
      </contour>
    </TTGlyph>
    <TTGlyph name="Asmall" xMin="1" yMin="0" xMax="440" yMax="470">
      <contour>
        <pt x="187" y="470" on="1"/>
        <pt x="257" y="470" on="1"/>
        <pt x="440" y="0" on="1"/>
        <pt x="373" y="0" on="1"/>
        <pt x="323" y="128" on="1"/>
        <pt x="116" y="128" on="1"/>
        <pt x="67" y="0" on="1"/>
        <pt x="1" y="0" on="1"/>
      </contour>
      <contour>
        <pt x="223" y="410" on="1"/>
        <pt x="221" y="410" on="1"/>
        <pt x="211" y="378" on="0"/>
        <pt x="183" y="305" on="0"/>
        <pt x="173" y="280" on="1"/>
        <pt x="135" y="181" on="1"/>
        <pt x="304" y="181" on="1"/>
        <pt x="267" y="280" on="1"/>
        <pt x="258" y="305" on="0"/>
        <pt x="232" y="378" on="0"/>
      </contour>
    </TTGlyph>
    <TTGlyph name="Atilde" xMin="12" yMin="0" xMax="571" yMax="820">
      <contour>
        <pt x="143" y="712" on="1"/>
        <pt x="143" y="756" on="0"/>
        <pt x="184" y="817" on="0"/>
        <pt x="230" y="817" on="1"/>
        <pt x="251" y="817" on="0"/>
        <pt x="284" y="802" on="0"/>
        <pt x="313" y="783" on="0"/>
        <pt x="340" y="768" on="0"/>
        <pt x="357" y="768" on="1"/>
        <pt x="380" y="768" on="0"/>
        <pt x="399" y="800" on="0"/>
        <pt x="401" y="820" on="1"/>
        <pt x="446" y="820" on="1"/>
        <pt x="446" y="800" on="0"/>
        <pt x="435" y="763" on="0"/>
        <pt x="414" y="735" on="0"/>
        <pt x="383" y="717" on="0"/>
        <pt x="362" y="717" on="1"/>
        <pt x="340" y="717" on="0"/>
        <pt x="304" y="732" on="0"/>
        <pt x="273" y="750" on="0"/>
        <pt x="246" y="765" on="0"/>
        <pt x="233" y="765" on="1"/>
        <pt x="209" y="765" on="0"/>
        <pt x="190" y="734" on="0"/>
        <pt x="188" y="712" on="1"/>
      </contour>
      <contour>
        <pt x="176" y="238" on="1"/>
        <pt x="404" y="238" on="1"/>
        <pt x="354" y="373" on="1"/>
        <pt x="340" y="408" on="0"/>
        <pt x="310" y="497" on="0"/>
        <pt x="293" y="550" on="1"/>
        <pt x="291" y="550" on="1"/>
        <pt x="283" y="524" on="0"/>
        <pt x="267" y="478" on="0"/>
        <pt x="252" y="436" on="0"/>
        <pt x="237" y="395" on="0"/>
        <pt x="228" y="373" on="1"/>
      </contour>
      <contour>
        <pt x="260" y="630" on="1"/>
        <pt x="327" y="630" on="1"/>
        <pt x="571" y="0" on="1"/>
        <pt x="495" y="0" on="1"/>
        <pt x="426" y="180" on="1"/>
        <pt x="156" y="180" on="1"/>
        <pt x="87" y="0" on="1"/>
        <pt x="12" y="0" on="1"/>
      </contour>
    </TTGlyph>
    <TTGlyph name="B" xMin="80" yMin="0" xMax="467" yMax="630">
      <contour>
        <pt x="249" y="630" on="1"/>
        <pt x="343" y="630" on="0"/>
        <pt x="448" y="549" on="0"/>
        <pt x="448" y="471" on="1"/>
        <pt x="448" y="413" on="0"/>
        <pt x="383" y="348" on="0"/>
        <pt x="334" y="335" on="1"/>
        <pt x="362" y="330" on="0"/>
        <pt x="410" y="305" on="0"/>
        <pt x="446" y="265" on="0"/>
        <pt x="467" y="210" on="0"/>
        <pt x="467" y="176" on="1"/>
        <pt x="467" y="137" on="0"/>
        <pt x="434" y="72" on="0"/>
        <pt x="374" y="26" on="0"/>
        <pt x="290" y="0" on="0"/>
        <pt x="240" y="0" on="1"/>
        <pt x="80" y="0" on="1"/>
        <pt x="80" y="630" on="1"/>
      </contour>
      <contour>
        <pt x="152" y="360" on="1"/>
        <pt x="228" y="360" on="1"/>
        <pt x="256" y="360" on="0"/>
        <pt x="309" y="370" on="0"/>
        <pt x="350" y="394" on="0"/>
        <pt x="374" y="435" on="0"/>
        <pt x="374" y="466" on="1"/>
        <pt x="374" y="522" on="0"/>
        <pt x="297" y="572" on="0"/>
        <pt x="235" y="572" on="1"/>
        <pt x="152" y="572" on="1"/>
      </contour>
      <contour>
        <pt x="152" y="58" on="1"/>
        <pt x="230" y="58" on="1"/>
        <pt x="263" y="58" on="0"/>
        <pt x="321" y="71" on="0"/>
        <pt x="365" y="101" on="0"/>
        <pt x="391" y="150" on="0"/>
        <pt x="391" y="185" on="1"/>
        <pt x="391" y="219" on="0"/>
        <pt x="363" y="264" on="0"/>
        <pt x="316" y="291" on="0"/>
        <pt x="255" y="303" on="0"/>
        <pt x="223" y="303" on="1"/>
        <pt x="152" y="303" on="1"/>
      </contour>
    </TTGlyph>
    <TTGlyph name="Breve" xMin="15" yMin="710" xMax="284" yMax="834">
      <contour>
        <pt x="70" y="834" on="1"/>
        <pt x="72" y="799" on="0"/>
        <pt x="106" y="757" on="0"/>
        <pt x="150" y="757" on="1"/>
        <pt x="187" y="757" on="0"/>
        <pt x="227" y="797" on="0"/>
        <pt x="229" y="834" on="1"/>
        <pt x="284" y="834" on="1"/>
        <pt x="284" y="780" on="0"/>
        <pt x="215" y="710" on="0"/>
        <pt x="150" y="710" on="1"/>
        <pt x="114" y="710" on="0"/>
        <pt x="63" y="731" on="0"/>
        <pt x="30" y="765" on="0"/>
        <pt x="15" y="810" on="0"/>
        <pt x="15" y="834" on="1"/>
      </contour>
    </TTGlyph>
    <TTGlyph name="Bsmall" xMin="74" yMin="0" xMax="407" yMax="470">
      <contour>
        <pt x="237" y="470" on="1"/>
        <pt x="311" y="470" on="0"/>
        <pt x="387" y="406" on="0"/>
        <pt x="387" y="354" on="1"/>
        <pt x="387" y="316" on="0"/>
        <pt x="341" y="264" on="0"/>
        <pt x="305" y="252" on="1"/>
        <pt x="353" y="241" on="0"/>
        <pt x="407" y="183" on="0"/>
        <pt x="407" y="135" on="1"/>
        <pt x="407" y="107" on="0"/>
        <pt x="385" y="58" on="0"/>
        <pt x="342" y="21" on="0"/>
        <pt x="278" y="0" on="0"/>
        <pt x="236" y="0" on="1"/>
        <pt x="74" y="0" on="1"/>
        <pt x="74" y="470" on="1"/>
      </contour>
      <contour>
        <pt x="135" y="271" on="1"/>
        <pt x="221" y="271" on="1"/>
        <pt x="266" y="271" on="0"/>
        <pt x="317" y="309" on="0"/>
        <pt x="317" y="345" on="1"/>
        <pt x="317" y="379" on="0"/>
        <pt x="270" y="417" on="0"/>
        <pt x="216" y="417" on="1"/>
        <pt x="135" y="417" on="1"/>
      </contour>
      <contour>
        <pt x="135" y="53" on="1"/>
        <pt x="215" y="53" on="1"/>
        <pt x="272" y="53" on="0"/>
        <pt x="336" y="93" on="0"/>
        <pt x="336" y="141" on="1"/>
        <pt x="336" y="156" on="0"/>
        <pt x="325" y="184" on="0"/>
        <pt x="301" y="206" on="0"/>
        <pt x="263" y="219" on="0"/>
        <pt x="236" y="219" on="1"/>
        <pt x="135" y="219" on="1"/>
      </contour>
    </TTGlyph>
    <TTGlyph name="C" xMin="40" yMin="-9" xMax="511" yMax="638">
      <contour>
        <pt x="348" y="50" on="1"/>
        <pt x="397" y="50" on="0"/>
        <pt x="462" y="68" on="0"/>
        <pt x="491" y="82" on="1"/>
        <pt x="508" y="24" on="1"/>
        <pt x="475" y="8" on="0"/>
        <pt x="396" y="-9" on="0"/>
        <pt x="339" y="-9" on="1"/>
        <pt x="277" y="-9" on="0"/>
        <pt x="168" y="33" on="0"/>
        <pt x="87" y="115" on="0"/>
        <pt x="40" y="235" on="0"/>
        <pt x="40" y="314" on="1"/>
        <pt x="40" y="391" on="0"/>
        <pt x="85" y="512" on="0"/>
        <pt x="166" y="595" on="0"/>
        <pt x="276" y="638" on="0"/>
        <pt x="341" y="638" on="1"/>
        <pt x="400" y="638" on="0"/>
        <pt x="478" y="619" on="0"/>
        <pt x="511" y="602" on="1"/>
        <pt x="494" y="546" on="1"/>
        <pt x="459" y="563" on="0"/>
        <pt x="394" y="579" on="0"/>
        <pt x="352" y="579" on="1"/>
        <pt x="305" y="579" on="0"/>
        <pt x="220" y="549" on="0"/>
        <pt x="156" y="485" on="0"/>
        <pt x="117" y="384" on="0"/>
        <pt x="117" y="313" on="1"/>
        <pt x="117" y="240" on="0"/>
        <pt x="156" y="140" on="0"/>
        <pt x="221" y="78" on="0"/>
        <pt x="304" y="50" on="0"/>
      </contour>
    </TTGlyph>
    <TTGlyph name="Cacute" xMin="40" yMin="-9" xMax="511" yMax="834">
      <contour>
        <pt x="348" y="50" on="1"/>
        <pt x="397" y="50" on="0"/>
        <pt x="462" y="68" on="0"/>
        <pt x="491" y="82" on="1"/>
        <pt x="508" y="24" on="1"/>
        <pt x="475" y="8" on="0"/>
        <pt x="396" y="-9" on="0"/>
        <pt x="339" y="-9" on="1"/>
        <pt x="277" y="-9" on="0"/>
        <pt x="168" y="33" on="0"/>
        <pt x="87" y="115" on="0"/>
        <pt x="40" y="235" on="0"/>
        <pt x="40" y="314" on="1"/>
        <pt x="40" y="391" on="0"/>
        <pt x="85" y="512" on="0"/>
        <pt x="166" y="595" on="0"/>
        <pt x="276" y="638" on="0"/>
        <pt x="341" y="638" on="1"/>
        <pt x="400" y="638" on="0"/>
        <pt x="478" y="619" on="0"/>
        <pt x="511" y="602" on="1"/>
        <pt x="494" y="546" on="1"/>
        <pt x="459" y="563" on="0"/>
        <pt x="394" y="579" on="0"/>
        <pt x="352" y="579" on="1"/>
        <pt x="305" y="579" on="0"/>
        <pt x="220" y="549" on="0"/>
        <pt x="156" y="485" on="0"/>
        <pt x="117" y="384" on="0"/>
        <pt x="117" y="313" on="1"/>
        <pt x="117" y="240" on="0"/>
        <pt x="156" y="140" on="0"/>
        <pt x="221" y="78" on="0"/>
        <pt x="304" y="50" on="0"/>
      </contour>
      <contour>
        <pt x="307" y="710" on="1"/>
        <pt x="250" y="710" on="1"/>
        <pt x="335" y="834" on="1"/>
        <pt x="418" y="834" on="1"/>
      </contour>
    </TTGlyph>
    <TTGlyph name="Caron" xMin="23" yMin="710" xMax="329" yMax="844">
      <contour>
        <pt x="23" y="844" on="1"/>
        <pt x="89" y="844" on="1"/>
        <pt x="174" y="752" on="1"/>
        <pt x="259" y="844" on="1"/>
        <pt x="329" y="844" on="1"/>
        <pt x="204" y="710" on="1"/>
        <pt x="145" y="710" on="1"/>
      </contour>
    </TTGlyph>
    <TTGlyph name="Ccaron" xMin="40" yMin="-9" xMax="511" yMax="845">
      <contour>
        <pt x="348" y="50" on="1"/>
        <pt x="397" y="50" on="0"/>
        <pt x="462" y="68" on="0"/>
        <pt x="491" y="82" on="1"/>
        <pt x="508" y="24" on="1"/>
        <pt x="475" y="8" on="0"/>
        <pt x="396" y="-9" on="0"/>
        <pt x="339" y="-9" on="1"/>
        <pt x="277" y="-9" on="0"/>
        <pt x="168" y="33" on="0"/>
        <pt x="87" y="115" on="0"/>
        <pt x="40" y="235" on="0"/>
        <pt x="40" y="314" on="1"/>
        <pt x="40" y="391" on="0"/>
        <pt x="85" y="512" on="0"/>
        <pt x="166" y="595" on="0"/>
        <pt x="276" y="638" on="0"/>
        <pt x="341" y="638" on="1"/>
        <pt x="400" y="638" on="0"/>
        <pt x="478" y="619" on="0"/>
        <pt x="511" y="602" on="1"/>
        <pt x="494" y="546" on="1"/>
        <pt x="459" y="563" on="0"/>
        <pt x="394" y="579" on="0"/>
        <pt x="352" y="579" on="1"/>
        <pt x="305" y="579" on="0"/>
        <pt x="220" y="549" on="0"/>
        <pt x="156" y="485" on="0"/>
        <pt x="117" y="384" on="0"/>
        <pt x="117" y="313" on="1"/>
        <pt x="117" y="240" on="0"/>
        <pt x="156" y="140" on="0"/>
        <pt x="221" y="78" on="0"/>
        <pt x="304" y="50" on="0"/>
      </contour>
      <contour>
        <pt x="186" y="845" on="1"/>
        <pt x="254" y="845" on="1"/>
        <pt x="338" y="752" on="1"/>
        <pt x="422" y="845" on="1"/>
        <pt x="492" y="845" on="1"/>
        <pt x="367" y="711" on="1"/>
        <pt x="308" y="711" on="1"/>
      </contour>
    </TTGlyph>
    <TTGlyph name="Ccedilla" xMin="40" yMin="-214" xMax="511" yMax="638">
      <contour>
        <pt x="348" y="50" on="1"/>
        <pt x="397" y="50" on="0"/>
        <pt x="462" y="68" on="0"/>
        <pt x="491" y="82" on="1"/>
        <pt x="508" y="24" on="1"/>
        <pt x="476" y="9" on="0"/>
        <pt x="402" y="-8" on="0"/>
        <pt x="348" y="-9" on="1"/>
        <pt x="331" y="-47" on="1"/>
        <pt x="359" y="-48" on="0"/>
        <pt x="398" y="-62" on="0"/>
        <pt x="423" y="-84" on="0"/>
        <pt x="434" y="-111" on="0"/>
        <pt x="434" y="-126" on="1"/>
        <pt x="434" y="-168" on="0"/>
        <pt x="365" y="-214" on="0"/>
        <pt x="313" y="-214" on="1"/>
        <pt x="290" y="-214" on="0"/>
        <pt x="251" y="-207" on="0"/>
        <pt x="239" y="-202" on="1"/>
        <pt x="250" y="-165" on="1"/>
        <pt x="263" y="-170" on="0"/>
        <pt x="292" y="-174" on="0"/>
        <pt x="306" y="-174" on="1"/>
        <pt x="344" y="-174" on="0"/>
        <pt x="379" y="-149" on="0"/>
        <pt x="379" y="-128" on="1"/>
        <pt x="379" y="-118" on="0"/>
        <pt x="371" y="-100" on="0"/>
        <pt x="349" y="-86" on="0"/>
        <pt x="307" y="-78" on="0"/>
        <pt x="273" y="-78" on="1"/>
        <pt x="307" y="-7" on="1"/>
        <pt x="250" y="-2" on="0"/>
        <pt x="153" y="44" on="0"/>
        <pt x="81" y="125" on="0"/>
        <pt x="40" y="240" on="0"/>
        <pt x="40" y="314" on="1"/>
        <pt x="40" y="391" on="0"/>
        <pt x="85" y="512" on="0"/>
        <pt x="166" y="595" on="0"/>
        <pt x="276" y="638" on="0"/>
        <pt x="341" y="638" on="1"/>
        <pt x="400" y="638" on="0"/>
        <pt x="478" y="619" on="0"/>
        <pt x="511" y="602" on="1"/>
        <pt x="494" y="546" on="1"/>
        <pt x="459" y="563" on="0"/>
        <pt x="394" y="579" on="0"/>
        <pt x="352" y="579" on="1"/>
        <pt x="305" y="579" on="0"/>
        <pt x="220" y="549" on="0"/>
        <pt x="156" y="485" on="0"/>
        <pt x="117" y="384" on="0"/>
        <pt x="117" y="313" on="1"/>
        <pt x="117" y="240" on="0"/>
        <pt x="156" y="140" on="0"/>
        <pt x="221" y="78" on="0"/>
        <pt x="304" y="50" on="0"/>
      </contour>
    </TTGlyph>
    <TTGlyph name="Ccircumflex" xMin="40" yMin="-9" xMax="511" yMax="844">
      <contour>
        <pt x="348" y="50" on="1"/>
        <pt x="397" y="50" on="0"/>
        <pt x="462" y="68" on="0"/>
        <pt x="491" y="82" on="1"/>
        <pt x="508" y="24" on="1"/>
        <pt x="475" y="8" on="0"/>
        <pt x="396" y="-9" on="0"/>
        <pt x="339" y="-9" on="1"/>
        <pt x="277" y="-9" on="0"/>
        <pt x="168" y="33" on="0"/>
        <pt x="87" y="115" on="0"/>
        <pt x="40" y="235" on="0"/>
        <pt x="40" y="314" on="1"/>
        <pt x="40" y="391" on="0"/>
        <pt x="85" y="512" on="0"/>
        <pt x="166" y="595" on="0"/>
        <pt x="276" y="638" on="0"/>
        <pt x="341" y="638" on="1"/>
        <pt x="400" y="638" on="0"/>
        <pt x="478" y="619" on="0"/>
        <pt x="511" y="602" on="1"/>
        <pt x="494" y="546" on="1"/>
        <pt x="459" y="563" on="0"/>
        <pt x="394" y="579" on="0"/>
        <pt x="352" y="579" on="1"/>
        <pt x="305" y="579" on="0"/>
        <pt x="220" y="549" on="0"/>
        <pt x="156" y="485" on="0"/>
        <pt x="117" y="384" on="0"/>
        <pt x="117" y="313" on="1"/>
        <pt x="117" y="240" on="0"/>
        <pt x="156" y="140" on="0"/>
        <pt x="221" y="78" on="0"/>
        <pt x="304" y="50" on="0"/>
      </contour>
      <contour>
        <pt x="303" y="844" on="1"/>
        <pt x="362" y="844" on="1"/>
        <pt x="487" y="710" on="1"/>
        <pt x="417" y="710" on="1"/>
        <pt x="332" y="801" on="1"/>
        <pt x="247" y="710" on="1"/>
        <pt x="181" y="710" on="1"/>
      </contour>
    </TTGlyph>
    <TTGlyph name="Cdotaccent" xMin="40" yMin="-9" xMax="511" yMax="822">
      <contour>
        <pt x="348" y="50" on="1"/>
        <pt x="397" y="50" on="0"/>
        <pt x="462" y="68" on="0"/>
        <pt x="491" y="82" on="1"/>
        <pt x="508" y="24" on="1"/>
        <pt x="475" y="8" on="0"/>
        <pt x="396" y="-9" on="0"/>
        <pt x="339" y="-9" on="1"/>
        <pt x="277" y="-9" on="0"/>
        <pt x="168" y="33" on="0"/>
        <pt x="87" y="115" on="0"/>
        <pt x="40" y="235" on="0"/>
        <pt x="40" y="314" on="1"/>
        <pt x="40" y="391" on="0"/>
        <pt x="85" y="512" on="0"/>
        <pt x="166" y="595" on="0"/>
        <pt x="276" y="638" on="0"/>
        <pt x="341" y="638" on="1"/>
        <pt x="400" y="638" on="0"/>
        <pt x="478" y="619" on="0"/>
        <pt x="511" y="602" on="1"/>
        <pt x="494" y="546" on="1"/>
        <pt x="459" y="563" on="0"/>
        <pt x="394" y="579" on="0"/>
        <pt x="352" y="579" on="1"/>
        <pt x="305" y="579" on="0"/>
        <pt x="220" y="549" on="0"/>
        <pt x="156" y="485" on="0"/>
        <pt x="117" y="384" on="0"/>
        <pt x="117" y="313" on="1"/>
        <pt x="117" y="240" on="0"/>
        <pt x="156" y="140" on="0"/>
        <pt x="221" y="78" on="0"/>
        <pt x="304" y="50" on="0"/>
      </contour>
      <contour>
        <pt x="290" y="772" on="1"/>
        <pt x="290" y="792" on="0"/>
        <pt x="318" y="822" on="0"/>
        <pt x="338" y="822" on="1"/>
        <pt x="358" y="822" on="0"/>
        <pt x="386" y="792" on="0"/>
        <pt x="386" y="772" on="1"/>
        <pt x="386" y="750" on="0"/>
        <pt x="358" y="722" on="0"/>
        <pt x="338" y="722" on="1"/>
        <pt x="318" y="722" on="0"/>
        <pt x="290" y="750" on="0"/>
      </contour>
    </TTGlyph>
    <TTGlyph name="Cedilla" xMin="41" yMin="-214" xMax="236" yMax="0">
      <contour>
        <pt x="112" y="0" on="1"/>
        <pt x="154" y="0" on="1"/>
        <pt x="133" y="-47" on="1"/>
        <pt x="161" y="-48" on="0"/>
        <pt x="200" y="-62" on="0"/>
        <pt x="225" y="-84" on="0"/>
        <pt x="236" y="-111" on="0"/>
        <pt x="236" y="-126" on="1"/>
        <pt x="236" y="-168" on="0"/>
        <pt x="167" y="-214" on="0"/>
        <pt x="115" y="-214" on="1"/>
        <pt x="92" y="-214" on="0"/>
        <pt x="53" y="-207" on="0"/>
        <pt x="41" y="-202" on="1"/>
        <pt x="51" y="-165" on="1"/>
        <pt x="64" y="-170" on="0"/>
        <pt x="94" y="-174" on="0"/>
        <pt x="108" y="-174" on="1"/>
        <pt x="145" y="-174" on="0"/>
        <pt x="181" y="-149" on="0"/>
        <pt x="181" y="-128" on="1"/>
        <pt x="181" y="-118" on="0"/>
        <pt x="173" y="-100" on="0"/>
        <pt x="150" y="-86" on="0"/>
        <pt x="109" y="-78" on="0"/>
        <pt x="75" y="-78" on="1"/>
      </contour>
    </TTGlyph>
    <TTGlyph name="Circumflex" xMin="23" yMin="710" xMax="329" yMax="844">
      <contour>
        <pt x="145" y="844" on="1"/>
        <pt x="204" y="844" on="1"/>
        <pt x="329" y="710" on="1"/>
        <pt x="259" y="710" on="1"/>
        <pt x="174" y="801" on="1"/>
        <pt x="89" y="710" on="1"/>
        <pt x="23" y="710" on="1"/>
      </contour>
    </TTGlyph>
    <TTGlyph name="Csmall" xMin="41" yMin="-9" xMax="408" yMax="476">
      <contour>
        <pt x="288" y="43" on="1"/>
        <pt x="320" y="43" on="0"/>
        <pt x="370" y="57" on="0"/>
        <pt x="393" y="68" on="1"/>
        <pt x="408" y="18" on="1"/>
        <pt x="354" y="-9" on="0"/>
        <pt x="281" y="-9" on="1"/>
        <pt x="231" y="-9" on="0"/>
        <pt x="144" y="21" on="0"/>
        <pt x="79" y="82" on="0"/>
        <pt x="41" y="173" on="0"/>
        <pt x="41" y="234" on="1"/>
        <pt x="41" y="290" on="0"/>
        <pt x="76" y="380" on="0"/>
        <pt x="140" y="443" on="0"/>
        <pt x="227" y="476" on="0"/>
        <pt x="280" y="476" on="1"/>
        <pt x="312" y="476" on="0"/>
        <pt x="373" y="465" on="0"/>
        <pt x="406" y="451" on="1"/>
        <pt x="390" y="399" on="1"/>
        <pt x="366" y="412" on="0"/>
        <pt x="314" y="423" on="0"/>
        <pt x="288" y="423" on="1"/>
        <pt x="208" y="423" on="0"/>
        <pt x="111" y="324" on="0"/>
        <pt x="111" y="237" on="1"/>
        <pt x="111" y="182" on="0"/>
        <pt x="142" y="107" on="0"/>
        <pt x="191" y="62" on="0"/>
        <pt x="255" y="43" on="0"/>
      </contour>
    </TTGlyph>
    <TTGlyph name="D" xMin="80" yMin="0" xMax="576" yMax="630">
      <contour>
        <pt x="275" y="630" on="1"/>
        <pt x="339" y="630" on="0"/>
        <pt x="450" y="592" on="0"/>
        <pt x="530" y="517" on="0"/>
        <pt x="576" y="404" on="0"/>
        <pt x="576" y="329" on="1"/>
        <pt x="576" y="238" on="0"/>
        <pt x="522" y="112" on="0"/>
        <pt x="430" y="34" on="0"/>
        <pt x="308" y="0" on="0"/>
        <pt x="240" y="0" on="1"/>
        <pt x="80" y="0" on="1"/>
        <pt x="80" y="630" on="1"/>
      </contour>
      <contour>
        <pt x="152" y="59" on="1"/>
        <pt x="231" y="59" on="1"/>
        <pt x="281" y="59" on="0"/>
        <pt x="377" y="82" on="0"/>
        <pt x="453" y="143" on="0"/>
        <pt x="499" y="248" on="0"/>
        <pt x="499" y="329" on="1"/>
        <pt x="499" y="387" on="0"/>
        <pt x="464" y="477" on="0"/>
        <pt x="401" y="539" on="0"/>
        <pt x="311" y="571" on="0"/>
        <pt x="257" y="571" on="1"/>
        <pt x="152" y="571" on="1"/>
      </contour>
    </TTGlyph>
    <TTGlyph name="Dcaron" xMin="80" yMin="0" xMax="576" yMax="844">
      <contour>
        <pt x="275" y="630" on="1"/>
        <pt x="339" y="630" on="0"/>
        <pt x="450" y="592" on="0"/>
        <pt x="530" y="517" on="0"/>
        <pt x="576" y="404" on="0"/>
        <pt x="576" y="329" on="1"/>
        <pt x="576" y="238" on="0"/>
        <pt x="522" y="112" on="0"/>
        <pt x="430" y="34" on="0"/>
        <pt x="308" y="0" on="0"/>
        <pt x="240" y="0" on="1"/>
        <pt x="80" y="0" on="1"/>
        <pt x="80" y="630" on="1"/>
      </contour>
      <contour>
        <pt x="152" y="59" on="1"/>
        <pt x="231" y="59" on="1"/>
        <pt x="281" y="59" on="0"/>
        <pt x="377" y="82" on="0"/>
        <pt x="453" y="143" on="0"/>
        <pt x="499" y="248" on="0"/>
        <pt x="499" y="329" on="1"/>
        <pt x="499" y="387" on="0"/>
        <pt x="464" y="477" on="0"/>
        <pt x="401" y="539" on="0"/>
        <pt x="311" y="571" on="0"/>
        <pt x="257" y="571" on="1"/>
        <pt x="152" y="571" on="1"/>
      </contour>
      <contour>
        <pt x="123" y="844" on="1"/>
        <pt x="189" y="844" on="1"/>
        <pt x="274" y="753" on="1"/>
        <pt x="359" y="844" on="1"/>
        <pt x="429" y="844" on="1"/>
        <pt x="304" y="710" on="1"/>
        <pt x="245" y="710" on="1"/>
      </contour>
    </TTGlyph>
    <TTGlyph name="Dcroat" xMin="30" yMin="0" xMax="606" yMax="630">
      <contour>
        <pt x="305" y="630" on="1"/>
        <pt x="369" y="630" on="0"/>
        <pt x="480" y="592" on="0"/>
        <pt x="560" y="517" on="0"/>
        <pt x="606" y="404" on="0"/>
        <pt x="606" y="329" on="1"/>
        <pt x="606" y="238" on="0"/>
        <pt x="552" y="112" on="0"/>
        <pt x="460" y="34" on="0"/>
        <pt x="338" y="0" on="0"/>
        <pt x="270" y="0" on="1"/>
        <pt x="110" y="0" on="1"/>
        <pt x="110" y="303" on="1"/>
        <pt x="30" y="303" on="1"/>
        <pt x="30" y="355" on="1"/>
        <pt x="110" y="355" on="1"/>
        <pt x="110" y="630" on="1"/>
      </contour>
      <contour>
        <pt x="330" y="355" on="1"/>
        <pt x="330" y="303" on="1"/>
        <pt x="182" y="303" on="1"/>
        <pt x="182" y="59" on="1"/>
        <pt x="261" y="59" on="1"/>
        <pt x="311" y="59" on="0"/>
        <pt x="407" y="82" on="0"/>
        <pt x="483" y="143" on="0"/>
        <pt x="529" y="248" on="0"/>
        <pt x="529" y="329" on="1"/>
        <pt x="529" y="387" on="0"/>
        <pt x="494" y="477" on="0"/>
        <pt x="431" y="539" on="0"/>
        <pt x="341" y="571" on="0"/>
        <pt x="287" y="571" on="1"/>
        <pt x="182" y="571" on="1"/>
        <pt x="182" y="355" on="1"/>
      </contour>
    </TTGlyph>
    <TTGlyph name="Dieresis" xMin="32" yMin="716" xMax="290" yMax="810">
      <contour>
        <pt x="32" y="763" on="1"/>
        <pt x="32" y="783" on="0"/>
        <pt x="58" y="810" on="0"/>
        <pt x="77" y="810" on="1"/>
        <pt x="95" y="810" on="0"/>
        <pt x="122" y="783" on="0"/>
        <pt x="122" y="763" on="1"/>
        <pt x="122" y="743" on="0"/>
        <pt x="95" y="716" on="0"/>
        <pt x="77" y="716" on="1"/>
        <pt x="58" y="716" on="0"/>
        <pt x="32" y="743" on="0"/>
      </contour>
      <contour>
        <pt x="200" y="763" on="1"/>
        <pt x="200" y="783" on="0"/>
        <pt x="226" y="810" on="0"/>
        <pt x="245" y="810" on="1"/>
        <pt x="263" y="810" on="0"/>
        <pt x="290" y="783" on="0"/>
        <pt x="290" y="763" on="1"/>
        <pt x="290" y="743" on="0"/>
        <pt x="263" y="716" on="0"/>
        <pt x="245" y="716" on="1"/>
        <pt x="226" y="716" on="0"/>
        <pt x="200" y="743" on="0"/>
      </contour>
    </TTGlyph>
    <TTGlyph name="DieresisAcute" xMin="30" yMin="710" xMax="398" yMax="844">
      <contour>
        <pt x="30" y="776" on="1"/>
        <pt x="30" y="795" on="0"/>
        <pt x="56" y="822" on="0"/>
        <pt x="75" y="822" on="1"/>
        <pt x="93" y="822" on="0"/>
        <pt x="120" y="795" on="0"/>
        <pt x="120" y="776" on="1"/>
        <pt x="120" y="755" on="0"/>
        <pt x="93" y="728" on="0"/>
        <pt x="75" y="728" on="1"/>
        <pt x="56" y="728" on="0"/>
        <pt x="30" y="755" on="0"/>
      </contour>
      <contour>
        <pt x="308" y="776" on="1"/>
        <pt x="308" y="795" on="0"/>
        <pt x="334" y="822" on="0"/>
        <pt x="353" y="822" on="1"/>
        <pt x="371" y="822" on="0"/>
        <pt x="398" y="795" on="0"/>
        <pt x="398" y="776" on="1"/>
        <pt x="398" y="755" on="0"/>
        <pt x="371" y="728" on="0"/>
        <pt x="353" y="728" on="1"/>
        <pt x="334" y="728" on="0"/>
        <pt x="308" y="755" on="0"/>
      </contour>
      <contour>
        <pt x="194" y="710" on="1"/>
        <pt x="137" y="710" on="1"/>
        <pt x="212" y="844" on="1"/>
        <pt x="295" y="844" on="1"/>
      </contour>
    </TTGlyph>
    <TTGlyph name="DieresisGrave" xMin="30" yMin="710" xMax="398" yMax="844">
      <contour>
        <pt x="398" y="776" on="1"/>
        <pt x="398" y="795" on="0"/>
        <pt x="372" y="822" on="0"/>
        <pt x="353" y="822" on="1"/>
        <pt x="334" y="822" on="0"/>
        <pt x="308" y="795" on="0"/>
        <pt x="308" y="776" on="1"/>
        <pt x="308" y="755" on="0"/>
        <pt x="334" y="728" on="0"/>
        <pt x="353" y="728" on="1"/>
        <pt x="372" y="728" on="0"/>
        <pt x="398" y="755" on="0"/>
      </contour>
      <contour>
        <pt x="120" y="776" on="1"/>
        <pt x="120" y="795" on="0"/>
        <pt x="94" y="822" on="0"/>
        <pt x="75" y="822" on="1"/>
        <pt x="56" y="822" on="0"/>
        <pt x="30" y="795" on="0"/>
        <pt x="30" y="776" on="1"/>
        <pt x="30" y="755" on="0"/>
        <pt x="57" y="728" on="0"/>
        <pt x="75" y="728" on="1"/>
        <pt x="94" y="728" on="0"/>
        <pt x="120" y="755" on="0"/>
      </contour>
      <contour>
        <pt x="133" y="844" on="1"/>
        <pt x="216" y="844" on="1"/>
        <pt x="291" y="710" on="1"/>
        <pt x="234" y="710" on="1"/>
      </contour>
    </TTGlyph>
    <TTGlyph name="Dotaccent" xMin="29" yMin="716" xMax="125" yMax="816">
      <contour>
        <pt x="29" y="767" on="1"/>
        <pt x="29" y="787" on="0"/>
        <pt x="57" y="816" on="0"/>
        <pt x="77" y="816" on="1"/>
        <pt x="97" y="816" on="0"/>
        <pt x="125" y="787" on="0"/>
        <pt x="125" y="767" on="1"/>
        <pt x="125" y="744" on="0"/>
        <pt x="97" y="716" on="0"/>
        <pt x="77" y="716" on="1"/>
        <pt x="57" y="716" on="0"/>
        <pt x="29" y="744" on="0"/>
      </contour>
    </TTGlyph>
    <TTGlyph name="Dsmall" xMin="74" yMin="0" xMax="464" yMax="470">
      <contour>
        <pt x="217" y="470" on="1"/>
        <pt x="265" y="470" on="0"/>
        <pt x="354" y="446" on="0"/>
        <pt x="423" y="392" on="0"/>
        <pt x="464" y="307" on="0"/>
        <pt x="464" y="246" on="1"/>
        <pt x="464" y="182" on="0"/>
        <pt x="425" y="89" on="0"/>
        <pt x="357" y="29" on="0"/>
        <pt x="264" y="0" on="0"/>
        <pt x="211" y="0" on="1"/>
        <pt x="74" y="0" on="1"/>
        <pt x="74" y="470" on="1"/>
      </contour>
      <contour>
        <pt x="142" y="53" on="1"/>
        <pt x="191" y="53" on="1"/>
        <pt x="222" y="53" on="0"/>
        <pt x="294" y="66" on="0"/>
        <pt x="354" y="106" on="0"/>
        <pt x="394" y="181" on="0"/>
        <pt x="394" y="243" on="1"/>
        <pt x="394" y="331" on="0"/>
        <pt x="291" y="416" on="0"/>
        <pt x="191" y="416" on="1"/>
        <pt x="142" y="416" on="1"/>
      </contour>
    </TTGlyph>
    <TTGlyph name="E" xMin="80" yMin="0" xMax="453" yMax="630">
      <contour>
        <pt x="80" y="630" on="1"/>
        <pt x="450" y="630" on="1"/>
        <pt x="450" y="571" on="1"/>
        <pt x="152" y="571" on="1"/>
        <pt x="152" y="355" on="1"/>
        <pt x="424" y="355" on="1"/>
        <pt x="424" y="296" on="1"/>
        <pt x="152" y="296" on="1"/>
        <pt x="152" y="59" on="1"/>
        <pt x="453" y="59" on="1"/>
        <pt x="453" y="0" on="1"/>
        <pt x="80" y="0" on="1"/>
      </contour>
    </TTGlyph>
    <TTGlyph name="Eacute" xMin="80" yMin="0" xMax="453" yMax="834">
      <contour>
        <pt x="80" y="630" on="1"/>
        <pt x="450" y="630" on="1"/>
        <pt x="450" y="571" on="1"/>
        <pt x="152" y="571" on="1"/>
        <pt x="152" y="355" on="1"/>
        <pt x="424" y="355" on="1"/>
        <pt x="424" y="296" on="1"/>
        <pt x="152" y="296" on="1"/>
        <pt x="152" y="59" on="1"/>
        <pt x="453" y="59" on="1"/>
        <pt x="453" y="0" on="1"/>
        <pt x="80" y="0" on="1"/>
      </contour>
      <contour>
        <pt x="257" y="710" on="1"/>
        <pt x="200" y="710" on="1"/>
        <pt x="285" y="834" on="1"/>
        <pt x="368" y="834" on="1"/>
      </contour>
    </TTGlyph>
    <TTGlyph name="Ebreve" xMin="80" yMin="0" xMax="453" yMax="840">
      <contour>
        <pt x="80" y="630" on="1"/>
        <pt x="450" y="630" on="1"/>
        <pt x="450" y="571" on="1"/>
        <pt x="152" y="571" on="1"/>
        <pt x="152" y="355" on="1"/>
        <pt x="424" y="355" on="1"/>
        <pt x="424" y="296" on="1"/>
        <pt x="152" y="296" on="1"/>
        <pt x="152" y="59" on="1"/>
        <pt x="453" y="59" on="1"/>
        <pt x="453" y="0" on="1"/>
        <pt x="80" y="0" on="1"/>
      </contour>
      <contour>
        <pt x="192" y="840" on="1"/>
        <pt x="194" y="805" on="0"/>
        <pt x="228" y="763" on="0"/>
        <pt x="272" y="763" on="1"/>
        <pt x="309" y="763" on="0"/>
        <pt x="348" y="803" on="0"/>
        <pt x="350" y="840" on="1"/>
        <pt x="405" y="840" on="1"/>
        <pt x="405" y="786" on="0"/>
        <pt x="337" y="716" on="0"/>
        <pt x="272" y="716" on="1"/>
        <pt x="236" y="716" on="0"/>
        <pt x="185" y="737" on="0"/>
        <pt x="152" y="771" on="0"/>
        <pt x="136" y="816" on="0"/>
        <pt x="136" y="840" on="1"/>
      </contour>
    </TTGlyph>
    <TTGlyph name="Ecaron" xMin="80" yMin="0" xMax="453" yMax="845">
      <contour>
        <pt x="80" y="630" on="1"/>
        <pt x="450" y="630" on="1"/>
        <pt x="450" y="571" on="1"/>
        <pt x="152" y="571" on="1"/>
        <pt x="152" y="355" on="1"/>
        <pt x="424" y="355" on="1"/>
        <pt x="424" y="296" on="1"/>
        <pt x="152" y="296" on="1"/>
        <pt x="152" y="59" on="1"/>
        <pt x="453" y="59" on="1"/>
        <pt x="453" y="0" on="1"/>
        <pt x="80" y="0" on="1"/>
      </contour>
      <contour>
        <pt x="121" y="845" on="1"/>
        <pt x="189" y="845" on="1"/>
        <pt x="273" y="752" on="1"/>
        <pt x="358" y="845" on="1"/>
        <pt x="427" y="845" on="1"/>
        <pt x="302" y="711" on="1"/>
        <pt x="243" y="711" on="1"/>
      </contour>
    </TTGlyph>
    <TTGlyph name="Ecircumflex" xMin="80" yMin="0" xMax="453" yMax="844">
      <contour>
        <pt x="80" y="630" on="1"/>
        <pt x="450" y="630" on="1"/>
        <pt x="450" y="571" on="1"/>
        <pt x="152" y="571" on="1"/>
        <pt x="152" y="355" on="1"/>
        <pt x="424" y="355" on="1"/>
        <pt x="424" y="296" on="1"/>
        <pt x="152" y="296" on="1"/>
        <pt x="152" y="59" on="1"/>
        <pt x="453" y="59" on="1"/>
        <pt x="453" y="0" on="1"/>
        <pt x="80" y="0" on="1"/>
      </contour>
      <contour>
        <pt x="234" y="844" on="1"/>
        <pt x="293" y="844" on="1"/>
        <pt x="418" y="710" on="1"/>
        <pt x="348" y="710" on="1"/>
        <pt x="263" y="801" on="1"/>
        <pt x="178" y="710" on="1"/>
        <pt x="112" y="710" on="1"/>
      </contour>
    </TTGlyph>
    <TTGlyph name="Edieresis" xMin="80" yMin="0" xMax="453" yMax="810">
      <contour>
        <pt x="80" y="630" on="1"/>
        <pt x="450" y="630" on="1"/>
        <pt x="450" y="571" on="1"/>
        <pt x="152" y="571" on="1"/>
        <pt x="152" y="355" on="1"/>
        <pt x="424" y="355" on="1"/>
        <pt x="424" y="296" on="1"/>
        <pt x="152" y="296" on="1"/>
        <pt x="152" y="59" on="1"/>
        <pt x="453" y="59" on="1"/>
        <pt x="453" y="0" on="1"/>
        <pt x="80" y="0" on="1"/>
      </contour>
      <contour>
        <pt x="139" y="763" on="1"/>
        <pt x="139" y="783" on="0"/>
        <pt x="165" y="810" on="0"/>
        <pt x="184" y="810" on="1"/>
        <pt x="202" y="810" on="0"/>
        <pt x="229" y="783" on="0"/>
        <pt x="229" y="763" on="1"/>
        <pt x="229" y="743" on="0"/>
        <pt x="202" y="716" on="0"/>
        <pt x="184" y="716" on="1"/>
        <pt x="165" y="716" on="0"/>
        <pt x="139" y="743" on="0"/>
      </contour>
      <contour>
        <pt x="307" y="763" on="1"/>
        <pt x="307" y="783" on="0"/>
        <pt x="333" y="810" on="0"/>
        <pt x="352" y="810" on="1"/>
        <pt x="370" y="810" on="0"/>
        <pt x="397" y="783" on="0"/>
        <pt x="397" y="763" on="1"/>
        <pt x="397" y="743" on="0"/>
        <pt x="370" y="716" on="0"/>
        <pt x="352" y="716" on="1"/>
        <pt x="333" y="716" on="0"/>
        <pt x="307" y="743" on="0"/>
      </contour>
    </TTGlyph>
    <TTGlyph name="Edotaccent" xMin="80" yMin="0" xMax="453" yMax="822">
      <contour>
        <pt x="80" y="630" on="1"/>
        <pt x="450" y="630" on="1"/>
        <pt x="450" y="571" on="1"/>
        <pt x="152" y="571" on="1"/>
        <pt x="152" y="355" on="1"/>
        <pt x="424" y="355" on="1"/>
        <pt x="424" y="296" on="1"/>
        <pt x="152" y="296" on="1"/>
        <pt x="152" y="59" on="1"/>
        <pt x="453" y="59" on="1"/>
        <pt x="453" y="0" on="1"/>
        <pt x="80" y="0" on="1"/>
      </contour>
      <contour>
        <pt x="226" y="772" on="1"/>
        <pt x="226" y="792" on="0"/>
        <pt x="254" y="822" on="0"/>
        <pt x="274" y="822" on="1"/>
        <pt x="294" y="822" on="0"/>
        <pt x="322" y="792" on="0"/>
        <pt x="322" y="772" on="1"/>
        <pt x="322" y="750" on="0"/>
        <pt x="294" y="722" on="0"/>
        <pt x="274" y="722" on="1"/>
        <pt x="254" y="722" on="0"/>
        <pt x="226" y="750" on="0"/>
      </contour>
    </TTGlyph>
    <TTGlyph name="Egrave" xMin="80" yMin="0" xMax="453" yMax="834">
      <contour>
        <pt x="80" y="630" on="1"/>
        <pt x="450" y="630" on="1"/>
        <pt x="450" y="571" on="1"/>
        <pt x="152" y="571" on="1"/>
        <pt x="152" y="355" on="1"/>
        <pt x="424" y="355" on="1"/>
        <pt x="424" y="296" on="1"/>
        <pt x="152" y="296" on="1"/>
        <pt x="152" y="59" on="1"/>
        <pt x="453" y="59" on="1"/>
        <pt x="453" y="0" on="1"/>
        <pt x="80" y="0" on="1"/>
      </contour>
      <contour>
        <pt x="180" y="834" on="1"/>
        <pt x="263" y="834" on="1"/>
        <pt x="348" y="710" on="1"/>
        <pt x="291" y="710" on="1"/>
      </contour>
    </TTGlyph>
    <TTGlyph name="Emacron" xMin="80" yMin="0" xMax="453" yMax="772">
      <contour>
        <pt x="80" y="630" on="1"/>
        <pt x="450" y="630" on="1"/>
        <pt x="450" y="571" on="1"/>
        <pt x="152" y="571" on="1"/>
        <pt x="152" y="355" on="1"/>
        <pt x="424" y="355" on="1"/>
        <pt x="424" y="296" on="1"/>
        <pt x="152" y="296" on="1"/>
        <pt x="152" y="59" on="1"/>
        <pt x="453" y="59" on="1"/>
        <pt x="453" y="0" on="1"/>
        <pt x="80" y="0" on="1"/>
      </contour>
      <contour>
        <pt x="390" y="772" on="1"/>
        <pt x="390" y="720" on="1"/>
        <pt x="145" y="720" on="1"/>
        <pt x="145" y="772" on="1"/>
      </contour>
    </TTGlyph>
    <TTGlyph name="Eng" xMin="80" yMin="-228" xMax="563" yMax="630">
      <contour>
        <pt x="241" y="385" on="1"/>
        <pt x="144" y="570" on="1"/>
        <pt x="141" y="570" on="1"/>
        <pt x="150" y="366" on="1"/>
        <pt x="150" y="0" on="1"/>
        <pt x="80" y="0" on="1"/>
        <pt x="80" y="630" on="1"/>
        <pt x="175" y="630" on="1"/>
        <pt x="416" y="228" on="1"/>
        <pt x="497" y="77" on="1"/>
        <pt x="499" y="77" on="1"/>
        <pt x="493" y="246" on="1"/>
        <pt x="493" y="630" on="1"/>
        <pt x="563" y="630" on="1"/>
        <pt x="563" y="61" on="1"/>
        <pt x="563" y="5" on="0"/>
        <pt x="550" y="-83" on="0"/>
        <pt x="515" y="-153" on="0"/>
        <pt x="457" y="-207" on="0"/>
        <pt x="412" y="-228" on="1"/>
        <pt x="379" y="-174" on="1"/>
        <pt x="434" y="-146" on="0"/>
        <pt x="486" y="-75" on="0"/>
        <pt x="491" y="-16" on="1"/>
      </contour>
    </TTGlyph>
    <TTGlyph name="Eogonek" xMin="80" yMin="-206" xMax="479" yMax="630">
      <contour>
        <pt x="453" y="0" on="1"/>
        <pt x="405" y="-19" on="0"/>
        <pt x="351" y="-69" on="0"/>
        <pt x="351" y="-101" on="1"/>
        <pt x="351" y="-127" on="0"/>
        <pt x="386" y="-156" on="0"/>
        <pt x="415" y="-156" on="1"/>
        <pt x="446" y="-156" on="0"/>
        <pt x="468" y="-146" on="1"/>
        <pt x="479" y="-185" on="1"/>
        <pt x="444" y="-206" on="0"/>
        <pt x="399" y="-206" on="1"/>
        <pt x="353" y="-206" on="0"/>
        <pt x="292" y="-156" on="0"/>
        <pt x="292" y="-109" on="1"/>
        <pt x="292" y="-71" on="0"/>
        <pt x="339" y="-16" on="0"/>
        <pt x="373" y="-2" on="1"/>
        <pt x="373" y="0" on="1"/>
        <pt x="80" y="0" on="1"/>
        <pt x="80" y="630" on="1"/>
        <pt x="450" y="630" on="1"/>
        <pt x="450" y="571" on="1"/>
        <pt x="152" y="571" on="1"/>
        <pt x="152" y="355" on="1"/>
        <pt x="424" y="355" on="1"/>
        <pt x="424" y="296" on="1"/>
        <pt x="152" y="296" on="1"/>
        <pt x="152" y="59" on="1"/>
        <pt x="453" y="59" on="1"/>
      </contour>
    </TTGlyph>
    <TTGlyph name="Esmall" xMin="74" yMin="0" xMax="378" yMax="470">
      <contour>
        <pt x="74" y="470" on="1"/>
        <pt x="376" y="470" on="1"/>
        <pt x="376" y="417" on="1"/>
        <pt x="141" y="417" on="1"/>
        <pt x="141" y="269" on="1"/>
        <pt x="356" y="269" on="1"/>
        <pt x="356" y="217" on="1"/>
        <pt x="141" y="217" on="1"/>
        <pt x="141" y="53" on="1"/>
        <pt x="378" y="53" on="1"/>
        <pt x="378" y="0" on="1"/>
        <pt x="74" y="0" on="1"/>
      </contour>
    </TTGlyph>
    <TTGlyph name="Eth" xMin="30" yMin="0" xMax="606" yMax="630">
      <contour>
        <pt x="305" y="630" on="1"/>
        <pt x="369" y="630" on="0"/>
        <pt x="480" y="592" on="0"/>
        <pt x="560" y="517" on="0"/>
        <pt x="606" y="404" on="0"/>
        <pt x="606" y="329" on="1"/>
        <pt x="606" y="238" on="0"/>
        <pt x="552" y="112" on="0"/>
        <pt x="460" y="34" on="0"/>
        <pt x="338" y="0" on="0"/>
        <pt x="270" y="0" on="1"/>
        <pt x="110" y="0" on="1"/>
        <pt x="110" y="303" on="1"/>
        <pt x="30" y="303" on="1"/>
        <pt x="30" y="355" on="1"/>
        <pt x="110" y="355" on="1"/>
        <pt x="110" y="630" on="1"/>
      </contour>
      <contour>
        <pt x="330" y="355" on="1"/>
        <pt x="330" y="303" on="1"/>
        <pt x="182" y="303" on="1"/>
        <pt x="182" y="59" on="1"/>
        <pt x="261" y="59" on="1"/>
        <pt x="311" y="59" on="0"/>
        <pt x="407" y="82" on="0"/>
        <pt x="483" y="143" on="0"/>
        <pt x="529" y="248" on="0"/>
        <pt x="529" y="329" on="1"/>
        <pt x="529" y="387" on="0"/>
        <pt x="494" y="477" on="0"/>
        <pt x="431" y="539" on="0"/>
        <pt x="341" y="571" on="0"/>
        <pt x="287" y="571" on="1"/>
        <pt x="182" y="571" on="1"/>
        <pt x="182" y="355" on="1"/>
      </contour>
    </TTGlyph>
    <TTGlyph name="Euro" xMin="5" yMin="-9" xMax="521" yMax="638">
      <contour>
        <pt x="363" y="50" on="1"/>
        <pt x="408" y="50" on="0"/>
        <pt x="472" y="68" on="0"/>
        <pt x="501" y="82" on="1"/>
        <pt x="518" y="24" on="1"/>
        <pt x="485" y="8" on="0"/>
        <pt x="411" y="-9" on="0"/>
        <pt x="354" y="-9" on="1"/>
        <pt x="302" y="-9" on="0"/>
        <pt x="210" y="21" on="0"/>
        <pt x="137" y="81" on="0"/>
        <pt x="87" y="169" on="0"/>
        <pt x="77" y="228" on="1"/>
        <pt x="5" y="228" on="1"/>
        <pt x="5" y="274" on="1"/>
        <pt x="71" y="274" on="1"/>
        <pt x="70" y="291" on="0"/>
        <pt x="70" y="307" on="0"/>
        <pt x="70" y="316" on="1"/>
        <pt x="70" y="339" on="1"/>
        <pt x="5" y="339" on="1"/>
        <pt x="5" y="385" on="1"/>
        <pt x="77" y="385" on="1"/>
        <pt x="94" y="505" on="0"/>
        <pt x="241" y="638" on="0"/>
        <pt x="356" y="638" on="1"/>
        <pt x="415" y="638" on="0"/>
        <pt x="488" y="619" on="0"/>
        <pt x="521" y="602" on="1"/>
        <pt x="504" y="546" on="1"/>
        <pt x="469" y="563" on="0"/>
        <pt x="405" y="579" on="0"/>
        <pt x="367" y="579" on="1"/>
        <pt x="328" y="579" on="0"/>
        <pt x="256" y="555" on="0"/>
        <pt x="197" y="507" on="0"/>
        <pt x="157" y="434" on="0"/>
        <pt x="151" y="385" on="1"/>
        <pt x="446" y="385" on="1"/>
        <pt x="446" y="339" on="1"/>
        <pt x="145" y="339" on="1"/>
        <pt x="145" y="320" on="1"/>
        <pt x="145" y="309" on="0"/>
        <pt x="145" y="288" on="0"/>
        <pt x="146" y="274" on="1"/>
        <pt x="446" y="274" on="1"/>
        <pt x="446" y="228" on="1"/>
        <pt x="153" y="228" on="1"/>
        <pt x="161" y="179" on="0"/>
        <pt x="202" y="111" on="0"/>
        <pt x="259" y="69" on="0"/>
        <pt x="327" y="50" on="0"/>
      </contour>
    </TTGlyph>
    <TTGlyph name="F" xMin="80" yMin="0" xMax="440" yMax="630">
      <contour>
        <pt x="440" y="630" on="1"/>
        <pt x="440" y="571" on="1"/>
        <pt x="152" y="571" on="1"/>
        <pt x="152" y="343" on="1"/>
        <pt x="418" y="343" on="1"/>
        <pt x="418" y="285" on="1"/>
        <pt x="152" y="285" on="1"/>
        <pt x="152" y="0" on="1"/>
        <pt x="80" y="0" on="1"/>
        <pt x="80" y="630" on="1"/>
      </contour>
    </TTGlyph>
    <TTGlyph name="Fsmall" xMin="74" yMin="0" xMax="362" yMax="470">
      <contour>
        <pt x="362" y="470" on="1"/>
        <pt x="362" y="417" on="1"/>
        <pt x="142" y="417" on="1"/>
        <pt x="142" y="260" on="1"/>
        <pt x="344" y="260" on="1"/>
        <pt x="344" y="207" on="1"/>
        <pt x="142" y="207" on="1"/>
        <pt x="142" y="0" on="1"/>
        <pt x="74" y="0" on="1"/>
        <pt x="74" y="470" on="1"/>
      </contour>
    </TTGlyph>
    <TTGlyph name="G" xMin="45" yMin="-9" xMax="541" yMax="638">
      <contour>
        <pt x="351" y="638" on="1"/>
        <pt x="405" y="638" on="0"/>
        <pt x="489" y="622" on="0"/>
        <pt x="527" y="602" on="1"/>
        <pt x="509" y="545" on="1"/>
        <pt x="474" y="562" on="0"/>
        <pt x="401" y="580" on="0"/>
        <pt x="362" y="580" on="1"/>
        <pt x="314" y="580" on="0"/>
        <pt x="227" y="552" on="0"/>
        <pt x="161" y="489" on="0"/>
        <pt x="121" y="387" on="0"/>
        <pt x="121" y="314" on="1"/>
        <pt x="121" y="251" on="0"/>
        <pt x="155" y="152" on="0"/>
        <pt x="218" y="85" on="0"/>
        <pt x="304" y="50" on="0"/>
        <pt x="357" y="50" on="1"/>
        <pt x="395" y="50" on="0"/>
        <pt x="452" y="60" on="0"/>
        <pt x="472" y="68" on="1"/>
        <pt x="472" y="268" on="1"/>
        <pt x="345" y="268" on="1"/>
        <pt x="345" y="324" on="1"/>
        <pt x="541" y="324" on="1"/>
        <pt x="541" y="25" on="1"/>
        <pt x="504" y="10" on="0"/>
        <pt x="417" y="-9" on="0"/>
        <pt x="354" y="-9" on="1"/>
        <pt x="290" y="-9" on="0"/>
        <pt x="178" y="33" on="0"/>
        <pt x="94" y="115" on="0"/>
        <pt x="45" y="235" on="0"/>
        <pt x="45" y="314" on="1"/>
        <pt x="45" y="393" on="0"/>
        <pt x="91" y="515" on="0"/>
        <pt x="173" y="596" on="0"/>
        <pt x="285" y="638" on="0"/>
      </contour>
    </TTGlyph>
    <TTGlyph name="Gbreve" xMin="45" yMin="-9" xMax="541" yMax="846">
      <contour>
        <pt x="351" y="638" on="1"/>
        <pt x="405" y="638" on="0"/>
        <pt x="489" y="622" on="0"/>
        <pt x="527" y="602" on="1"/>
        <pt x="509" y="545" on="1"/>
        <pt x="474" y="562" on="0"/>
        <pt x="401" y="580" on="0"/>
        <pt x="362" y="580" on="1"/>
        <pt x="314" y="580" on="0"/>
        <pt x="227" y="552" on="0"/>
        <pt x="161" y="489" on="0"/>
        <pt x="121" y="387" on="0"/>
        <pt x="121" y="314" on="1"/>
        <pt x="121" y="251" on="0"/>
        <pt x="155" y="152" on="0"/>
        <pt x="218" y="85" on="0"/>
        <pt x="304" y="50" on="0"/>
        <pt x="357" y="50" on="1"/>
        <pt x="395" y="50" on="0"/>
        <pt x="452" y="60" on="0"/>
        <pt x="472" y="68" on="1"/>
        <pt x="472" y="268" on="1"/>
        <pt x="345" y="268" on="1"/>
        <pt x="345" y="324" on="1"/>
        <pt x="541" y="324" on="1"/>
        <pt x="541" y="25" on="1"/>
        <pt x="504" y="10" on="0"/>
        <pt x="417" y="-9" on="0"/>
        <pt x="354" y="-9" on="1"/>
        <pt x="290" y="-9" on="0"/>
        <pt x="178" y="33" on="0"/>
        <pt x="94" y="115" on="0"/>
        <pt x="45" y="235" on="0"/>
        <pt x="45" y="314" on="1"/>
        <pt x="45" y="393" on="0"/>
        <pt x="91" y="515" on="0"/>
        <pt x="173" y="596" on="0"/>
        <pt x="285" y="638" on="0"/>
      </contour>
      <contour>
        <pt x="274" y="846" on="1"/>
        <pt x="276" y="811" on="0"/>
        <pt x="310" y="769" on="0"/>
        <pt x="354" y="769" on="1"/>
        <pt x="391" y="769" on="0"/>
        <pt x="430" y="809" on="0"/>
        <pt x="432" y="846" on="1"/>
        <pt x="487" y="846" on="1"/>
        <pt x="487" y="792" on="0"/>
        <pt x="419" y="722" on="0"/>
        <pt x="354" y="722" on="1"/>
        <pt x="318" y="722" on="0"/>
        <pt x="267" y="743" on="0"/>
        <pt x="234" y="777" on="0"/>
        <pt x="218" y="822" on="0"/>
        <pt x="218" y="846" on="1"/>
      </contour>
    </TTGlyph>
    <TTGlyph name="Gcircumflex" xMin="45" yMin="-9" xMax="541" yMax="844">
      <contour>
        <pt x="351" y="638" on="1"/>
        <pt x="405" y="638" on="0"/>
        <pt x="489" y="622" on="0"/>
        <pt x="527" y="602" on="1"/>
        <pt x="509" y="545" on="1"/>
        <pt x="474" y="562" on="0"/>
        <pt x="401" y="580" on="0"/>
        <pt x="362" y="580" on="1"/>
        <pt x="314" y="580" on="0"/>
        <pt x="227" y="552" on="0"/>
        <pt x="161" y="489" on="0"/>
        <pt x="121" y="387" on="0"/>
        <pt x="121" y="314" on="1"/>
        <pt x="121" y="251" on="0"/>
        <pt x="155" y="152" on="0"/>
        <pt x="218" y="85" on="0"/>
        <pt x="304" y="50" on="0"/>
        <pt x="357" y="50" on="1"/>
        <pt x="395" y="50" on="0"/>
        <pt x="452" y="60" on="0"/>
        <pt x="472" y="68" on="1"/>
        <pt x="472" y="268" on="1"/>
        <pt x="345" y="268" on="1"/>
        <pt x="345" y="324" on="1"/>
        <pt x="541" y="324" on="1"/>
        <pt x="541" y="25" on="1"/>
        <pt x="504" y="10" on="0"/>
        <pt x="417" y="-9" on="0"/>
        <pt x="354" y="-9" on="1"/>
        <pt x="290" y="-9" on="0"/>
        <pt x="178" y="33" on="0"/>
        <pt x="94" y="115" on="0"/>
        <pt x="45" y="235" on="0"/>
        <pt x="45" y="314" on="1"/>
        <pt x="45" y="393" on="0"/>
        <pt x="91" y="515" on="0"/>
        <pt x="173" y="596" on="0"/>
        <pt x="285" y="638" on="0"/>
      </contour>
      <contour>
        <pt x="315" y="844" on="1"/>
        <pt x="374" y="844" on="1"/>
        <pt x="499" y="710" on="1"/>
        <pt x="429" y="710" on="1"/>
        <pt x="344" y="801" on="1"/>
        <pt x="259" y="710" on="1"/>
        <pt x="193" y="710" on="1"/>
      </contour>
    </TTGlyph>
    <TTGlyph name="Gcommaaccent" xMin="45" yMin="-310" xMax="541" yMax="638">
      <contour>
        <pt x="351" y="638" on="1"/>
        <pt x="405" y="638" on="0"/>
        <pt x="489" y="622" on="0"/>
        <pt x="527" y="602" on="1"/>
        <pt x="509" y="545" on="1"/>
        <pt x="473" y="562" on="0"/>
        <pt x="402" y="580" on="0"/>
        <pt x="362" y="580" on="1"/>
        <pt x="314" y="580" on="0"/>
        <pt x="227" y="552" on="0"/>
        <pt x="161" y="489" on="0"/>
        <pt x="121" y="387" on="0"/>
        <pt x="121" y="314" on="1"/>
        <pt x="121" y="251" on="0"/>
        <pt x="155" y="152" on="0"/>
        <pt x="218" y="85" on="0"/>
        <pt x="304" y="50" on="0"/>
        <pt x="357" y="50" on="1"/>
        <pt x="395" y="50" on="0"/>
        <pt x="452" y="60" on="0"/>
        <pt x="472" y="68" on="1"/>
        <pt x="472" y="268" on="1"/>
        <pt x="345" y="268" on="1"/>
        <pt x="345" y="324" on="1"/>
        <pt x="541" y="324" on="1"/>
        <pt x="541" y="25" on="1"/>
        <pt x="504" y="10" on="0"/>
        <pt x="417" y="-9" on="0"/>
        <pt x="354" y="-9" on="1"/>
        <pt x="290" y="-9" on="0"/>
        <pt x="178" y="33" on="0"/>
        <pt x="94" y="115" on="0"/>
        <pt x="45" y="235" on="0"/>
        <pt x="45" y="314" on="1"/>
        <pt x="45" y="393" on="0"/>
        <pt x="91" y="515" on="0"/>
        <pt x="173" y="596" on="0"/>
        <pt x="285" y="638" on="0"/>
      </contour>
      <contour>
        <pt x="342" y="-184" on="1"/>
        <pt x="326" y="-181" on="0"/>
        <pt x="297" y="-155" on="0"/>
        <pt x="297" y="-131" on="1"/>
        <pt x="297" y="-110" on="0"/>
        <pt x="324" y="-81" on="0"/>
        <pt x="347" y="-81" on="1"/>
        <pt x="357" y="-81" on="0"/>
        <pt x="378" y="-89" on="0"/>
        <pt x="395" y="-107" on="0"/>
        <pt x="406" y="-136" on="0"/>
        <pt x="406" y="-158" on="1"/>
        <pt x="406" y="-181" on="0"/>
        <pt x="390" y="-225" on="0"/>
        <pt x="362" y="-265" on="0"/>
        <pt x="324" y="-299" on="0"/>
        <pt x="303" y="-310" on="1"/>
        <pt x="280" y="-279" on="1"/>
        <pt x="309" y="-263" on="0"/>
        <pt x="350" y="-212" on="0"/>
        <pt x="354" y="-187" on="1"/>
      </contour>
    </TTGlyph>
    <TTGlyph name="Gdotaccent" xMin="45" yMin="-9" xMax="541" yMax="822">
      <contour>
        <pt x="351" y="638" on="1"/>
        <pt x="405" y="638" on="0"/>
        <pt x="489" y="622" on="0"/>
        <pt x="527" y="602" on="1"/>
        <pt x="509" y="545" on="1"/>
        <pt x="474" y="562" on="0"/>
        <pt x="401" y="580" on="0"/>
        <pt x="362" y="580" on="1"/>
        <pt x="314" y="580" on="0"/>
        <pt x="227" y="552" on="0"/>
        <pt x="161" y="489" on="0"/>
        <pt x="121" y="387" on="0"/>
        <pt x="121" y="314" on="1"/>
        <pt x="121" y="251" on="0"/>
        <pt x="155" y="152" on="0"/>
        <pt x="218" y="85" on="0"/>
        <pt x="304" y="50" on="0"/>
        <pt x="357" y="50" on="1"/>
        <pt x="395" y="50" on="0"/>
        <pt x="452" y="60" on="0"/>
        <pt x="472" y="68" on="1"/>
        <pt x="472" y="268" on="1"/>
        <pt x="345" y="268" on="1"/>
        <pt x="345" y="324" on="1"/>
        <pt x="541" y="324" on="1"/>
        <pt x="541" y="25" on="1"/>
        <pt x="504" y="10" on="0"/>
        <pt x="417" y="-9" on="0"/>
        <pt x="354" y="-9" on="1"/>
        <pt x="290" y="-9" on="0"/>
        <pt x="178" y="33" on="0"/>
        <pt x="94" y="115" on="0"/>
        <pt x="45" y="235" on="0"/>
        <pt x="45" y="314" on="1"/>
        <pt x="45" y="393" on="0"/>
        <pt x="91" y="515" on="0"/>
        <pt x="173" y="596" on="0"/>
        <pt x="285" y="638" on="0"/>
      </contour>
      <contour>
        <pt x="304" y="772" on="1"/>
        <pt x="304" y="792" on="0"/>
        <pt x="332" y="822" on="0"/>
        <pt x="352" y="822" on="1"/>
        <pt x="372" y="822" on="0"/>
        <pt x="400" y="792" on="0"/>
        <pt x="400" y="772" on="1"/>
        <pt x="400" y="750" on="0"/>
        <pt x="372" y="722" on="0"/>
        <pt x="352" y="722" on="1"/>
        <pt x="332" y="722" on="0"/>
        <pt x="304" y="750" on="0"/>
      </contour>
    </TTGlyph>
    <TTGlyph name="Grave" xMin="27" yMin="710" xMax="195" yMax="834">
      <contour>
        <pt x="27" y="834" on="1"/>
        <pt x="110" y="834" on="1"/>
        <pt x="195" y="710" on="1"/>
        <pt x="138" y="710" on="1"/>
      </contour>
    </TTGlyph>
    <TTGlyph name="Gsmall" xMin="42" yMin="-9" xMax="437" yMax="476">
      <contour>
        <pt x="294" y="44" on="1"/>
        <pt x="316" y="44" on="0"/>
        <pt x="362" y="51" on="0"/>
        <pt x="379" y="57" on="1"/>
        <pt x="379" y="195" on="1"/>
        <pt x="273" y="195" on="1"/>
        <pt x="273" y="245" on="1"/>
        <pt x="437" y="245" on="1"/>
        <pt x="437" y="19" on="1"/>
        <pt x="407" y="5" on="0"/>
        <pt x="330" y="-9" on="0"/>
        <pt x="289" y="-9" on="1"/>
        <pt x="237" y="-9" on="0"/>
        <pt x="147" y="21" on="0"/>
        <pt x="80" y="82" on="0"/>
        <pt x="42" y="173" on="0"/>
        <pt x="42" y="234" on="1"/>
        <pt x="42" y="290" on="0"/>
        <pt x="78" y="380" on="0"/>
        <pt x="143" y="443" on="0"/>
        <pt x="233" y="476" on="0"/>
        <pt x="288" y="476" on="1"/>
        <pt x="319" y="476" on="0"/>
        <pt x="387" y="468" on="0"/>
        <pt x="421" y="454" on="1"/>
        <pt x="406" y="402" on="1"/>
        <pt x="381" y="413" on="0"/>
        <pt x="326" y="423" on="0"/>
        <pt x="295" y="423" on="1"/>
        <pt x="211" y="423" on="0"/>
        <pt x="112" y="326" on="0"/>
        <pt x="112" y="237" on="1"/>
        <pt x="112" y="182" on="0"/>
        <pt x="143" y="108" on="0"/>
        <pt x="194" y="63" on="0"/>
        <pt x="259" y="44" on="0"/>
      </contour>
    </TTGlyph>
    <TTGlyph name="H" xMin="80" yMin="0" xMax="543" yMax="630">
      <contour>
        <pt x="80" y="0" on="1"/>
        <pt x="80" y="630" on="1"/>
        <pt x="152" y="630" on="1"/>
        <pt x="152" y="356" on="1"/>
        <pt x="471" y="356" on="1"/>
        <pt x="471" y="630" on="1"/>
        <pt x="543" y="630" on="1"/>
        <pt x="543" y="0" on="1"/>
        <pt x="471" y="0" on="1"/>
        <pt x="471" y="296" on="1"/>
        <pt x="152" y="296" on="1"/>
        <pt x="152" y="0" on="1"/>
      </contour>
    </TTGlyph>
    <TTGlyph name="Hbar" xMin="20" yMin="0" xMax="623" yMax="630">
      <contour>
        <pt x="623" y="540" on="1"/>
        <pt x="623" y="488" on="1"/>
        <pt x="553" y="488" on="1"/>
        <pt x="553" y="0" on="1"/>
        <pt x="481" y="0" on="1"/>
        <pt x="481" y="296" on="1"/>
        <pt x="162" y="296" on="1"/>
        <pt x="162" y="0" on="1"/>
        <pt x="90" y="0" on="1"/>
        <pt x="90" y="488" on="1"/>
        <pt x="20" y="488" on="1"/>
        <pt x="20" y="540" on="1"/>
        <pt x="90" y="540" on="1"/>
        <pt x="90" y="630" on="1"/>
        <pt x="162" y="630" on="1"/>
        <pt x="162" y="540" on="1"/>
        <pt x="481" y="540" on="1"/>
        <pt x="481" y="630" on="1"/>
        <pt x="553" y="630" on="1"/>
        <pt x="553" y="540" on="1"/>
      </contour>
      <contour>
        <pt x="481" y="356" on="1"/>
        <pt x="481" y="488" on="1"/>
        <pt x="162" y="488" on="1"/>
        <pt x="162" y="356" on="1"/>
      </contour>
    </TTGlyph>
    <TTGlyph name="Hcircumflex" xMin="80" yMin="0" xMax="543" yMax="844">
      <contour>
        <pt x="80" y="0" on="1"/>
        <pt x="80" y="630" on="1"/>
        <pt x="152" y="630" on="1"/>
        <pt x="152" y="356" on="1"/>
        <pt x="471" y="356" on="1"/>
        <pt x="471" y="630" on="1"/>
        <pt x="543" y="630" on="1"/>
        <pt x="543" y="0" on="1"/>
        <pt x="471" y="0" on="1"/>
        <pt x="471" y="296" on="1"/>
        <pt x="152" y="296" on="1"/>
        <pt x="152" y="0" on="1"/>
      </contour>
      <contour>
        <pt x="283" y="844" on="1"/>
        <pt x="342" y="844" on="1"/>
        <pt x="467" y="710" on="1"/>
        <pt x="397" y="710" on="1"/>
        <pt x="312" y="801" on="1"/>
        <pt x="227" y="710" on="1"/>
        <pt x="161" y="710" on="1"/>
      </contour>
    </TTGlyph>
    <TTGlyph name="Hsmall" xMin="74" yMin="0" xMax="437" yMax="470">
      <contour>
        <pt x="74" y="0" on="1"/>
        <pt x="74" y="470" on="1"/>
        <pt x="140" y="470" on="1"/>
        <pt x="140" y="274" on="1"/>
        <pt x="370" y="274" on="1"/>
        <pt x="370" y="470" on="1"/>
        <pt x="437" y="470" on="1"/>
        <pt x="437" y="0" on="1"/>
        <pt x="370" y="0" on="1"/>
        <pt x="370" y="219" on="1"/>
        <pt x="140" y="219" on="1"/>
        <pt x="140" y="0" on="1"/>
      </contour>
    </TTGlyph>
    <TTGlyph name="Hungarumlaut" xMin="26" yMin="710" xMax="369" yMax="834">
      <contour>
        <pt x="204" y="710" on="1"/>
        <pt x="289" y="834" on="1"/>
        <pt x="369" y="834" on="1"/>
        <pt x="261" y="710" on="1"/>
      </contour>
      <contour>
        <pt x="26" y="710" on="1"/>
        <pt x="111" y="834" on="1"/>
        <pt x="191" y="834" on="1"/>
        <pt x="83" y="710" on="1"/>
      </contour>
    </TTGlyph>
    <TTGlyph name="I" xMin="80" yMin="0" xMax="152" yMax="630">
      <contour>
        <pt x="152" y="630" on="1"/>
        <pt x="152" y="0" on="1"/>
        <pt x="80" y="0" on="1"/>
        <pt x="80" y="630" on="1"/>
      </contour>
    </TTGlyph>
    <TTGlyph name="IJ" xMin="80" yMin="-145" xMax="395" yMax="630">
      <contour>
        <pt x="152" y="630" on="1"/>
        <pt x="152" y="0" on="1"/>
        <pt x="80" y="0" on="1"/>
        <pt x="80" y="630" on="1"/>
      </contour>
      <contour>
        <pt x="395" y="630" on="1"/>
        <pt x="395" y="109" on="1"/>
        <pt x="395" y="43" on="0"/>
        <pt x="382" y="-39" on="0"/>
        <pt x="360" y="-70" on="1"/>
        <pt x="346" y="-91" on="0"/>
        <pt x="307" y="-119" on="0"/>
        <pt x="263" y="-137" on="0"/>
        <pt x="215" y="-145" on="0"/>
        <pt x="193" y="-145" on="1"/>
        <pt x="193" y="-89" on="1"/>
        <pt x="224" y="-88" on="0"/>
        <pt x="270" y="-71" on="0"/>
        <pt x="287" y="-55" on="1"/>
        <pt x="309" y="-34" on="0"/>
        <pt x="323" y="30" on="0"/>
        <pt x="323" y="68" on="1"/>
        <pt x="323" y="630" on="1"/>
      </contour>
    </TTGlyph>
    <TTGlyph name="I_01" xMin="-10" yMin="0" xMax="476" yMax="839">
      <contour>
        <pt x="85" y="579" on="1"/>
        <pt x="-10" y="579" on="1"/>
        <pt x="-10" y="630" on="1"/>
        <pt x="67" y="630" on="1"/>
        <pt x="54" y="642" on="0"/>
        <pt x="35" y="693" on="0"/>
        <pt x="35" y="719" on="1"/>
        <pt x="35" y="747" on="0"/>
        <pt x="56" y="792" on="0"/>
        <pt x="94" y="823" on="0"/>
        <pt x="144" y="839" on="0"/>
        <pt x="174" y="839" on="1"/>
        <pt x="227" y="839" on="0"/>
        <pt x="318" y="795" on="0"/>
        <pt x="392" y="729" on="0"/>
        <pt x="449" y="652" on="0"/>
        <pt x="469" y="619" on="1"/>
        <pt x="476" y="607" on="1"/>
        <pt x="431" y="585" on="1"/>
        <pt x="422" y="598" on="1"/>
        <pt x="402" y="629" on="0"/>
        <pt x="351" y="695" on="0"/>
        <pt x="291" y="750" on="0"/>
        <pt x="222" y="785" on="0"/>
        <pt x="184" y="785" on="1"/>
        <pt x="142" y="785" on="0"/>
        <pt x="99" y="742" on="0"/>
        <pt x="99" y="708" on="1"/>
        <pt x="99" y="685" on="0"/>
        <pt x="114" y="644" on="0"/>
        <pt x="125" y="630" on="1"/>
        <pt x="243" y="630" on="1"/>
        <pt x="243" y="579" on="1"/>
        <pt x="148" y="579" on="1"/>
        <pt x="148" y="0" on="1"/>
        <pt x="85" y="0" on="1"/>
      </contour>
    </TTGlyph>
    <TTGlyph name="I_02" xMin="-10" yMin="0" xMax="605" yMax="844">
      <contour>
        <pt x="85" y="579" on="1"/>
        <pt x="-10" y="579" on="1"/>
        <pt x="-10" y="630" on="1"/>
        <pt x="76" y="630" on="1"/>
        <pt x="71" y="638" on="0"/>
        <pt x="61" y="672" on="0"/>
        <pt x="61" y="695" on="1"/>
        <pt x="61" y="726" on="0"/>
        <pt x="86" y="781" on="0"/>
        <pt x="135" y="821" on="0"/>
        <pt x="208" y="844" on="0"/>
        <pt x="257" y="844" on="1"/>
        <pt x="324" y="844" on="0"/>
        <pt x="434" y="797" on="0"/>
        <pt x="519" y="729" on="0"/>
        <pt x="580" y="653" on="0"/>
        <pt x="598" y="624" on="1"/>
        <pt x="605" y="612" on="1"/>
        <pt x="557" y="585" on="1"/>
        <pt x="546" y="602" on="1"/>
        <pt x="523" y="637" on="0"/>
        <pt x="464" y="704" on="0"/>
        <pt x="392" y="757" on="0"/>
        <pt x="308" y="790" on="0"/>
        <pt x="260" y="790" on="1"/>
        <pt x="189" y="790" on="0"/>
        <pt x="127" y="727" on="0"/>
        <pt x="127" y="683" on="1"/>
        <pt x="127" y="669" on="0"/>
        <pt x="131" y="642" on="0"/>
        <pt x="137" y="630" on="1"/>
        <pt x="243" y="630" on="1"/>
        <pt x="243" y="579" on="1"/>
        <pt x="148" y="579" on="1"/>
        <pt x="148" y="0" on="1"/>
        <pt x="85" y="0" on="1"/>
      </contour>
    </TTGlyph>
    <TTGlyph name="I_03" xMin="-10" yMin="0" xMax="675" yMax="844">
      <contour>
        <pt x="85" y="579" on="1"/>
        <pt x="-10" y="579" on="1"/>
        <pt x="-10" y="630" on="1"/>
        <pt x="76" y="630" on="1"/>
        <pt x="70" y="640" on="0"/>
        <pt x="61" y="675" on="0"/>
        <pt x="61" y="692" on="1"/>
        <pt x="61" y="726" on="0"/>
        <pt x="92" y="783" on="0"/>
        <pt x="149" y="822" on="0"/>
        <pt x="231" y="844" on="0"/>
        <pt x="281" y="844" on="1"/>
        <pt x="358" y="844" on="0"/>
        <pt x="482" y="798" on="0"/>
        <pt x="578" y="730" on="0"/>
        <pt x="647" y="652" on="0"/>
        <pt x="669" y="621" on="1"/>
        <pt x="675" y="612" on="1"/>
        <pt x="629" y="583" on="1"/>
        <pt x="619" y="596" on="1"/>
        <pt x="591" y="633" on="0"/>
        <pt x="522" y="703" on="0"/>
        <pt x="439" y="757" on="0"/>
        <pt x="341" y="790" on="0"/>
        <pt x="284" y="790" on="1"/>
        <pt x="207" y="790" on="0"/>
        <pt x="127" y="727" on="0"/>
        <pt x="127" y="679" on="1"/>
        <pt x="127" y="649" on="0"/>
        <pt x="136" y="630" on="1"/>
        <pt x="243" y="630" on="1"/>
        <pt x="243" y="579" on="1"/>
        <pt x="148" y="579" on="1"/>
        <pt x="148" y="0" on="1"/>
        <pt x="85" y="0" on="1"/>
      </contour>
    </TTGlyph>
    <TTGlyph name="I_04" xMin="-10" yMin="0" xMax="700" yMax="844">
      <contour>
        <pt x="85" y="579" on="1"/>
        <pt x="-10" y="579" on="1"/>
        <pt x="-10" y="630" on="1"/>
        <pt x="76" y="630" on="1"/>
        <pt x="69" y="640" on="0"/>
        <pt x="60" y="671" on="0"/>
        <pt x="60" y="689" on="1"/>
        <pt x="60" y="724" on="0"/>
        <pt x="92" y="781" on="0"/>
        <pt x="152" y="822" on="0"/>
        <pt x="238" y="844" on="0"/>
        <pt x="291" y="844" on="1"/>
        <pt x="369" y="844" on="0"/>
        <pt x="497" y="801" on="0"/>
        <pt x="597" y="736" on="0"/>
        <pt x="671" y="658" on="0"/>
        <pt x="694" y="623" on="1"/>
        <pt x="700" y="614" on="1"/>
        <pt x="656" y="586" on="1"/>
        <pt x="644" y="601" on="1"/>
        <pt x="620" y="634" on="0"/>
        <pt x="550" y="702" on="0"/>
        <pt x="461" y="756" on="0"/>
        <pt x="355" y="790" on="0"/>
        <pt x="294" y="790" on="1"/>
        <pt x="207" y="790" on="0"/>
        <pt x="126" y="725" on="0"/>
        <pt x="126" y="677" on="1"/>
        <pt x="126" y="663" on="0"/>
        <pt x="130" y="642" on="0"/>
        <pt x="136" y="630" on="1"/>
        <pt x="243" y="630" on="1"/>
        <pt x="243" y="579" on="1"/>
        <pt x="148" y="579" on="1"/>
        <pt x="148" y="0" on="1"/>
        <pt x="85" y="0" on="1"/>
      </contour>
    </TTGlyph>
    <TTGlyph name="I_05" xMin="-10" yMin="0" xMax="745" yMax="844">
      <contour>
        <pt x="85" y="579" on="1"/>
        <pt x="-10" y="579" on="1"/>
        <pt x="-10" y="630" on="1"/>
        <pt x="76" y="630" on="1"/>
        <pt x="69" y="640" on="0"/>
        <pt x="61" y="672" on="0"/>
        <pt x="61" y="690" on="1"/>
        <pt x="61" y="723" on="0"/>
        <pt x="93" y="780" on="0"/>
        <pt x="154" y="821" on="0"/>
        <pt x="241" y="844" on="0"/>
        <pt x="296" y="844" on="1"/>
        <pt x="377" y="844" on="0"/>
        <pt x="515" y="799" on="0"/>
        <pt x="627" y="733" on="0"/>
        <pt x="710" y="656" on="0"/>
        <pt x="737" y="625" on="1"/>
        <pt x="745" y="616" on="1"/>
        <pt x="702" y="582" on="1"/>
        <pt x="689" y="596" on="1"/>
        <pt x="656" y="630" on="0"/>
        <pt x="575" y="700" on="0"/>
        <pt x="478" y="755" on="0"/>
        <pt x="364" y="790" on="0"/>
        <pt x="299" y="790" on="1"/>
        <pt x="255" y="790" on="0"/>
        <pt x="190" y="772" on="0"/>
        <pt x="148" y="742" on="0"/>
        <pt x="127" y="701" on="0"/>
        <pt x="127" y="678" on="1"/>
        <pt x="127" y="666" on="0"/>
        <pt x="131" y="641" on="0"/>
        <pt x="136" y="630" on="1"/>
        <pt x="243" y="630" on="1"/>
        <pt x="243" y="579" on="1"/>
        <pt x="148" y="579" on="1"/>
        <pt x="148" y="0" on="1"/>
        <pt x="85" y="0" on="1"/>
      </contour>
    </TTGlyph>
    <TTGlyph name="I_06" xMin="-10" yMin="0" xMax="764" yMax="844">
      <contour>
        <pt x="76" y="630" on="1"/>
        <pt x="70" y="640" on="0"/>
        <pt x="60" y="672" on="0"/>
        <pt x="60" y="690" on="1"/>
        <pt x="60" y="723" on="0"/>
        <pt x="93" y="780" on="0"/>
        <pt x="156" y="821" on="0"/>
        <pt x="245" y="844" on="0"/>
        <pt x="301" y="844" on="1"/>
        <pt x="392" y="844" on="0"/>
        <pt x="539" y="801" on="0"/>
        <pt x="651" y="736" on="0"/>
        <pt x="731" y="658" on="0"/>
        <pt x="757" y="622" on="1"/>
        <pt x="764" y="613" on="1"/>
        <pt x="722" y="583" on="1"/>
        <pt x="710" y="598" on="1"/>
        <pt x="679" y="635" on="0"/>
        <pt x="599" y="704" on="0"/>
        <pt x="498" y="758" on="0"/>
        <pt x="377" y="790" on="0"/>
        <pt x="304" y="790" on="1"/>
        <pt x="213" y="790" on="0"/>
        <pt x="126" y="724" on="0"/>
        <pt x="126" y="679" on="1"/>
        <pt x="126" y="667" on="0"/>
        <pt x="130" y="642" on="0"/>
        <pt x="137" y="630" on="1"/>
        <pt x="243" y="630" on="1"/>
        <pt x="243" y="579" on="1"/>
        <pt x="148" y="579" on="1"/>
        <pt x="148" y="0" on="1"/>
        <pt x="85" y="0" on="1"/>
        <pt x="85" y="579" on="1"/>
        <pt x="-10" y="579" on="1"/>
        <pt x="-10" y="630" on="1"/>
      </contour>
    </TTGlyph>
    <TTGlyph name="I_07" xMin="-10" yMin="0" xMax="807" yMax="845">
      <contour>
        <pt x="76" y="630" on="1"/>
        <pt x="70" y="640" on="0"/>
        <pt x="61" y="671" on="0"/>
        <pt x="61" y="688" on="1"/>
        <pt x="61" y="721" on="0"/>
        <pt x="94" y="779" on="0"/>
        <pt x="157" y="821" on="0"/>
        <pt x="250" y="845" on="0"/>
        <pt x="311" y="845" on="1"/>
        <pt x="404" y="845" on="0"/>
        <pt x="560" y="800" on="0"/>
        <pt x="682" y="733" on="0"/>
        <pt x="771" y="656" on="0"/>
        <pt x="797" y="625" on="1"/>
        <pt x="807" y="613" on="1"/>
        <pt x="765" y="583" on="1"/>
        <pt x="753" y="596" on="1"/>
        <pt x="717" y="634" on="0"/>
        <pt x="628" y="704" on="0"/>
        <pt x="519" y="758" on="0"/>
        <pt x="390" y="791" on="0"/>
        <pt x="314" y="791" on="1"/>
        <pt x="264" y="791" on="0"/>
        <pt x="193" y="772" on="0"/>
        <pt x="147" y="740" on="0"/>
        <pt x="126" y="698" on="0"/>
        <pt x="126" y="675" on="1"/>
        <pt x="126" y="663" on="0"/>
        <pt x="131" y="639" on="0"/>
        <pt x="137" y="630" on="1"/>
        <pt x="243" y="630" on="1"/>
        <pt x="243" y="579" on="1"/>
        <pt x="148" y="579" on="1"/>
        <pt x="148" y="0" on="1"/>
        <pt x="85" y="0" on="1"/>
        <pt x="85" y="579" on="1"/>
        <pt x="-10" y="579" on="1"/>
        <pt x="-10" y="630" on="1"/>
      </contour>
    </TTGlyph>
    <TTGlyph name="I_08" xMin="-10" yMin="0" xMax="841" yMax="844">
      <contour>
        <pt x="75" y="630" on="1"/>
        <pt x="69" y="641" on="0"/>
        <pt x="60" y="670" on="0"/>
        <pt x="60" y="687" on="1"/>
        <pt x="60" y="720" on="0"/>
        <pt x="96" y="778" on="0"/>
        <pt x="165" y="820" on="0"/>
        <pt x="267" y="844" on="0"/>
        <pt x="334" y="844" on="1"/>
        <pt x="439" y="844" on="0"/>
        <pt x="605" y="795" on="0"/>
        <pt x="728" y="725" on="0"/>
        <pt x="811" y="650" on="0"/>
        <pt x="833" y="625" on="1"/>
        <pt x="841" y="616" on="1"/>
        <pt x="803" y="583" on="1"/>
        <pt x="791" y="595" on="1"/>
        <pt x="757" y="629" on="0"/>
        <pt x="674" y="698" on="0"/>
        <pt x="566" y="754" on="0"/>
        <pt x="427" y="790" on="0"/>
        <pt x="337" y="790" on="1"/>
        <pt x="281" y="790" on="0"/>
        <pt x="201" y="771" on="0"/>
        <pt x="150" y="740" on="0"/>
        <pt x="126" y="698" on="0"/>
        <pt x="126" y="676" on="1"/>
        <pt x="126" y="663" on="0"/>
        <pt x="130" y="641" on="0"/>
        <pt x="136" y="630" on="1"/>
        <pt x="243" y="630" on="1"/>
        <pt x="243" y="579" on="1"/>
        <pt x="148" y="579" on="1"/>
        <pt x="148" y="0" on="1"/>
        <pt x="85" y="0" on="1"/>
        <pt x="85" y="579" on="1"/>
        <pt x="-10" y="579" on="1"/>
        <pt x="-10" y="630" on="1"/>
      </contour>
    </TTGlyph>
    <TTGlyph name="I_09" xMin="-10" yMin="0" xMax="895" yMax="844">
      <contour>
        <pt x="75" y="630" on="1"/>
        <pt x="69" y="640" on="0"/>
        <pt x="60" y="671" on="0"/>
        <pt x="60" y="689" on="1"/>
        <pt x="60" y="756" on="0"/>
        <pt x="204" y="844" on="0"/>
        <pt x="344" y="844" on="1"/>
        <pt x="448" y="844" on="0"/>
        <pt x="622" y="800" on="0"/>
        <pt x="759" y="734" on="0"/>
        <pt x="856" y="657" on="0"/>
        <pt x="884" y="625" on="1"/>
        <pt x="895" y="613" on="1"/>
        <pt x="855" y="584" on="1"/>
        <pt x="842" y="598" on="1"/>
        <pt x="808" y="634" on="0"/>
        <pt x="711" y="703" on="0"/>
        <pt x="587" y="757" on="0"/>
        <pt x="436" y="790" on="0"/>
        <pt x="347" y="790" on="1"/>
        <pt x="288" y="790" on="0"/>
        <pt x="204" y="772" on="0"/>
        <pt x="151" y="741" on="0"/>
        <pt x="126" y="700" on="0"/>
        <pt x="126" y="678" on="1"/>
        <pt x="126" y="666" on="0"/>
        <pt x="130" y="641" on="0"/>
        <pt x="135" y="630" on="1"/>
        <pt x="243" y="630" on="1"/>
        <pt x="243" y="579" on="1"/>
        <pt x="148" y="579" on="1"/>
        <pt x="148" y="0" on="1"/>
        <pt x="85" y="0" on="1"/>
        <pt x="85" y="579" on="1"/>
        <pt x="-10" y="579" on="1"/>
        <pt x="-10" y="630" on="1"/>
      </contour>
    </TTGlyph>
    <TTGlyph name="I_10" xMin="-10" yMin="0" xMax="933" yMax="844">
      <contour>
        <pt x="75" y="630" on="1"/>
        <pt x="69" y="640" on="0"/>
        <pt x="60" y="671" on="0"/>
        <pt x="60" y="689" on="1"/>
        <pt x="60" y="756" on="0"/>
        <pt x="204" y="844" on="0"/>
        <pt x="344" y="844" on="1"/>
        <pt x="455" y="844" on="0"/>
        <pt x="641" y="797" on="0"/>
        <pt x="786" y="729" on="0"/>
        <pt x="891" y="654" on="0"/>
        <pt x="921" y="626" on="1"/>
        <pt x="933" y="614" on="1"/>
        <pt x="895" y="584" on="1"/>
        <pt x="880" y="596" on="1"/>
        <pt x="840" y="630" on="0"/>
        <pt x="730" y="699" on="0"/>
        <pt x="595" y="755" on="0"/>
        <pt x="437" y="790" on="0"/>
        <pt x="347" y="790" on="1"/>
        <pt x="288" y="790" on="0"/>
        <pt x="204" y="772" on="0"/>
        <pt x="151" y="741" on="0"/>
        <pt x="126" y="700" on="0"/>
        <pt x="126" y="678" on="1"/>
        <pt x="126" y="666" on="0"/>
        <pt x="130" y="641" on="0"/>
        <pt x="135" y="630" on="1"/>
        <pt x="243" y="630" on="1"/>
        <pt x="243" y="579" on="1"/>
        <pt x="148" y="579" on="1"/>
        <pt x="148" y="0" on="1"/>
        <pt x="85" y="0" on="1"/>
        <pt x="85" y="579" on="1"/>
        <pt x="-10" y="579" on="1"/>
        <pt x="-10" y="630" on="1"/>
      </contour>
    </TTGlyph>
    <TTGlyph name="I_11" xMin="-10" yMin="0" xMax="997" yMax="844">
      <contour>
        <pt x="75" y="630" on="1"/>
        <pt x="69" y="640" on="0"/>
        <pt x="60" y="667" on="0"/>
        <pt x="60" y="683" on="1"/>
        <pt x="60" y="719" on="0"/>
        <pt x="103" y="779" on="0"/>
        <pt x="184" y="821" on="0"/>
        <pt x="300" y="844" on="0"/>
        <pt x="372" y="844" on="1"/>
        <pt x="489" y="844" on="0"/>
        <pt x="682" y="803" on="0"/>
        <pt x="836" y="739" on="0"/>
        <pt x="951" y="662" on="0"/>
        <pt x="989" y="627" on="1"/>
        <pt x="997" y="619" on="1"/>
        <pt x="961" y="583" on="1"/>
        <pt x="945" y="596" on="1"/>
        <pt x="899" y="634" on="0"/>
        <pt x="781" y="704" on="0"/>
        <pt x="639" y="758" on="0"/>
        <pt x="471" y="790" on="0"/>
        <pt x="375" y="790" on="1"/>
        <pt x="310" y="790" on="0"/>
        <pt x="217" y="771" on="0"/>
        <pt x="155" y="740" on="0"/>
        <pt x="126" y="697" on="0"/>
        <pt x="126" y="673" on="1"/>
        <pt x="126" y="649" on="0"/>
        <pt x="135" y="630" on="1"/>
        <pt x="243" y="630" on="1"/>
        <pt x="243" y="579" on="1"/>
        <pt x="148" y="579" on="1"/>
        <pt x="148" y="0" on="1"/>
        <pt x="85" y="0" on="1"/>
        <pt x="85" y="579" on="1"/>
        <pt x="-10" y="579" on="1"/>
        <pt x="-10" y="630" on="1"/>
      </contour>
    </TTGlyph>
    <TTGlyph name="I_12" xMin="-10" yMin="0" xMax="1031" yMax="844">
      <contour>
        <pt x="75" y="630" on="1"/>
        <pt x="69" y="640" on="0"/>
        <pt x="61" y="668" on="0"/>
        <pt x="61" y="686" on="1"/>
        <pt x="61" y="723" on="0"/>
        <pt x="104" y="781" on="0"/>
        <pt x="184" y="822" on="0"/>
        <pt x="300" y="844" on="0"/>
        <pt x="372" y="844" on="1"/>
        <pt x="491" y="844" on="0"/>
        <pt x="695" y="802" on="0"/>
        <pt x="860" y="738" on="0"/>
        <pt x="983" y="661" on="0"/>
        <pt x="1022" y="627" on="1"/>
        <pt x="1031" y="620" on="1"/>
        <pt x="996" y="584" on="1"/>
        <pt x="980" y="597" on="1"/>
        <pt x="932" y="635" on="0"/>
        <pt x="804" y="705" on="0"/>
        <pt x="649" y="758" on="0"/>
        <pt x="472" y="790" on="0"/>
        <pt x="375" y="790" on="1"/>
        <pt x="250" y="790" on="0"/>
        <pt x="127" y="724" on="0"/>
        <pt x="127" y="670" on="1"/>
        <pt x="127" y="660" on="0"/>
        <pt x="130" y="639" on="0"/>
        <pt x="135" y="630" on="1"/>
        <pt x="243" y="630" on="1"/>
        <pt x="243" y="579" on="1"/>
        <pt x="148" y="579" on="1"/>
        <pt x="148" y="0" on="1"/>
        <pt x="85" y="0" on="1"/>
        <pt x="85" y="579" on="1"/>
        <pt x="-10" y="579" on="1"/>
        <pt x="-10" y="630" on="1"/>
      </contour>
    </TTGlyph>
    <TTGlyph name="I_13" xMin="-10" yMin="0" xMax="1072" yMax="844">
      <contour>
        <pt x="75" y="630" on="1"/>
        <pt x="61" y="650" on="0"/>
        <pt x="61" y="684" on="1"/>
        <pt x="61" y="721" on="0"/>
        <pt x="105" y="780" on="0"/>
        <pt x="186" y="822" on="0"/>
        <pt x="303" y="844" on="0"/>
        <pt x="377" y="844" on="1"/>
        <pt x="501" y="844" on="0"/>
        <pt x="717" y="804" on="0"/>
        <pt x="893" y="741" on="0"/>
        <pt x="1024" y="664" on="0"/>
        <pt x="1064" y="627" on="1"/>
        <pt x="1072" y="619" on="1"/>
        <pt x="1036" y="584" on="1"/>
        <pt x="1020" y="597" on="1"/>
        <pt x="972" y="636" on="0"/>
        <pt x="841" y="707" on="0"/>
        <pt x="679" y="759" on="0"/>
        <pt x="488" y="790" on="0"/>
        <pt x="380" y="790" on="1"/>
        <pt x="253" y="790" on="0"/>
        <pt x="127" y="722" on="0"/>
        <pt x="127" y="670" on="1"/>
        <pt x="127" y="646" on="0"/>
        <pt x="135" y="630" on="1"/>
        <pt x="243" y="630" on="1"/>
        <pt x="243" y="579" on="1"/>
        <pt x="148" y="579" on="1"/>
        <pt x="148" y="0" on="1"/>
        <pt x="85" y="0" on="1"/>
        <pt x="85" y="579" on="1"/>
        <pt x="-10" y="579" on="1"/>
        <pt x="-10" y="630" on="1"/>
      </contour>
    </TTGlyph>
    <TTGlyph name="I_14" xMin="-10" yMin="0" xMax="1133" yMax="844">
      <contour>
        <pt x="75" y="630" on="1"/>
        <pt x="69" y="640" on="0"/>
        <pt x="61" y="667" on="0"/>
        <pt x="61" y="682" on="1"/>
        <pt x="61" y="719" on="0"/>
        <pt x="107" y="779" on="0"/>
        <pt x="193" y="821" on="0"/>
        <pt x="316" y="844" on="0"/>
        <pt x="392" y="844" on="1"/>
        <pt x="525" y="844" on="0"/>
        <pt x="755" y="804" on="0"/>
        <pt x="942" y="742" on="0"/>
        <pt x="1081" y="664" on="0"/>
        <pt x="1125" y="627" on="1"/>
        <pt x="1133" y="620" on="1"/>
        <pt x="1099" y="584" on="1"/>
        <pt x="1083" y="597" on="1"/>
        <pt x="1033" y="636" on="0"/>
        <pt x="892" y="706" on="0"/>
        <pt x="716" y="759" on="0"/>
        <pt x="510" y="790" on="0"/>
        <pt x="395" y="790" on="1"/>
        <pt x="263" y="790" on="0"/>
        <pt x="127" y="721" on="0"/>
        <pt x="127" y="669" on="1"/>
        <pt x="127" y="646" on="0"/>
        <pt x="135" y="630" on="1"/>
        <pt x="243" y="630" on="1"/>
        <pt x="243" y="579" on="1"/>
        <pt x="148" y="579" on="1"/>
        <pt x="148" y="0" on="1"/>
        <pt x="85" y="0" on="1"/>
        <pt x="85" y="579" on="1"/>
        <pt x="-10" y="579" on="1"/>
        <pt x="-10" y="630" on="1"/>
      </contour>
    </TTGlyph>
    <TTGlyph name="I_15" xMin="-10" yMin="0" xMax="1172" yMax="844">
      <contour>
        <pt x="75" y="630" on="1"/>
        <pt x="69" y="640" on="0"/>
        <pt x="62" y="663" on="0"/>
        <pt x="62" y="679" on="1"/>
        <pt x="62" y="714" on="0"/>
        <pt x="109" y="775" on="0"/>
        <pt x="200" y="819" on="0"/>
        <pt x="334" y="844" on="0"/>
        <pt x="422" y="844" on="1"/>
        <pt x="558" y="844" on="0"/>
        <pt x="788" y="808" on="0"/>
        <pt x="974" y="748" on="0"/>
        <pt x="1115" y="669" on="0"/>
        <pt x="1163" y="627" on="1"/>
        <pt x="1172" y="619" on="1"/>
        <pt x="1135" y="584" on="1"/>
        <pt x="1119" y="597" on="1"/>
        <pt x="1072" y="635" on="0"/>
        <pt x="933" y="705" on="0"/>
        <pt x="755" y="758" on="0"/>
        <pt x="543" y="790" on="0"/>
        <pt x="425" y="790" on="1"/>
        <pt x="348" y="790" on="0"/>
        <pt x="236" y="770" on="0"/>
        <pt x="163" y="737" on="0"/>
        <pt x="128" y="691" on="0"/>
        <pt x="128" y="666" on="1"/>
        <pt x="128" y="653" on="0"/>
        <pt x="132" y="638" on="0"/>
        <pt x="135" y="630" on="1"/>
        <pt x="243" y="630" on="1"/>
        <pt x="243" y="579" on="1"/>
        <pt x="148" y="579" on="1"/>
        <pt x="148" y="0" on="1"/>
        <pt x="85" y="0" on="1"/>
        <pt x="85" y="579" on="1"/>
        <pt x="-10" y="579" on="1"/>
        <pt x="-10" y="630" on="1"/>
      </contour>
    </TTGlyph>
    <TTGlyph name="I_16" xMin="-10" yMin="0" xMax="1235" yMax="844">
      <contour>
        <pt x="75" y="630" on="1"/>
        <pt x="69" y="640" on="0"/>
        <pt x="62" y="663" on="0"/>
        <pt x="62" y="679" on="1"/>
        <pt x="62" y="714" on="0"/>
        <pt x="108" y="775" on="0"/>
        <pt x="201" y="819" on="0"/>
        <pt x="342" y="844" on="0"/>
        <pt x="437" y="844" on="1"/>
        <pt x="580" y="844" on="0"/>
        <pt x="828" y="807" on="0"/>
        <pt x="1030" y="745" on="0"/>
        <pt x="1181" y="667" on="0"/>
        <pt x="1227" y="627" on="1"/>
        <pt x="1235" y="619" on="1"/>
        <pt x="1200" y="583" on="1"/>
        <pt x="1183" y="596" on="1"/>
        <pt x="1134" y="635" on="0"/>
        <pt x="983" y="705" on="0"/>
        <pt x="790" y="759" on="0"/>
        <pt x="564" y="790" on="0"/>
        <pt x="440" y="790" on="1"/>
        <pt x="355" y="790" on="0"/>
        <pt x="237" y="770" on="0"/>
        <pt x="162" y="737" on="0"/>
        <pt x="128" y="691" on="0"/>
        <pt x="128" y="666" on="1"/>
        <pt x="128" y="653" on="0"/>
        <pt x="132" y="638" on="0"/>
        <pt x="135" y="630" on="1"/>
        <pt x="243" y="630" on="1"/>
        <pt x="243" y="579" on="1"/>
        <pt x="148" y="579" on="1"/>
        <pt x="148" y="0" on="1"/>
        <pt x="85" y="0" on="1"/>
        <pt x="85" y="579" on="1"/>
        <pt x="-10" y="579" on="1"/>
        <pt x="-10" y="630" on="1"/>
      </contour>
    </TTGlyph>
    <TTGlyph name="I_17" xMin="-10" yMin="0" xMax="1297" yMax="844">
      <contour>
        <pt x="75" y="630" on="1"/>
        <pt x="69" y="640" on="0"/>
        <pt x="62" y="663" on="0"/>
        <pt x="62" y="679" on="1"/>
        <pt x="62" y="714" on="0"/>
        <pt x="112" y="775" on="0"/>
        <pt x="211" y="819" on="0"/>
        <pt x="359" y="844" on="0"/>
        <pt x="457" y="844" on="1"/>
        <pt x="613" y="844" on="0"/>
        <pt x="877" y="806" on="0"/>
        <pt x="1087" y="745" on="0"/>
        <pt x="1241" y="667" on="0"/>
        <pt x="1288" y="627" on="1"/>
        <pt x="1297" y="619" on="1"/>
        <pt x="1261" y="584" on="1"/>
        <pt x="1245" y="597" on="1"/>
        <pt x="1193" y="636" on="0"/>
        <pt x="1038" y="706" on="0"/>
        <pt x="838" y="759" on="0"/>
        <pt x="597" y="790" on="0"/>
        <pt x="460" y="790" on="1"/>
        <pt x="373" y="790" on="0"/>
        <pt x="247" y="770" on="0"/>
        <pt x="166" y="737" on="0"/>
        <pt x="128" y="691" on="0"/>
        <pt x="128" y="666" on="1"/>
        <pt x="128" y="653" on="0"/>
        <pt x="132" y="638" on="0"/>
        <pt x="135" y="630" on="1"/>
        <pt x="243" y="630" on="1"/>
        <pt x="243" y="579" on="1"/>
        <pt x="148" y="579" on="1"/>
        <pt x="148" y="0" on="1"/>
        <pt x="85" y="0" on="1"/>
        <pt x="85" y="579" on="1"/>
        <pt x="-10" y="579" on="1"/>
        <pt x="-10" y="630" on="1"/>
      </contour>
    </TTGlyph>
    <TTGlyph name="I_18" xMin="-10" yMin="0" xMax="1342" yMax="844">
      <contour>
        <pt x="75" y="630" on="1"/>
        <pt x="69" y="640" on="0"/>
        <pt x="62" y="663" on="0"/>
        <pt x="62" y="679" on="1"/>
        <pt x="62" y="714" on="0"/>
        <pt x="112" y="775" on="0"/>
        <pt x="216" y="819" on="0"/>
        <pt x="374" y="844" on="0"/>
        <pt x="482" y="844" on="1"/>
        <pt x="648" y="844" on="0"/>
        <pt x="918" y="806" on="0"/>
        <pt x="1129" y="744" on="0"/>
        <pt x="1283" y="666" on="0"/>
        <pt x="1333" y="626" on="1"/>
        <pt x="1342" y="619" on="1"/>
        <pt x="1310" y="583" on="1"/>
        <pt x="1292" y="595" on="1"/>
        <pt x="1234" y="634" on="0"/>
        <pt x="1082" y="704" on="0"/>
        <pt x="884" y="758" on="0"/>
        <pt x="637" y="790" on="0"/>
        <pt x="485" y="790" on="1"/>
        <pt x="387" y="790" on="0"/>
        <pt x="252" y="770" on="0"/>
        <pt x="166" y="737" on="0"/>
        <pt x="128" y="691" on="0"/>
        <pt x="128" y="666" on="1"/>
        <pt x="128" y="653" on="0"/>
        <pt x="132" y="638" on="0"/>
        <pt x="135" y="630" on="1"/>
        <pt x="243" y="630" on="1"/>
        <pt x="243" y="579" on="1"/>
        <pt x="148" y="579" on="1"/>
        <pt x="148" y="0" on="1"/>
        <pt x="85" y="0" on="1"/>
        <pt x="85" y="579" on="1"/>
        <pt x="-10" y="579" on="1"/>
        <pt x="-10" y="630" on="1"/>
      </contour>
    </TTGlyph>
    <TTGlyph name="I_19" xMin="-10" yMin="0" xMax="1381" yMax="844">
      <contour>
        <pt x="75" y="630" on="1"/>
        <pt x="69" y="640" on="0"/>
        <pt x="62" y="663" on="0"/>
        <pt x="62" y="679" on="1"/>
        <pt x="62" y="714" on="0"/>
        <pt x="113" y="775" on="0"/>
        <pt x="219" y="819" on="0"/>
        <pt x="381" y="844" on="0"/>
        <pt x="492" y="844" on="1"/>
        <pt x="663" y="844" on="0"/>
        <pt x="941" y="807" on="0"/>
        <pt x="1159" y="746" on="0"/>
        <pt x="1319" y="668" on="0"/>
        <pt x="1372" y="627" on="1"/>
        <pt x="1381" y="620" on="1"/>
        <pt x="1353" y="582" on="1"/>
        <pt x="1334" y="594" on="1"/>
        <pt x="1273" y="634" on="0"/>
        <pt x="1113" y="705" on="0"/>
        <pt x="908" y="759" on="0"/>
        <pt x="652" y="790" on="0"/>
        <pt x="495" y="790" on="1"/>
        <pt x="395" y="790" on="0"/>
        <pt x="255" y="770" on="0"/>
        <pt x="168" y="737" on="0"/>
        <pt x="128" y="691" on="0"/>
        <pt x="128" y="666" on="1"/>
        <pt x="128" y="653" on="0"/>
        <pt x="132" y="638" on="0"/>
        <pt x="135" y="630" on="1"/>
        <pt x="243" y="630" on="1"/>
        <pt x="243" y="579" on="1"/>
        <pt x="148" y="579" on="1"/>
        <pt x="148" y="0" on="1"/>
        <pt x="85" y="0" on="1"/>
        <pt x="85" y="579" on="1"/>
        <pt x="-10" y="579" on="1"/>
        <pt x="-10" y="630" on="1"/>
      </contour>
    </TTGlyph>
    <TTGlyph name="I_20" xMin="-10" yMin="0" xMax="1480" yMax="844">
      <contour>
        <pt x="75" y="630" on="1"/>
        <pt x="69" y="640" on="0"/>
        <pt x="62" y="663" on="0"/>
        <pt x="62" y="679" on="1"/>
        <pt x="62" y="714" on="0"/>
        <pt x="115" y="775" on="0"/>
        <pt x="223" y="819" on="0"/>
        <pt x="389" y="844" on="0"/>
        <pt x="502" y="844" on="1"/>
        <pt x="680" y="844" on="0"/>
        <pt x="988" y="807" on="0"/>
        <pt x="1236" y="746" on="0"/>
        <pt x="1418" y="667" on="0"/>
        <pt x="1471" y="626" on="1"/>
        <pt x="1480" y="619" on="1"/>
        <pt x="1451" y="583" on="1"/>
        <pt x="1435" y="594" on="1"/>
        <pt x="1378" y="632" on="0"/>
        <pt x="1199" y="703" on="0"/>
        <pt x="963" y="757" on="0"/>
        <pt x="673" y="790" on="0"/>
        <pt x="505" y="790" on="1"/>
        <pt x="402" y="790" on="0"/>
        <pt x="259" y="770" on="0"/>
        <pt x="169" y="737" on="0"/>
        <pt x="128" y="691" on="0"/>
        <pt x="128" y="666" on="1"/>
        <pt x="128" y="653" on="0"/>
        <pt x="132" y="638" on="0"/>
        <pt x="135" y="630" on="1"/>
        <pt x="243" y="630" on="1"/>
        <pt x="243" y="579" on="1"/>
        <pt x="148" y="579" on="1"/>
        <pt x="148" y="0" on="1"/>
        <pt x="85" y="0" on="1"/>
        <pt x="85" y="579" on="1"/>
        <pt x="-10" y="579" on="1"/>
        <pt x="-10" y="630" on="1"/>
      </contour>
    </TTGlyph>
    <TTGlyph name="I_21" xMin="-10" yMin="0" xMax="1559" yMax="844">
      <contour>
        <pt x="75" y="630" on="1"/>
        <pt x="69" y="640" on="0"/>
        <pt x="62" y="663" on="0"/>
        <pt x="62" y="679" on="1"/>
        <pt x="62" y="714" on="0"/>
        <pt x="115" y="775" on="0"/>
        <pt x="225" y="819" on="0"/>
        <pt x="393" y="844" on="0"/>
        <pt x="507" y="844" on="1"/>
        <pt x="693" y="844" on="0"/>
        <pt x="1025" y="806" on="0"/>
        <pt x="1297" y="745" on="0"/>
        <pt x="1496" y="666" on="0"/>
        <pt x="1550" y="626" on="1"/>
        <pt x="1559" y="620" on="1"/>
        <pt x="1529" y="582" on="1"/>
        <pt x="1511" y="594" on="1"/>
        <pt x="1452" y="633" on="0"/>
        <pt x="1254" y="704" on="0"/>
        <pt x="994" y="758" on="0"/>
        <pt x="682" y="790" on="0"/>
        <pt x="510" y="790" on="1"/>
        <pt x="406" y="790" on="0"/>
        <pt x="261" y="770" on="0"/>
        <pt x="169" y="737" on="0"/>
        <pt x="128" y="691" on="0"/>
        <pt x="128" y="666" on="1"/>
        <pt x="128" y="653" on="0"/>
        <pt x="132" y="638" on="0"/>
        <pt x="135" y="630" on="1"/>
        <pt x="243" y="630" on="1"/>
        <pt x="243" y="579" on="1"/>
        <pt x="148" y="579" on="1"/>
        <pt x="148" y="0" on="1"/>
        <pt x="85" y="0" on="1"/>
        <pt x="85" y="579" on="1"/>
        <pt x="-10" y="579" on="1"/>
        <pt x="-10" y="630" on="1"/>
      </contour>
    </TTGlyph>
    <TTGlyph name="I_22" xMin="-10" yMin="0" xMax="1647" yMax="844">
      <contour>
        <pt x="75" y="630" on="1"/>
        <pt x="70" y="639" on="0"/>
        <pt x="63" y="660" on="0"/>
        <pt x="63" y="676" on="1"/>
        <pt x="63" y="711" on="0"/>
        <pt x="116" y="773" on="0"/>
        <pt x="231" y="818" on="0"/>
        <pt x="415" y="844" on="0"/>
        <pt x="547" y="844" on="1"/>
        <pt x="769" y="844" on="0"/>
        <pt x="1124" y="806" on="0"/>
        <pt x="1396" y="744" on="0"/>
        <pt x="1585" y="666" on="0"/>
        <pt x="1639" y="626" on="1"/>
        <pt x="1647" y="620" on="1"/>
        <pt x="1618" y="582" on="1"/>
        <pt x="1602" y="592" on="1"/>
        <pt x="1541" y="631" on="0"/>
        <pt x="1351" y="703" on="0"/>
        <pt x="1090" y="757" on="0"/>
        <pt x="755" y="790" on="0"/>
        <pt x="550" y="790" on="1"/>
        <pt x="431" y="790" on="0"/>
        <pt x="269" y="769" on="0"/>
        <pt x="171" y="735" on="0"/>
        <pt x="129" y="688" on="0"/>
        <pt x="129" y="663" on="1"/>
        <pt x="129" y="650" on="0"/>
        <pt x="133" y="636" on="0"/>
        <pt x="135" y="630" on="1"/>
        <pt x="243" y="630" on="1"/>
        <pt x="243" y="579" on="1"/>
        <pt x="148" y="579" on="1"/>
        <pt x="148" y="0" on="1"/>
        <pt x="85" y="0" on="1"/>
        <pt x="85" y="579" on="1"/>
        <pt x="-10" y="579" on="1"/>
        <pt x="-10" y="630" on="1"/>
      </contour>
    </TTGlyph>
    <TTGlyph name="I_23" xMin="-10" yMin="0" xMax="1991" yMax="844">
      <contour>
        <pt x="75" y="630" on="1"/>
        <pt x="70" y="639" on="0"/>
        <pt x="63" y="660" on="0"/>
        <pt x="63" y="676" on="1"/>
        <pt x="63" y="711" on="0"/>
        <pt x="112" y="773" on="0"/>
        <pt x="236" y="818" on="0"/>
        <pt x="448" y="844" on="0"/>
        <pt x="612" y="844" on="1"/>
        <pt x="884" y="844" on="0"/>
        <pt x="1339" y="809" on="0"/>
        <pt x="1689" y="749" on="0"/>
        <pt x="1927" y="671" on="0"/>
        <pt x="1981" y="628" on="1"/>
        <pt x="1991" y="620" on="1"/>
        <pt x="1963" y="583" on="1"/>
        <pt x="1945" y="595" on="1"/>
        <pt x="1882" y="637" on="0"/>
        <pt x="1635" y="708" on="0"/>
        <pt x="1290" y="761" on="0"/>
        <pt x="860" y="790" on="0"/>
        <pt x="615" y="790" on="1"/>
        <pt x="465" y="790" on="0"/>
        <pt x="275" y="769" on="0"/>
        <pt x="168" y="735" on="0"/>
        <pt x="129" y="688" on="0"/>
        <pt x="129" y="663" on="1"/>
        <pt x="129" y="650" on="0"/>
        <pt x="133" y="636" on="0"/>
        <pt x="135" y="630" on="1"/>
        <pt x="243" y="630" on="1"/>
        <pt x="243" y="579" on="1"/>
        <pt x="148" y="579" on="1"/>
        <pt x="148" y="0" on="1"/>
        <pt x="85" y="0" on="1"/>
        <pt x="85" y="579" on="1"/>
        <pt x="-10" y="579" on="1"/>
        <pt x="-10" y="630" on="1"/>
      </contour>
    </TTGlyph>
    <TTGlyph name="Iacute" xMin="80" yMin="0" xMax="252" yMax="834">
      <contour>
        <pt x="152" y="630" on="1"/>
        <pt x="152" y="0" on="1"/>
        <pt x="80" y="0" on="1"/>
        <pt x="80" y="630" on="1"/>
      </contour>
      <contour>
        <pt x="141" y="710" on="1"/>
        <pt x="84" y="710" on="1"/>
        <pt x="169" y="834" on="1"/>
        <pt x="252" y="834" on="1"/>
      </contour>
    </TTGlyph>
    <TTGlyph name="Ibreve" xMin="-19" yMin="0" xMax="250" yMax="834">
      <contour>
        <pt x="152" y="630" on="1"/>
        <pt x="152" y="0" on="1"/>
        <pt x="80" y="0" on="1"/>
        <pt x="80" y="630" on="1"/>
      </contour>
      <contour>
        <pt x="37" y="834" on="1"/>
        <pt x="39" y="799" on="0"/>
        <pt x="73" y="757" on="0"/>
        <pt x="117" y="757" on="1"/>
        <pt x="154" y="757" on="0"/>
        <pt x="193" y="797" on="0"/>
        <pt x="195" y="834" on="1"/>
        <pt x="250" y="834" on="1"/>
        <pt x="250" y="780" on="0"/>
        <pt x="182" y="710" on="0"/>
        <pt x="117" y="710" on="1"/>
        <pt x="81" y="710" on="0"/>
        <pt x="30" y="731" on="0"/>
        <pt x="-3" y="765" on="0"/>
        <pt x="-19" y="810" on="0"/>
        <pt x="-19" y="834" on="1"/>
      </contour>
    </TTGlyph>
    <TTGlyph name="Icircumflex" xMin="-35" yMin="0" xMax="271" yMax="844">
      <contour>
        <pt x="152" y="630" on="1"/>
        <pt x="152" y="0" on="1"/>
        <pt x="80" y="0" on="1"/>
        <pt x="80" y="630" on="1"/>
      </contour>
      <contour>
        <pt x="87" y="844" on="1"/>
        <pt x="146" y="844" on="1"/>
        <pt x="271" y="710" on="1"/>
        <pt x="201" y="710" on="1"/>
        <pt x="116" y="801" on="1"/>
        <pt x="31" y="710" on="1"/>
        <pt x="-35" y="710" on="1"/>
      </contour>
    </TTGlyph>
    <TTGlyph name="Idieresis" xMin="-14" yMin="0" xMax="244" yMax="810">
      <contour>
        <pt x="152" y="630" on="1"/>
        <pt x="152" y="0" on="1"/>
        <pt x="80" y="0" on="1"/>
        <pt x="80" y="630" on="1"/>
      </contour>
      <contour>
        <pt x="-14" y="763" on="1"/>
        <pt x="-14" y="783" on="0"/>
        <pt x="12" y="810" on="0"/>
        <pt x="31" y="810" on="1"/>
        <pt x="49" y="810" on="0"/>
        <pt x="76" y="783" on="0"/>
        <pt x="76" y="763" on="1"/>
        <pt x="76" y="743" on="0"/>
        <pt x="49" y="716" on="0"/>
        <pt x="31" y="716" on="1"/>
        <pt x="12" y="716" on="0"/>
        <pt x="-14" y="743" on="0"/>
      </contour>
      <contour>
        <pt x="154" y="763" on="1"/>
        <pt x="154" y="783" on="0"/>
        <pt x="180" y="810" on="0"/>
        <pt x="199" y="810" on="1"/>
        <pt x="217" y="810" on="0"/>
        <pt x="244" y="783" on="0"/>
        <pt x="244" y="763" on="1"/>
        <pt x="244" y="743" on="0"/>
        <pt x="217" y="716" on="0"/>
        <pt x="199" y="716" on="1"/>
        <pt x="180" y="716" on="0"/>
        <pt x="154" y="743" on="0"/>
      </contour>
    </TTGlyph>
    <TTGlyph name="Idotaccent" xMin="67" yMin="0" xMax="163" yMax="822">
      <contour>
        <pt x="152" y="630" on="1"/>
        <pt x="152" y="0" on="1"/>
        <pt x="80" y="0" on="1"/>
        <pt x="80" y="630" on="1"/>
      </contour>
      <contour>
        <pt x="67" y="772" on="1"/>
        <pt x="67" y="792" on="0"/>
        <pt x="95" y="822" on="0"/>
        <pt x="115" y="822" on="1"/>
        <pt x="135" y="822" on="0"/>
        <pt x="163" y="792" on="0"/>
        <pt x="163" y="772" on="1"/>
        <pt x="163" y="750" on="0"/>
        <pt x="135" y="722" on="0"/>
        <pt x="115" y="722" on="1"/>
        <pt x="95" y="722" on="0"/>
        <pt x="67" y="750" on="0"/>
      </contour>
    </TTGlyph>
    <TTGlyph name="Igrave" xMin="-21" yMin="0" xMax="152" yMax="834">
      <contour>
        <pt x="152" y="630" on="1"/>
        <pt x="152" y="0" on="1"/>
        <pt x="80" y="0" on="1"/>
        <pt x="80" y="630" on="1"/>
      </contour>
      <contour>
        <pt x="-21" y="834" on="1"/>
        <pt x="62" y="834" on="1"/>
        <pt x="147" y="710" on="1"/>
        <pt x="90" y="710" on="1"/>
      </contour>
    </TTGlyph>
    <TTGlyph name="Imacron" xMin="-5" yMin="0" xMax="240" yMax="772">
      <contour>
        <pt x="152" y="630" on="1"/>
        <pt x="152" y="0" on="1"/>
        <pt x="80" y="0" on="1"/>
        <pt x="80" y="630" on="1"/>
      </contour>
      <contour>
        <pt x="240" y="772" on="1"/>
        <pt x="240" y="720" on="1"/>
        <pt x="-5" y="720" on="1"/>
        <pt x="-5" y="772" on="1"/>
      </contour>
    </TTGlyph>
    <TTGlyph name="Iogonek" xMin="2" yMin="-206" xMax="189" yMax="630">
      <contour>
        <pt x="152" y="0" on="1"/>
        <pt x="109" y="-23" on="0"/>
        <pt x="61" y="-68" on="0"/>
        <pt x="61" y="-100" on="1"/>
        <pt x="61" y="-126" on="0"/>
        <pt x="97" y="-156" on="0"/>
        <pt x="126" y="-156" on="1"/>
        <pt x="142" y="-156" on="0"/>
        <pt x="168" y="-151" on="0"/>
        <pt x="178" y="-147" on="1"/>
        <pt x="189" y="-185" on="1"/>
        <pt x="173" y="-195" on="0"/>
        <pt x="134" y="-206" on="0"/>
        <pt x="111" y="-206" on="1"/>
        <pt x="65" y="-206" on="0"/>
        <pt x="2" y="-155" on="0"/>
        <pt x="2" y="-108" on="1"/>
        <pt x="2" y="-70" on="0"/>
        <pt x="49" y="-15" on="0"/>
        <pt x="80" y="0" on="1"/>
        <pt x="80" y="630" on="1"/>
        <pt x="152" y="630" on="1"/>
      </contour>
    </TTGlyph>
    <TTGlyph name="Ismall" xMin="74" yMin="0" xMax="142" yMax="470">
      <contour>
        <pt x="142" y="470" on="1"/>
        <pt x="142" y="0" on="1"/>
        <pt x="74" y="0" on="1"/>
        <pt x="74" y="470" on="1"/>
      </contour>
    </TTGlyph>
    <TTGlyph name="Itilde" xMin="-40" yMin="0" xMax="263" yMax="821">
      <contour>
        <pt x="152" y="630" on="1"/>
        <pt x="152" y="0" on="1"/>
        <pt x="80" y="0" on="1"/>
        <pt x="80" y="630" on="1"/>
      </contour>
      <contour>
        <pt x="-40" y="713" on="1"/>
        <pt x="-40" y="757" on="0"/>
        <pt x="1" y="818" on="0"/>
        <pt x="47" y="818" on="1"/>
        <pt x="69" y="818" on="0"/>
        <pt x="101" y="803" on="0"/>
        <pt x="130" y="784" on="0"/>
        <pt x="157" y="769" on="0"/>
        <pt x="174" y="769" on="1"/>
        <pt x="197" y="769" on="0"/>
        <pt x="216" y="800" on="0"/>
        <pt x="218" y="821" on="1"/>
        <pt x="263" y="821" on="1"/>
        <pt x="263" y="801" on="0"/>
        <pt x="253" y="764" on="0"/>
        <pt x="232" y="735" on="0"/>
        <pt x="201" y="717" on="0"/>
        <pt x="180" y="717" on="1"/>
        <pt x="157" y="717" on="0"/>
        <pt x="121" y="732" on="0"/>
        <pt x="90" y="751" on="0"/>
        <pt x="63" y="766" on="0"/>
        <pt x="50" y="766" on="1"/>
        <pt x="27" y="766" on="0"/>
        <pt x="7" y="735" on="0"/>
        <pt x="5" y="713" on="1"/>
      </contour>
    </TTGlyph>
    <TTGlyph name="J" xMin="-15" yMin="-145" xMax="187" yMax="630">
      <contour>
        <pt x="187" y="630" on="1"/>
        <pt x="187" y="109" on="1"/>
        <pt x="187" y="43" on="0"/>
        <pt x="173" y="-39" on="0"/>
        <pt x="151" y="-70" on="1"/>
        <pt x="137" y="-91" on="0"/>
        <pt x="98" y="-119" on="0"/>
        <pt x="54" y="-137" on="0"/>
        <pt x="7" y="-145" on="0"/>
        <pt x="-15" y="-145" on="1"/>
        <pt x="-15" y="-89" on="1"/>
        <pt x="44" y="-88" on="0"/>
        <pt x="78" y="-55" on="1"/>
        <pt x="101" y="-34" on="0"/>
        <pt x="115" y="30" on="0"/>
        <pt x="115" y="68" on="1"/>
        <pt x="115" y="630" on="1"/>
      </contour>
    </TTGlyph>
    <TTGlyph name="Jcircumflex" xMin="-15" yMin="-145" xMax="308" yMax="844">
      <contour>
        <pt x="187" y="630" on="1"/>
        <pt x="187" y="109" on="1"/>
        <pt x="187" y="43" on="0"/>
        <pt x="173" y="-39" on="0"/>
        <pt x="151" y="-70" on="1"/>
        <pt x="137" y="-91" on="0"/>
        <pt x="98" y="-119" on="0"/>
        <pt x="54" y="-137" on="0"/>
        <pt x="7" y="-145" on="0"/>
        <pt x="-15" y="-145" on="1"/>
        <pt x="-15" y="-89" on="1"/>
        <pt x="44" y="-88" on="0"/>
        <pt x="78" y="-55" on="1"/>
        <pt x="101" y="-34" on="0"/>
        <pt x="115" y="30" on="0"/>
        <pt x="115" y="68" on="1"/>
        <pt x="115" y="630" on="1"/>
      </contour>
      <contour>
        <pt x="124" y="844" on="1"/>
        <pt x="183" y="844" on="1"/>
        <pt x="308" y="710" on="1"/>
        <pt x="238" y="710" on="1"/>
        <pt x="153" y="801" on="1"/>
        <pt x="68" y="710" on="1"/>
        <pt x="2" y="710" on="1"/>
      </contour>
    </TTGlyph>
    <TTGlyph name="Jsmall" xMin="0" yMin="-152" xMax="160" yMax="470">
      <contour>
        <pt x="160" y="470" on="1"/>
        <pt x="160" y="65" on="1"/>
        <pt x="160" y="13" on="0"/>
        <pt x="149" y="-59" on="0"/>
        <pt x="129" y="-90" on="1"/>
        <pt x="106" y="-126" on="0"/>
        <pt x="35" y="-152" on="0"/>
        <pt x="0" y="-152" on="1"/>
        <pt x="0" y="-97" on="1"/>
        <pt x="20" y="-97" on="0"/>
        <pt x="61" y="-81" on="0"/>
        <pt x="73" y="-60" on="1"/>
        <pt x="85" y="-40" on="0"/>
        <pt x="92" y="19" on="0"/>
        <pt x="92" y="41" on="1"/>
        <pt x="92" y="470" on="1"/>
      </contour>
    </TTGlyph>
    <TTGlyph name="K" xMin="80" yMin="0" xMax="546" yMax="630">
      <contour>
        <pt x="80" y="0" on="1"/>
        <pt x="80" y="630" on="1"/>
        <pt x="152" y="630" on="1"/>
        <pt x="152" y="325" on="1"/>
        <pt x="434" y="630" on="1"/>
        <pt x="524" y="630" on="1"/>
        <pt x="265" y="352" on="1"/>
        <pt x="546" y="0" on="1"/>
        <pt x="455" y="0" on="1"/>
        <pt x="215" y="303" on="1"/>
        <pt x="152" y="235" on="1"/>
        <pt x="152" y="0" on="1"/>
      </contour>
    </TTGlyph>
    <TTGlyph name="Kcommaaccent" xMin="80" yMin="-310" xMax="546" yMax="630">
      <contour>
        <pt x="80" y="0" on="1"/>
        <pt x="80" y="630" on="1"/>
        <pt x="152" y="630" on="1"/>
        <pt x="152" y="325" on="1"/>
        <pt x="434" y="630" on="1"/>
        <pt x="524" y="630" on="1"/>
        <pt x="265" y="352" on="1"/>
        <pt x="546" y="0" on="1"/>
        <pt x="455" y="0" on="1"/>
        <pt x="215" y="303" on="1"/>
        <pt x="152" y="235" on="1"/>
        <pt x="152" y="0" on="1"/>
      </contour>
      <contour>
        <pt x="287" y="-184" on="1"/>
        <pt x="271" y="-181" on="0"/>
        <pt x="242" y="-155" on="0"/>
        <pt x="242" y="-131" on="1"/>
        <pt x="242" y="-110" on="0"/>
        <pt x="269" y="-81" on="0"/>
        <pt x="292" y="-81" on="1"/>
        <pt x="302" y="-81" on="0"/>
        <pt x="323" y="-89" on="0"/>
        <pt x="340" y="-107" on="0"/>
        <pt x="351" y="-136" on="0"/>
        <pt x="351" y="-158" on="1"/>
        <pt x="351" y="-181" on="0"/>
        <pt x="335" y="-225" on="0"/>
        <pt x="307" y="-265" on="0"/>
        <pt x="269" y="-299" on="0"/>
        <pt x="248" y="-310" on="1"/>
        <pt x="225" y="-279" on="1"/>
        <pt x="254" y="-263" on="0"/>
        <pt x="295" y="-212" on="0"/>
        <pt x="299" y="-187" on="1"/>
      </contour>
    </TTGlyph>
    <TTGlyph name="Ksmall" xMin="74" yMin="0" xMax="436" yMax="470">
      <contour>
        <pt x="74" y="0" on="1"/>
        <pt x="74" y="470" on="1"/>
        <pt x="142" y="470" on="1"/>
        <pt x="142" y="251" on="1"/>
        <pt x="335" y="470" on="1"/>
        <pt x="419" y="470" on="1"/>
        <pt x="231" y="264" on="1"/>
        <pt x="436" y="0" on="1"/>
        <pt x="350" y="0" on="1"/>
        <pt x="186" y="219" on="1"/>
        <pt x="142" y="170" on="1"/>
        <pt x="142" y="0" on="1"/>
      </contour>
    </TTGlyph>
    <TTGlyph name="L" xMin="80" yMin="0" xMax="431" yMax="630">
      <contour>
        <pt x="80" y="630" on="1"/>
        <pt x="152" y="630" on="1"/>
        <pt x="152" y="60" on="1"/>
        <pt x="431" y="60" on="1"/>
        <pt x="431" y="0" on="1"/>
        <pt x="80" y="0" on="1"/>
      </contour>
    </TTGlyph>
    <TTGlyph name="Lacute" xMin="80" yMin="0" xMax="431" yMax="834">
      <contour>
        <pt x="80" y="630" on="1"/>
        <pt x="152" y="630" on="1"/>
        <pt x="152" y="60" on="1"/>
        <pt x="431" y="60" on="1"/>
        <pt x="431" y="0" on="1"/>
        <pt x="80" y="0" on="1"/>
      </contour>
      <contour>
        <pt x="142" y="710" on="1"/>
        <pt x="85" y="710" on="1"/>
        <pt x="170" y="834" on="1"/>
        <pt x="253" y="834" on="1"/>
      </contour>
    </TTGlyph>
    <TTGlyph name="Lcaron" xMin="80" yMin="0" xMax="431" yMax="727">
      <contour>
        <pt x="80" y="630" on="1"/>
        <pt x="152" y="630" on="1"/>
        <pt x="152" y="60" on="1"/>
        <pt x="431" y="60" on="1"/>
        <pt x="431" y="0" on="1"/>
        <pt x="80" y="0" on="1"/>
      </contour>
      <contour>
        <pt x="315" y="624" on="1"/>
        <pt x="298" y="627" on="0"/>
        <pt x="270" y="653" on="0"/>
        <pt x="270" y="677" on="1"/>
        <pt x="270" y="698" on="0"/>
        <pt x="297" y="727" on="0"/>
        <pt x="320" y="727" on="1"/>
        <pt x="330" y="727" on="0"/>
        <pt x="351" y="719" on="0"/>
        <pt x="368" y="701" on="0"/>
        <pt x="379" y="672" on="0"/>
        <pt x="379" y="650" on="1"/>
        <pt x="379" y="627" on="0"/>
        <pt x="363" y="583" on="0"/>
        <pt x="335" y="543" on="0"/>
        <pt x="297" y="509" on="0"/>
        <pt x="275" y="498" on="1"/>
        <pt x="253" y="529" on="1"/>
        <pt x="282" y="545" on="0"/>
        <pt x="323" y="596" on="0"/>
        <pt x="326" y="621" on="1"/>
      </contour>
    </TTGlyph>
    <TTGlyph name="Lcommaaccent" xMin="80" yMin="-311" xMax="431" yMax="630">
      <contour>
        <pt x="80" y="630" on="1"/>
        <pt x="152" y="630" on="1"/>
        <pt x="152" y="60" on="1"/>
        <pt x="431" y="60" on="1"/>
        <pt x="431" y="0" on="1"/>
        <pt x="80" y="0" on="1"/>
      </contour>
      <contour>
        <pt x="253" y="-185" on="1"/>
        <pt x="237" y="-182" on="0"/>
        <pt x="208" y="-156" on="0"/>
        <pt x="208" y="-132" on="1"/>
        <pt x="208" y="-111" on="0"/>
        <pt x="235" y="-82" on="0"/>
        <pt x="258" y="-82" on="1"/>
        <pt x="268" y="-82" on="0"/>
        <pt x="289" y="-90" on="0"/>
        <pt x="306" y="-108" on="0"/>
        <pt x="317" y="-137" on="0"/>
        <pt x="317" y="-159" on="1"/>
        <pt x="317" y="-182" on="0"/>
        <pt x="301" y="-226" on="0"/>
        <pt x="273" y="-266" on="0"/>
        <pt x="235" y="-300" on="0"/>
        <pt x="214" y="-311" on="1"/>
        <pt x="191" y="-280" on="1"/>
        <pt x="220" y="-264" on="0"/>
        <pt x="261" y="-213" on="0"/>
        <pt x="265" y="-188" on="1"/>
      </contour>
    </TTGlyph>
    <TTGlyph name="Ldot" xMin="80" yMin="0" xMax="431" yMax="630">
      <contour>
        <pt x="80" y="630" on="1"/>
        <pt x="152" y="630" on="1"/>
        <pt x="152" y="60" on="1"/>
        <pt x="431" y="60" on="1"/>
        <pt x="431" y="0" on="1"/>
        <pt x="80" y="0" on="1"/>
      </contour>
      <contour>
        <pt x="259" y="331" on="1"/>
        <pt x="259" y="354" on="0"/>
        <pt x="287" y="384" on="0"/>
        <pt x="309" y="384" on="1"/>
        <pt x="329" y="384" on="0"/>
        <pt x="357" y="354" on="0"/>
        <pt x="357" y="331" on="1"/>
        <pt x="357" y="308" on="0"/>
        <pt x="329" y="278" on="0"/>
        <pt x="309" y="278" on="1"/>
        <pt x="287" y="278" on="0"/>
        <pt x="259" y="308" on="0"/>
      </contour>
    </TTGlyph>
    <TTGlyph name="Lslash" xMin="-29" yMin="0" xMax="431" yMax="630">
      <contour>
        <pt x="307" y="491" on="1"/>
        <pt x="337" y="454" on="1"/>
        <pt x="152" y="299" on="1"/>
        <pt x="152" y="60" on="1"/>
        <pt x="431" y="60" on="1"/>
        <pt x="431" y="0" on="1"/>
        <pt x="80" y="0" on="1"/>
        <pt x="80" y="251" on="1"/>
        <pt x="1" y="186" on="1"/>
        <pt x="-29" y="223" on="1"/>
        <pt x="80" y="314" on="1"/>
        <pt x="80" y="630" on="1"/>
        <pt x="152" y="630" on="1"/>
        <pt x="152" y="361" on="1"/>
      </contour>
    </TTGlyph>
    <TTGlyph name="Lsmall" xMin="74" yMin="0" xMax="363" yMax="470">
      <contour>
        <pt x="74" y="470" on="1"/>
        <pt x="142" y="470" on="1"/>
        <pt x="142" y="55" on="1"/>
        <pt x="363" y="55" on="1"/>
        <pt x="363" y="0" on="1"/>
        <pt x="74" y="0" on="1"/>
      </contour>
    </TTGlyph>
    <TTGlyph name="M" xMin="64" yMin="0" xMax="732" yMax="630">
      <contour>
        <pt x="123" y="630" on="1"/>
        <pt x="217" y="630" on="1"/>
        <pt x="363" y="197" on="1"/>
        <pt x="371" y="174" on="0"/>
        <pt x="390" y="116" on="0"/>
        <pt x="398" y="89" on="1"/>
        <pt x="400" y="89" on="1"/>
        <pt x="408" y="115" on="0"/>
        <pt x="426" y="172" on="0"/>
        <pt x="434" y="197" on="1"/>
        <pt x="577" y="630" on="1"/>
        <pt x="672" y="630" on="1"/>
        <pt x="732" y="0" on="1"/>
        <pt x="660" y="0" on="1"/>
        <pt x="629" y="347" on="1"/>
        <pt x="624" y="400" on="0"/>
        <pt x="617" y="503" on="0"/>
        <pt x="615" y="556" on="1"/>
        <pt x="613" y="556" on="1"/>
        <pt x="599" y="508" on="0"/>
        <pt x="566" y="399" on="0"/>
        <pt x="549" y="347" on="1"/>
        <pt x="430" y="0" on="1"/>
        <pt x="365" y="0" on="1"/>
        <pt x="246" y="348" on="1"/>
        <pt x="228" y="401" on="0"/>
        <pt x="196" y="502" on="0"/>
        <pt x="182" y="556" on="1"/>
        <pt x="180" y="556" on="1"/>
        <pt x="177" y="508" on="0"/>
        <pt x="169" y="400" on="0"/>
        <pt x="164" y="347" on="1"/>
        <pt x="134" y="0" on="1"/>
        <pt x="64" y="0" on="1"/>
      </contour>
    </TTGlyph>
    <TTGlyph name="Macron" xMin="30" yMin="720" xMax="275" yMax="772">
      <contour>
        <pt x="275" y="772" on="1"/>
        <pt x="275" y="720" on="1"/>
        <pt x="30" y="720" on="1"/>
        <pt x="30" y="772" on="1"/>
      </contour>
    </TTGlyph>
    <TTGlyph name="Msmall" xMin="64" yMin="0" xMax="585" yMax="470">
      <contour>
        <pt x="108" y="470" on="1"/>
        <pt x="189" y="470" on="1"/>
        <pt x="298" y="148" on="1"/>
        <pt x="304" y="130" on="0"/>
        <pt x="318" y="87" on="0"/>
        <pt x="324" y="67" on="1"/>
        <pt x="326" y="67" on="1"/>
        <pt x="331" y="87" on="0"/>
        <pt x="345" y="129" on="0"/>
        <pt x="351" y="148" on="1"/>
        <pt x="459" y="470" on="1"/>
        <pt x="540" y="470" on="1"/>
        <pt x="585" y="0" on="1"/>
        <pt x="521" y="0" on="1"/>
        <pt x="498" y="260" on="1"/>
        <pt x="492" y="324" on="0"/>
        <pt x="489" y="395" on="1"/>
        <pt x="488" y="395" on="1"/>
        <pt x="480" y="363" on="0"/>
        <pt x="459" y="294" on="0"/>
        <pt x="448" y="260" on="1"/>
        <pt x="358" y="0" on="1"/>
        <pt x="290" y="0" on="1"/>
        <pt x="200" y="261" on="1"/>
        <pt x="188" y="296" on="0"/>
        <pt x="169" y="360" on="0"/>
        <pt x="160" y="395" on="1"/>
        <pt x="159" y="395" on="1"/>
        <pt x="157" y="360" on="0"/>
        <pt x="152" y="295" on="0"/>
        <pt x="149" y="260" on="1"/>
        <pt x="126" y="0" on="1"/>
        <pt x="64" y="0" on="1"/>
      </contour>
    </TTGlyph>
    <TTGlyph name="N" xMin="80" yMin="0" xMax="568" yMax="630">
      <contour>
        <pt x="80" y="630" on="1"/>
        <pt x="145" y="630" on="1"/>
        <pt x="426" y="223" on="1"/>
        <pt x="445" y="195" on="0"/>
        <pt x="482" y="139" on="0"/>
        <pt x="499" y="111" on="1"/>
        <pt x="501" y="111" on="1"/>
        <pt x="499" y="148" on="0"/>
        <pt x="498" y="221" on="0"/>
        <pt x="498" y="258" on="1"/>
        <pt x="498" y="630" on="1"/>
        <pt x="568" y="630" on="1"/>
        <pt x="568" y="0" on="1"/>
        <pt x="503" y="0" on="1"/>
        <pt x="228" y="395" on="1"/>
        <pt x="207" y="425" on="0"/>
        <pt x="166" y="494" on="0"/>
        <pt x="148" y="528" on="1"/>
        <pt x="146" y="528" on="1"/>
        <pt x="148" y="483" on="0"/>
        <pt x="150" y="396" on="0"/>
        <pt x="150" y="351" on="1"/>
        <pt x="150" y="0" on="1"/>
        <pt x="80" y="0" on="1"/>
      </contour>
    </TTGlyph>
    <TTGlyph name="Nacute" xMin="80" yMin="0" xMax="568" yMax="834">
      <contour>
        <pt x="323" y="710" on="1"/>
        <pt x="266" y="710" on="1"/>
        <pt x="351" y="834" on="1"/>
        <pt x="434" y="834" on="1"/>
      </contour>
      <contour>
        <pt x="80" y="630" on="1"/>
        <pt x="145" y="630" on="1"/>
        <pt x="426" y="223" on="1"/>
        <pt x="445" y="195" on="0"/>
        <pt x="482" y="139" on="0"/>
        <pt x="499" y="111" on="1"/>
        <pt x="501" y="111" on="1"/>
        <pt x="499" y="148" on="0"/>
        <pt x="498" y="221" on="0"/>
        <pt x="498" y="258" on="1"/>
        <pt x="498" y="630" on="1"/>
        <pt x="568" y="630" on="1"/>
        <pt x="568" y="0" on="1"/>
        <pt x="503" y="0" on="1"/>
        <pt x="228" y="395" on="1"/>
        <pt x="207" y="425" on="0"/>
        <pt x="166" y="494" on="0"/>
        <pt x="148" y="528" on="1"/>
        <pt x="146" y="528" on="1"/>
        <pt x="148" y="483" on="0"/>
        <pt x="150" y="396" on="0"/>
        <pt x="150" y="351" on="1"/>
        <pt x="150" y="0" on="1"/>
        <pt x="80" y="0" on="1"/>
      </contour>
    </TTGlyph>
    <TTGlyph name="Ncaron" xMin="80" yMin="0" xMax="568" yMax="845">
      <contour>
        <pt x="186" y="845" on="1"/>
        <pt x="254" y="845" on="1"/>
        <pt x="338" y="752" on="1"/>
        <pt x="422" y="845" on="1"/>
        <pt x="492" y="845" on="1"/>
        <pt x="367" y="711" on="1"/>
        <pt x="308" y="711" on="1"/>
      </contour>
      <contour>
        <pt x="80" y="630" on="1"/>
        <pt x="145" y="630" on="1"/>
        <pt x="426" y="223" on="1"/>
        <pt x="445" y="195" on="0"/>
        <pt x="482" y="139" on="0"/>
        <pt x="499" y="111" on="1"/>
        <pt x="501" y="111" on="1"/>
        <pt x="499" y="148" on="0"/>
        <pt x="498" y="221" on="0"/>
        <pt x="498" y="258" on="1"/>
        <pt x="498" y="630" on="1"/>
        <pt x="568" y="630" on="1"/>
        <pt x="568" y="0" on="1"/>
        <pt x="503" y="0" on="1"/>
        <pt x="228" y="395" on="1"/>
        <pt x="207" y="425" on="0"/>
        <pt x="166" y="494" on="0"/>
        <pt x="148" y="528" on="1"/>
        <pt x="146" y="528" on="1"/>
        <pt x="148" y="483" on="0"/>
        <pt x="150" y="396" on="0"/>
        <pt x="150" y="351" on="1"/>
        <pt x="150" y="0" on="1"/>
        <pt x="80" y="0" on="1"/>
      </contour>
    </TTGlyph>
    <TTGlyph name="Ncommaaccent" xMin="80" yMin="-311" xMax="568" yMax="630">
      <contour>
        <pt x="318" y="-185" on="1"/>
        <pt x="302" y="-182" on="0"/>
        <pt x="273" y="-156" on="0"/>
        <pt x="273" y="-132" on="1"/>
        <pt x="273" y="-111" on="0"/>
        <pt x="300" y="-82" on="0"/>
        <pt x="323" y="-82" on="1"/>
        <pt x="333" y="-82" on="0"/>
        <pt x="354" y="-90" on="0"/>
        <pt x="371" y="-108" on="0"/>
        <pt x="382" y="-137" on="0"/>
        <pt x="382" y="-159" on="1"/>
        <pt x="382" y="-182" on="0"/>
        <pt x="366" y="-226" on="0"/>
        <pt x="338" y="-266" on="0"/>
        <pt x="300" y="-300" on="0"/>
        <pt x="279" y="-311" on="1"/>
        <pt x="256" y="-280" on="1"/>
        <pt x="285" y="-264" on="0"/>
        <pt x="326" y="-213" on="0"/>
        <pt x="330" y="-188" on="1"/>
      </contour>
      <contour>
        <pt x="80" y="630" on="1"/>
        <pt x="145" y="630" on="1"/>
        <pt x="426" y="223" on="1"/>
        <pt x="445" y="195" on="0"/>
        <pt x="482" y="139" on="0"/>
        <pt x="499" y="111" on="1"/>
        <pt x="501" y="111" on="1"/>
        <pt x="499" y="148" on="0"/>
        <pt x="498" y="221" on="0"/>
        <pt x="498" y="258" on="1"/>
        <pt x="498" y="630" on="1"/>
        <pt x="568" y="630" on="1"/>
        <pt x="568" y="0" on="1"/>
        <pt x="503" y="0" on="1"/>
        <pt x="228" y="395" on="1"/>
        <pt x="207" y="425" on="0"/>
        <pt x="166" y="494" on="0"/>
        <pt x="148" y="528" on="1"/>
        <pt x="146" y="528" on="1"/>
        <pt x="148" y="483" on="0"/>
        <pt x="150" y="396" on="0"/>
        <pt x="150" y="351" on="1"/>
        <pt x="150" y="0" on="1"/>
        <pt x="80" y="0" on="1"/>
      </contour>
    </TTGlyph>
    <TTGlyph name="Nsmall" xMin="74" yMin="0" xMax="460" yMax="470">
      <contour>
        <pt x="74" y="470" on="1"/>
        <pt x="141" y="470" on="1"/>
        <pt x="328" y="199" on="1"/>
        <pt x="347" y="171" on="0"/>
        <pt x="385" y="114" on="0"/>
        <pt x="395" y="95" on="1"/>
        <pt x="397" y="95" on="1"/>
        <pt x="394" y="129" on="0"/>
        <pt x="392" y="191" on="0"/>
        <pt x="392" y="223" on="1"/>
        <pt x="392" y="470" on="1"/>
        <pt x="460" y="470" on="1"/>
        <pt x="460" y="0" on="1"/>
        <pt x="393" y="0" on="1"/>
        <pt x="198" y="280" on="1"/>
        <pt x="180" y="306" on="0"/>
        <pt x="147" y="363" on="0"/>
        <pt x="138" y="384" on="1"/>
        <pt x="136" y="384" on="1"/>
        <pt x="139" y="346" on="0"/>
        <pt x="141" y="271" on="0"/>
        <pt x="141" y="233" on="1"/>
        <pt x="141" y="0" on="1"/>
        <pt x="74" y="0" on="1"/>
      </contour>
    </TTGlyph>
    <TTGlyph name="Ntilde" xMin="80" yMin="0" xMax="563" yMax="820">
      <contour>
        <pt x="80" y="630" on="1"/>
        <pt x="190" y="630" on="1"/>
        <pt x="415" y="216" on="1"/>
        <pt x="491" y="69" on="1"/>
        <pt x="494" y="69" on="1"/>
        <pt x="493" y="236" on="1"/>
        <pt x="493" y="630" on="1"/>
        <pt x="563" y="630" on="1"/>
        <pt x="563" y="0" on="1"/>
        <pt x="453" y="0" on="1"/>
        <pt x="235" y="396" on="1"/>
        <pt x="151" y="570" on="1"/>
        <pt x="149" y="570" on="1"/>
        <pt x="150" y="376" on="1"/>
        <pt x="150" y="0" on="1"/>
        <pt x="80" y="0" on="1"/>
      </contour>
      <contour>
        <pt x="181" y="712" on="1"/>
        <pt x="181" y="756" on="0"/>
        <pt x="222" y="817" on="0"/>
        <pt x="268" y="817" on="1"/>
        <pt x="290" y="817" on="0"/>
        <pt x="322" y="802" on="0"/>
        <pt x="351" y="783" on="0"/>
        <pt x="378" y="768" on="0"/>
        <pt x="395" y="768" on="1"/>
        <pt x="418" y="768" on="0"/>
        <pt x="437" y="800" on="0"/>
        <pt x="439" y="820" on="1"/>
        <pt x="484" y="820" on="1"/>
        <pt x="484" y="800" on="0"/>
        <pt x="474" y="763" on="0"/>
        <pt x="453" y="735" on="0"/>
        <pt x="422" y="717" on="0"/>
        <pt x="401" y="717" on="1"/>
        <pt x="378" y="717" on="0"/>
        <pt x="342" y="732" on="0"/>
        <pt x="311" y="750" on="0"/>
        <pt x="284" y="765" on="0"/>
        <pt x="271" y="765" on="1"/>
        <pt x="248" y="765" on="0"/>
        <pt x="228" y="734" on="0"/>
        <pt x="226" y="712" on="1"/>
      </contour>
    </TTGlyph>
    <TTGlyph name="O" xMin="46" yMin="-9" xMax="620" yMax="638">
      <contour>
        <pt x="335" y="638" on="1"/>
        <pt x="395" y="638" on="0"/>
        <pt x="500" y="598" on="0"/>
        <pt x="576" y="517" on="0"/>
        <pt x="620" y="396" on="0"/>
        <pt x="620" y="315" on="1"/>
        <pt x="620" y="236" on="0"/>
        <pt x="575" y="115" on="0"/>
        <pt x="497" y="33" on="0"/>
        <pt x="391" y="-9" on="0"/>
        <pt x="331" y="-9" on="1"/>
        <pt x="271" y="-9" on="0"/>
        <pt x="166" y="32" on="0"/>
        <pt x="90" y="113" on="0"/>
        <pt x="46" y="234" on="0"/>
        <pt x="46" y="315" on="1"/>
        <pt x="46" y="394" on="0"/>
        <pt x="91" y="514" on="0"/>
        <pt x="169" y="596" on="0"/>
        <pt x="274" y="638" on="0"/>
      </contour>
      <contour>
        <pt x="123" y="315" on="1"/>
        <pt x="123" y="247" on="0"/>
        <pt x="157" y="147" on="0"/>
        <pt x="215" y="81" on="0"/>
        <pt x="292" y="49" on="0"/>
        <pt x="335" y="49" on="1"/>
        <pt x="378" y="49" on="0"/>
        <pt x="453" y="81" on="0"/>
        <pt x="510" y="147" on="0"/>
        <pt x="543" y="247" on="0"/>
        <pt x="543" y="315" on="1"/>
        <pt x="543" y="384" on="0"/>
        <pt x="509" y="485" on="0"/>
        <pt x="451" y="549" on="0"/>
        <pt x="374" y="580" on="0"/>
        <pt x="331" y="580" on="1"/>
        <pt x="288" y="580" on="0"/>
        <pt x="213" y="548" on="0"/>
        <pt x="156" y="482" on="0"/>
        <pt x="123" y="382" on="0"/>
      </contour>
    </TTGlyph>
    <TTGlyph name="OE" xMin="46" yMin="-9" xMax="787" yMax="638">
      <contour>
        <pt x="333" y="-9" on="1"/>
        <pt x="273" y="-9" on="0"/>
        <pt x="168" y="31" on="0"/>
        <pt x="91" y="111" on="0"/>
        <pt x="46" y="233" on="0"/>
        <pt x="46" y="316" on="1"/>
        <pt x="46" y="395" on="0"/>
        <pt x="91" y="515" on="0"/>
        <pt x="170" y="596" on="0"/>
        <pt x="275" y="638" on="0"/>
        <pt x="335" y="638" on="1"/>
        <pt x="356" y="638" on="0"/>
        <pt x="401" y="635" on="0"/>
        <pt x="420" y="630" on="1"/>
        <pt x="784" y="630" on="1"/>
        <pt x="784" y="571" on="1"/>
        <pt x="491" y="571" on="1"/>
        <pt x="491" y="355" on="1"/>
        <pt x="758" y="355" on="1"/>
        <pt x="758" y="296" on="1"/>
        <pt x="491" y="296" on="1"/>
        <pt x="491" y="59" on="1"/>
        <pt x="787" y="59" on="1"/>
        <pt x="787" y="0" on="1"/>
        <pt x="418" y="0" on="1"/>
        <pt x="398" y="-5" on="0"/>
        <pt x="354" y="-9" on="0"/>
      </contour>
      <contour>
        <pt x="336" y="580" on="1"/>
        <pt x="290" y="580" on="0"/>
        <pt x="212" y="548" on="0"/>
        <pt x="155" y="484" on="0"/>
        <pt x="123" y="384" on="0"/>
        <pt x="123" y="317" on="1"/>
        <pt x="123" y="249" on="0"/>
        <pt x="156" y="148" on="0"/>
        <pt x="213" y="82" on="0"/>
        <pt x="291" y="49" on="0"/>
        <pt x="337" y="49" on="1"/>
        <pt x="358" y="49" on="0"/>
        <pt x="400" y="57" on="0"/>
        <pt x="419" y="65" on="1"/>
        <pt x="419" y="566" on="1"/>
        <pt x="399" y="574" on="0"/>
        <pt x="358" y="580" on="0"/>
      </contour>
    </TTGlyph>
    <TTGlyph name="Oacute" xMin="46" yMin="-9" xMax="620" yMax="834">
      <contour>
        <pt x="335" y="638" on="1"/>
        <pt x="395" y="638" on="0"/>
        <pt x="500" y="598" on="0"/>
        <pt x="576" y="517" on="0"/>
        <pt x="620" y="396" on="0"/>
        <pt x="620" y="315" on="1"/>
        <pt x="620" y="236" on="0"/>
        <pt x="575" y="115" on="0"/>
        <pt x="497" y="33" on="0"/>
        <pt x="391" y="-9" on="0"/>
        <pt x="331" y="-9" on="1"/>
        <pt x="271" y="-9" on="0"/>
        <pt x="166" y="32" on="0"/>
        <pt x="90" y="113" on="0"/>
        <pt x="46" y="234" on="0"/>
        <pt x="46" y="315" on="1"/>
        <pt x="46" y="394" on="0"/>
        <pt x="91" y="514" on="0"/>
        <pt x="169" y="596" on="0"/>
        <pt x="274" y="638" on="0"/>
      </contour>
      <contour>
        <pt x="123" y="315" on="1"/>
        <pt x="123" y="247" on="0"/>
        <pt x="157" y="147" on="0"/>
        <pt x="215" y="81" on="0"/>
        <pt x="292" y="49" on="0"/>
        <pt x="335" y="49" on="1"/>
        <pt x="378" y="49" on="0"/>
        <pt x="453" y="81" on="0"/>
        <pt x="510" y="147" on="0"/>
        <pt x="543" y="247" on="0"/>
        <pt x="543" y="315" on="1"/>
        <pt x="543" y="384" on="0"/>
        <pt x="509" y="485" on="0"/>
        <pt x="451" y="549" on="0"/>
        <pt x="374" y="580" on="0"/>
        <pt x="331" y="580" on="1"/>
        <pt x="288" y="580" on="0"/>
        <pt x="213" y="548" on="0"/>
        <pt x="156" y="482" on="0"/>
        <pt x="123" y="382" on="0"/>
      </contour>
      <contour>
        <pt x="317" y="710" on="1"/>
        <pt x="260" y="710" on="1"/>
        <pt x="345" y="834" on="1"/>
        <pt x="428" y="834" on="1"/>
      </contour>
    </TTGlyph>
    <TTGlyph name="Obreve" xMin="46" yMin="-9" xMax="620" yMax="834">
      <contour>
        <pt x="335" y="638" on="1"/>
        <pt x="395" y="638" on="0"/>
        <pt x="500" y="598" on="0"/>
        <pt x="576" y="517" on="0"/>
        <pt x="620" y="396" on="0"/>
        <pt x="620" y="315" on="1"/>
        <pt x="620" y="236" on="0"/>
        <pt x="575" y="115" on="0"/>
        <pt x="497" y="33" on="0"/>
        <pt x="391" y="-9" on="0"/>
        <pt x="331" y="-9" on="1"/>
        <pt x="271" y="-9" on="0"/>
        <pt x="166" y="32" on="0"/>
        <pt x="90" y="113" on="0"/>
        <pt x="46" y="234" on="0"/>
        <pt x="46" y="315" on="1"/>
        <pt x="46" y="394" on="0"/>
        <pt x="91" y="514" on="0"/>
        <pt x="169" y="596" on="0"/>
        <pt x="274" y="638" on="0"/>
      </contour>
      <contour>
        <pt x="123" y="315" on="1"/>
        <pt x="123" y="247" on="0"/>
        <pt x="157" y="147" on="0"/>
        <pt x="215" y="81" on="0"/>
        <pt x="292" y="49" on="0"/>
        <pt x="335" y="49" on="1"/>
        <pt x="378" y="49" on="0"/>
        <pt x="453" y="81" on="0"/>
        <pt x="510" y="147" on="0"/>
        <pt x="543" y="247" on="0"/>
        <pt x="543" y="315" on="1"/>
        <pt x="543" y="384" on="0"/>
        <pt x="509" y="485" on="0"/>
        <pt x="451" y="549" on="0"/>
        <pt x="374" y="580" on="0"/>
        <pt x="331" y="580" on="1"/>
        <pt x="288" y="580" on="0"/>
        <pt x="213" y="548" on="0"/>
        <pt x="156" y="482" on="0"/>
        <pt x="123" y="382" on="0"/>
      </contour>
      <contour>
        <pt x="254" y="834" on="1"/>
        <pt x="256" y="799" on="0"/>
        <pt x="288" y="757" on="0"/>
        <pt x="332" y="757" on="1"/>
        <pt x="369" y="757" on="0"/>
        <pt x="410" y="797" on="0"/>
        <pt x="412" y="834" on="1"/>
        <pt x="467" y="834" on="1"/>
        <pt x="467" y="780" on="0"/>
        <pt x="397" y="710" on="0"/>
        <pt x="332" y="710" on="1"/>
        <pt x="296" y="710" on="0"/>
        <pt x="246" y="731" on="0"/>
        <pt x="213" y="765" on="0"/>
        <pt x="198" y="810" on="0"/>
        <pt x="198" y="834" on="1"/>
      </contour>
    </TTGlyph>
    <TTGlyph name="Ocircumflex" xMin="46" yMin="-9" xMax="620" yMax="844">
      <contour>
        <pt x="335" y="638" on="1"/>
        <pt x="395" y="638" on="0"/>
        <pt x="500" y="598" on="0"/>
        <pt x="576" y="517" on="0"/>
        <pt x="620" y="396" on="0"/>
        <pt x="620" y="315" on="1"/>
        <pt x="620" y="236" on="0"/>
        <pt x="575" y="115" on="0"/>
        <pt x="497" y="33" on="0"/>
        <pt x="391" y="-9" on="0"/>
        <pt x="331" y="-9" on="1"/>
        <pt x="271" y="-9" on="0"/>
        <pt x="166" y="32" on="0"/>
        <pt x="90" y="113" on="0"/>
        <pt x="46" y="234" on="0"/>
        <pt x="46" y="315" on="1"/>
        <pt x="46" y="394" on="0"/>
        <pt x="91" y="514" on="0"/>
        <pt x="169" y="596" on="0"/>
        <pt x="274" y="638" on="0"/>
      </contour>
      <contour>
        <pt x="123" y="315" on="1"/>
        <pt x="123" y="247" on="0"/>
        <pt x="157" y="147" on="0"/>
        <pt x="215" y="81" on="0"/>
        <pt x="292" y="49" on="0"/>
        <pt x="335" y="49" on="1"/>
        <pt x="378" y="49" on="0"/>
        <pt x="453" y="81" on="0"/>
        <pt x="510" y="147" on="0"/>
        <pt x="543" y="247" on="0"/>
        <pt x="543" y="315" on="1"/>
        <pt x="543" y="384" on="0"/>
        <pt x="509" y="485" on="0"/>
        <pt x="451" y="549" on="0"/>
        <pt x="374" y="580" on="0"/>
        <pt x="331" y="580" on="1"/>
        <pt x="288" y="580" on="0"/>
        <pt x="213" y="548" on="0"/>
        <pt x="156" y="482" on="0"/>
        <pt x="123" y="382" on="0"/>
      </contour>
      <contour>
        <pt x="304" y="844" on="1"/>
        <pt x="363" y="844" on="1"/>
        <pt x="488" y="710" on="1"/>
        <pt x="418" y="710" on="1"/>
        <pt x="333" y="801" on="1"/>
        <pt x="248" y="710" on="1"/>
        <pt x="182" y="710" on="1"/>
      </contour>
    </TTGlyph>
    <TTGlyph name="Odieresis" xMin="46" yMin="-9" xMax="620" yMax="810">
      <contour>
        <pt x="335" y="638" on="1"/>
        <pt x="395" y="638" on="0"/>
        <pt x="500" y="598" on="0"/>
        <pt x="576" y="517" on="0"/>
        <pt x="620" y="396" on="0"/>
        <pt x="620" y="315" on="1"/>
        <pt x="620" y="236" on="0"/>
        <pt x="575" y="115" on="0"/>
        <pt x="497" y="33" on="0"/>
        <pt x="391" y="-9" on="0"/>
        <pt x="331" y="-9" on="1"/>
        <pt x="271" y="-9" on="0"/>
        <pt x="166" y="32" on="0"/>
        <pt x="90" y="113" on="0"/>
        <pt x="46" y="234" on="0"/>
        <pt x="46" y="315" on="1"/>
        <pt x="46" y="394" on="0"/>
        <pt x="91" y="514" on="0"/>
        <pt x="169" y="596" on="0"/>
        <pt x="274" y="638" on="0"/>
      </contour>
      <contour>
        <pt x="123" y="315" on="1"/>
        <pt x="123" y="247" on="0"/>
        <pt x="157" y="147" on="0"/>
        <pt x="215" y="81" on="0"/>
        <pt x="292" y="49" on="0"/>
        <pt x="335" y="49" on="1"/>
        <pt x="378" y="49" on="0"/>
        <pt x="453" y="81" on="0"/>
        <pt x="510" y="147" on="0"/>
        <pt x="543" y="247" on="0"/>
        <pt x="543" y="315" on="1"/>
        <pt x="543" y="384" on="0"/>
        <pt x="509" y="485" on="0"/>
        <pt x="451" y="549" on="0"/>
        <pt x="374" y="580" on="0"/>
        <pt x="331" y="580" on="1"/>
        <pt x="288" y="580" on="0"/>
        <pt x="213" y="548" on="0"/>
        <pt x="156" y="482" on="0"/>
        <pt x="123" y="382" on="0"/>
      </contour>
      <contour>
        <pt x="204" y="763" on="1"/>
        <pt x="204" y="783" on="0"/>
        <pt x="230" y="810" on="0"/>
        <pt x="249" y="810" on="1"/>
        <pt x="267" y="810" on="0"/>
        <pt x="294" y="783" on="0"/>
        <pt x="294" y="763" on="1"/>
        <pt x="294" y="743" on="0"/>
        <pt x="267" y="716" on="0"/>
        <pt x="249" y="716" on="1"/>
        <pt x="230" y="716" on="0"/>
        <pt x="204" y="743" on="0"/>
      </contour>
      <contour>
        <pt x="372" y="763" on="1"/>
        <pt x="372" y="783" on="0"/>
        <pt x="398" y="810" on="0"/>
        <pt x="417" y="810" on="1"/>
        <pt x="435" y="810" on="0"/>
        <pt x="462" y="783" on="0"/>
        <pt x="462" y="763" on="1"/>
        <pt x="462" y="743" on="0"/>
        <pt x="435" y="716" on="0"/>
        <pt x="417" y="716" on="1"/>
        <pt x="398" y="716" on="0"/>
        <pt x="372" y="743" on="0"/>
      </contour>
    </TTGlyph>
    <TTGlyph name="Ogonek" xMin="25" yMin="-206" xMax="212" yMax="0">
      <contour>
        <pt x="180" y="0" on="1"/>
        <pt x="136" y="-23" on="0"/>
        <pt x="84" y="-69" on="0"/>
        <pt x="84" y="-101" on="1"/>
        <pt x="84" y="-127" on="0"/>
        <pt x="118" y="-156" on="0"/>
        <pt x="148" y="-156" on="1"/>
        <pt x="179" y="-156" on="0"/>
        <pt x="201" y="-146" on="1"/>
        <pt x="212" y="-185" on="1"/>
        <pt x="177" y="-206" on="0"/>
        <pt x="132" y="-206" on="1"/>
        <pt x="86" y="-206" on="0"/>
        <pt x="25" y="-156" on="0"/>
        <pt x="25" y="-109" on="1"/>
        <pt x="25" y="-90" on="0"/>
        <pt x="40" y="-56" on="0"/>
        <pt x="63" y="-28" on="0"/>
        <pt x="92" y="-7" on="0"/>
        <pt x="107" y="0" on="1"/>
      </contour>
    </TTGlyph>
    <TTGlyph name="Ograve" xMin="46" yMin="-9" xMax="620" yMax="834">
      <contour>
        <pt x="335" y="638" on="1"/>
        <pt x="395" y="638" on="0"/>
        <pt x="500" y="598" on="0"/>
        <pt x="576" y="517" on="0"/>
        <pt x="620" y="396" on="0"/>
        <pt x="620" y="315" on="1"/>
        <pt x="620" y="236" on="0"/>
        <pt x="575" y="115" on="0"/>
        <pt x="497" y="33" on="0"/>
        <pt x="391" y="-9" on="0"/>
        <pt x="331" y="-9" on="1"/>
        <pt x="271" y="-9" on="0"/>
        <pt x="166" y="32" on="0"/>
        <pt x="90" y="113" on="0"/>
        <pt x="46" y="234" on="0"/>
        <pt x="46" y="315" on="1"/>
        <pt x="46" y="394" on="0"/>
        <pt x="91" y="514" on="0"/>
        <pt x="169" y="596" on="0"/>
        <pt x="274" y="638" on="0"/>
      </contour>
      <contour>
        <pt x="123" y="315" on="1"/>
        <pt x="123" y="247" on="0"/>
        <pt x="157" y="147" on="0"/>
        <pt x="215" y="81" on="0"/>
        <pt x="292" y="49" on="0"/>
        <pt x="335" y="49" on="1"/>
        <pt x="378" y="49" on="0"/>
        <pt x="453" y="81" on="0"/>
        <pt x="510" y="147" on="0"/>
        <pt x="543" y="247" on="0"/>
        <pt x="543" y="315" on="1"/>
        <pt x="543" y="384" on="0"/>
        <pt x="509" y="485" on="0"/>
        <pt x="451" y="549" on="0"/>
        <pt x="374" y="580" on="0"/>
        <pt x="331" y="580" on="1"/>
        <pt x="288" y="580" on="0"/>
        <pt x="213" y="548" on="0"/>
        <pt x="156" y="482" on="0"/>
        <pt x="123" y="382" on="0"/>
      </contour>
      <contour>
        <pt x="230" y="834" on="1"/>
        <pt x="313" y="834" on="1"/>
        <pt x="398" y="710" on="1"/>
        <pt x="341" y="710" on="1"/>
      </contour>
    </TTGlyph>
    <TTGlyph name="Ohungarumlaut" xMin="46" yMin="-9" xMax="620" yMax="834">
      <contour>
        <pt x="369" y="710" on="1"/>
        <pt x="454" y="834" on="1"/>
        <pt x="534" y="834" on="1"/>
        <pt x="426" y="710" on="1"/>
      </contour>
      <contour>
        <pt x="191" y="710" on="1"/>
        <pt x="276" y="834" on="1"/>
        <pt x="356" y="834" on="1"/>
        <pt x="248" y="710" on="1"/>
      </contour>
      <contour>
        <pt x="335" y="638" on="1"/>
        <pt x="395" y="638" on="0"/>
        <pt x="500" y="598" on="0"/>
        <pt x="576" y="517" on="0"/>
        <pt x="620" y="396" on="0"/>
        <pt x="620" y="315" on="1"/>
        <pt x="620" y="236" on="0"/>
        <pt x="575" y="115" on="0"/>
        <pt x="497" y="33" on="0"/>
        <pt x="391" y="-9" on="0"/>
        <pt x="331" y="-9" on="1"/>
        <pt x="271" y="-9" on="0"/>
        <pt x="166" y="32" on="0"/>
        <pt x="90" y="113" on="0"/>
        <pt x="46" y="234" on="0"/>
        <pt x="46" y="315" on="1"/>
        <pt x="46" y="394" on="0"/>
        <pt x="91" y="514" on="0"/>
        <pt x="169" y="596" on="0"/>
        <pt x="274" y="638" on="0"/>
      </contour>
      <contour>
        <pt x="123" y="315" on="1"/>
        <pt x="123" y="247" on="0"/>
        <pt x="157" y="147" on="0"/>
        <pt x="215" y="81" on="0"/>
        <pt x="292" y="49" on="0"/>
        <pt x="335" y="49" on="1"/>
        <pt x="378" y="49" on="0"/>
        <pt x="453" y="81" on="0"/>
        <pt x="510" y="147" on="0"/>
        <pt x="543" y="247" on="0"/>
        <pt x="543" y="315" on="1"/>
        <pt x="543" y="384" on="0"/>
        <pt x="509" y="485" on="0"/>
        <pt x="451" y="549" on="0"/>
        <pt x="374" y="580" on="0"/>
        <pt x="331" y="580" on="1"/>
        <pt x="288" y="580" on="0"/>
        <pt x="213" y="548" on="0"/>
        <pt x="156" y="482" on="0"/>
        <pt x="123" y="382" on="0"/>
      </contour>
    </TTGlyph>
    <TTGlyph name="Omacron" xMin="46" yMin="-9" xMax="620" yMax="772">
      <contour>
        <pt x="335" y="638" on="1"/>
        <pt x="395" y="638" on="0"/>
        <pt x="500" y="598" on="0"/>
        <pt x="576" y="517" on="0"/>
        <pt x="620" y="396" on="0"/>
        <pt x="620" y="315" on="1"/>
        <pt x="620" y="236" on="0"/>
        <pt x="575" y="115" on="0"/>
        <pt x="497" y="33" on="0"/>
        <pt x="391" y="-9" on="0"/>
        <pt x="331" y="-9" on="1"/>
        <pt x="271" y="-9" on="0"/>
        <pt x="166" y="32" on="0"/>
        <pt x="90" y="113" on="0"/>
        <pt x="46" y="234" on="0"/>
        <pt x="46" y="315" on="1"/>
        <pt x="46" y="394" on="0"/>
        <pt x="91" y="514" on="0"/>
        <pt x="169" y="596" on="0"/>
        <pt x="274" y="638" on="0"/>
      </contour>
      <contour>
        <pt x="123" y="315" on="1"/>
        <pt x="123" y="247" on="0"/>
        <pt x="157" y="147" on="0"/>
        <pt x="215" y="81" on="0"/>
        <pt x="292" y="49" on="0"/>
        <pt x="335" y="49" on="1"/>
        <pt x="378" y="49" on="0"/>
        <pt x="453" y="81" on="0"/>
        <pt x="510" y="147" on="0"/>
        <pt x="543" y="247" on="0"/>
        <pt x="543" y="315" on="1"/>
        <pt x="543" y="384" on="0"/>
        <pt x="509" y="485" on="0"/>
        <pt x="451" y="549" on="0"/>
        <pt x="374" y="580" on="0"/>
        <pt x="331" y="580" on="1"/>
        <pt x="288" y="580" on="0"/>
        <pt x="213" y="548" on="0"/>
        <pt x="156" y="482" on="0"/>
        <pt x="123" y="382" on="0"/>
      </contour>
      <contour>
        <pt x="458" y="772" on="1"/>
        <pt x="458" y="720" on="1"/>
        <pt x="213" y="720" on="1"/>
        <pt x="213" y="772" on="1"/>
      </contour>
    </TTGlyph>
    <TTGlyph name="Oslash" xMin="46" yMin="-149" xMax="620" yMax="750">
      <contour>
        <pt x="494" y="750" on="1"/>
        <pt x="531" y="737" on="1"/>
        <pt x="478" y="603" on="1"/>
        <pt x="542" y="567" on="0"/>
        <pt x="620" y="424" on="0"/>
        <pt x="620" y="315" on="1"/>
        <pt x="620" y="236" on="0"/>
        <pt x="575" y="115" on="0"/>
        <pt x="497" y="33" on="0"/>
        <pt x="391" y="-9" on="0"/>
        <pt x="331" y="-9" on="1"/>
        <pt x="305" y="-9" on="0"/>
        <pt x="256" y="-1" on="0"/>
        <pt x="234" y="6" on="1"/>
        <pt x="172" y="-149" on="1"/>
        <pt x="135" y="-134" on="1"/>
        <pt x="196" y="21" on="1"/>
        <pt x="128" y="56" on="0"/>
        <pt x="46" y="201" on="0"/>
        <pt x="46" y="315" on="1"/>
        <pt x="46" y="394" on="0"/>
        <pt x="91" y="514" on="0"/>
        <pt x="169" y="596" on="0"/>
        <pt x="274" y="638" on="0"/>
        <pt x="335" y="638" on="1"/>
        <pt x="362" y="638" on="0"/>
        <pt x="417" y="629" on="0"/>
        <pt x="441" y="619" on="1"/>
      </contour>
      <contour>
        <pt x="123" y="315" on="1"/>
        <pt x="123" y="227" on="0"/>
        <pt x="178" y="111" on="0"/>
        <pt x="223" y="82" on="1"/>
        <pt x="416" y="563" on="1"/>
        <pt x="376" y="580" on="0"/>
        <pt x="331" y="580" on="1"/>
        <pt x="288" y="580" on="0"/>
        <pt x="213" y="548" on="0"/>
        <pt x="156" y="482" on="0"/>
        <pt x="123" y="382" on="0"/>
      </contour>
      <contour>
        <pt x="335" y="49" on="1"/>
        <pt x="378" y="49" on="0"/>
        <pt x="453" y="81" on="0"/>
        <pt x="510" y="147" on="0"/>
        <pt x="543" y="247" on="0"/>
        <pt x="543" y="315" on="1"/>
        <pt x="543" y="400" on="0"/>
        <pt x="493" y="513" on="0"/>
        <pt x="451" y="543" on="1"/>
        <pt x="259" y="63" on="1"/>
        <pt x="296" y="49" on="0"/>
      </contour>
    </TTGlyph>
    <TTGlyph name="Oslashacute" xMin="46" yMin="-149" xMax="620" yMax="834">
      <contour>
        <pt x="312" y="710" on="1"/>
        <pt x="255" y="710" on="1"/>
        <pt x="340" y="834" on="1"/>
        <pt x="423" y="834" on="1"/>
      </contour>
      <contour>
        <pt x="494" y="750" on="1"/>
        <pt x="531" y="737" on="1"/>
        <pt x="478" y="603" on="1"/>
        <pt x="542" y="567" on="0"/>
        <pt x="620" y="424" on="0"/>
        <pt x="620" y="315" on="1"/>
        <pt x="620" y="236" on="0"/>
        <pt x="575" y="115" on="0"/>
        <pt x="497" y="33" on="0"/>
        <pt x="391" y="-9" on="0"/>
        <pt x="331" y="-9" on="1"/>
        <pt x="305" y="-9" on="0"/>
        <pt x="256" y="-1" on="0"/>
        <pt x="234" y="6" on="1"/>
        <pt x="172" y="-149" on="1"/>
        <pt x="135" y="-134" on="1"/>
        <pt x="196" y="21" on="1"/>
        <pt x="128" y="56" on="0"/>
        <pt x="46" y="201" on="0"/>
        <pt x="46" y="315" on="1"/>
        <pt x="46" y="394" on="0"/>
        <pt x="91" y="514" on="0"/>
        <pt x="169" y="596" on="0"/>
        <pt x="274" y="638" on="0"/>
        <pt x="335" y="638" on="1"/>
        <pt x="362" y="638" on="0"/>
        <pt x="417" y="629" on="0"/>
        <pt x="441" y="619" on="1"/>
      </contour>
      <contour>
        <pt x="123" y="315" on="1"/>
        <pt x="123" y="227" on="0"/>
        <pt x="178" y="111" on="0"/>
        <pt x="223" y="82" on="1"/>
        <pt x="416" y="563" on="1"/>
        <pt x="376" y="580" on="0"/>
        <pt x="331" y="580" on="1"/>
        <pt x="288" y="580" on="0"/>
        <pt x="213" y="548" on="0"/>
        <pt x="156" y="482" on="0"/>
        <pt x="123" y="382" on="0"/>
      </contour>
      <contour>
        <pt x="335" y="49" on="1"/>
        <pt x="378" y="49" on="0"/>
        <pt x="453" y="81" on="0"/>
        <pt x="510" y="147" on="0"/>
        <pt x="543" y="247" on="0"/>
        <pt x="543" y="315" on="1"/>
        <pt x="543" y="400" on="0"/>
        <pt x="493" y="513" on="0"/>
        <pt x="451" y="543" on="1"/>
        <pt x="259" y="63" on="1"/>
        <pt x="296" y="49" on="0"/>
      </contour>
    </TTGlyph>
    <TTGlyph name="Osmall" xMin="42" yMin="-9" xMax="492" yMax="476">
      <contour>
        <pt x="492" y="240" on="1"/>
        <pt x="492" y="181" on="0"/>
        <pt x="457" y="88" on="0"/>
        <pt x="395" y="24" on="0"/>
        <pt x="313" y="-9" on="0"/>
        <pt x="265" y="-9" on="1"/>
        <pt x="217" y="-9" on="0"/>
        <pt x="136" y="22" on="0"/>
        <pt x="76" y="83" on="0"/>
        <pt x="42" y="172" on="0"/>
        <pt x="42" y="230" on="1"/>
        <pt x="42" y="289" on="0"/>
        <pt x="77" y="381" on="0"/>
        <pt x="139" y="444" on="0"/>
        <pt x="221" y="476" on="0"/>
        <pt x="269" y="476" on="1"/>
        <pt x="317" y="476" on="0"/>
        <pt x="398" y="446" on="0"/>
        <pt x="458" y="386" on="0"/>
        <pt x="492" y="298" on="0"/>
      </contour>
      <contour>
        <pt x="420" y="235" on="1"/>
        <pt x="420" y="286" on="0"/>
        <pt x="394" y="357" on="0"/>
        <pt x="350" y="402" on="0"/>
        <pt x="295" y="422" on="0"/>
        <pt x="266" y="422" on="1"/>
        <pt x="237" y="422" on="0"/>
        <pt x="182" y="403" on="0"/>
        <pt x="140" y="360" on="0"/>
        <pt x="114" y="288" on="0"/>
        <pt x="114" y="235" on="1"/>
        <pt x="114" y="184" on="0"/>
        <pt x="140" y="112" on="0"/>
        <pt x="183" y="66" on="0"/>
        <pt x="239" y="45" on="0"/>
        <pt x="268" y="45" on="1"/>
        <pt x="297" y="45" on="0"/>
        <pt x="352" y="64" on="0"/>
        <pt x="394" y="109" on="0"/>
        <pt x="420" y="182" on="0"/>
      </contour>
    </TTGlyph>
    <TTGlyph name="Otilde" xMin="46" yMin="-9" xMax="620" yMax="821">
      <contour>
        <pt x="335" y="638" on="1"/>
        <pt x="395" y="638" on="0"/>
        <pt x="500" y="598" on="0"/>
        <pt x="576" y="517" on="0"/>
        <pt x="620" y="396" on="0"/>
        <pt x="620" y="315" on="1"/>
        <pt x="620" y="236" on="0"/>
        <pt x="575" y="115" on="0"/>
        <pt x="497" y="33" on="0"/>
        <pt x="391" y="-9" on="0"/>
        <pt x="331" y="-9" on="1"/>
        <pt x="271" y="-9" on="0"/>
        <pt x="166" y="32" on="0"/>
        <pt x="90" y="113" on="0"/>
        <pt x="46" y="234" on="0"/>
        <pt x="46" y="315" on="1"/>
        <pt x="46" y="394" on="0"/>
        <pt x="91" y="514" on="0"/>
        <pt x="169" y="596" on="0"/>
        <pt x="274" y="638" on="0"/>
      </contour>
      <contour>
        <pt x="123" y="315" on="1"/>
        <pt x="123" y="247" on="0"/>
        <pt x="157" y="147" on="0"/>
        <pt x="215" y="81" on="0"/>
        <pt x="292" y="49" on="0"/>
        <pt x="335" y="49" on="1"/>
        <pt x="378" y="49" on="0"/>
        <pt x="453" y="81" on="0"/>
        <pt x="510" y="147" on="0"/>
        <pt x="543" y="247" on="0"/>
        <pt x="543" y="315" on="1"/>
        <pt x="543" y="384" on="0"/>
        <pt x="509" y="485" on="0"/>
        <pt x="451" y="549" on="0"/>
        <pt x="374" y="580" on="0"/>
        <pt x="331" y="580" on="1"/>
        <pt x="288" y="580" on="0"/>
        <pt x="213" y="548" on="0"/>
        <pt x="156" y="482" on="0"/>
        <pt x="123" y="382" on="0"/>
      </contour>
      <contour>
        <pt x="180" y="713" on="1"/>
        <pt x="180" y="757" on="0"/>
        <pt x="221" y="818" on="0"/>
        <pt x="267" y="818" on="1"/>
        <pt x="288" y="818" on="0"/>
        <pt x="321" y="803" on="0"/>
        <pt x="350" y="784" on="0"/>
        <pt x="377" y="769" on="0"/>
        <pt x="394" y="769" on="1"/>
        <pt x="417" y="769" on="0"/>
        <pt x="436" y="800" on="0"/>
        <pt x="438" y="821" on="1"/>
        <pt x="483" y="821" on="1"/>
        <pt x="483" y="801" on="0"/>
        <pt x="472" y="764" on="0"/>
        <pt x="451" y="735" on="0"/>
        <pt x="420" y="717" on="0"/>
        <pt x="399" y="717" on="1"/>
        <pt x="377" y="717" on="0"/>
        <pt x="341" y="732" on="0"/>
        <pt x="310" y="751" on="0"/>
        <pt x="283" y="766" on="0"/>
        <pt x="270" y="766" on="1"/>
        <pt x="246" y="766" on="0"/>
        <pt x="227" y="735" on="0"/>
        <pt x="225" y="713" on="1"/>
      </contour>
    </TTGlyph>
    <TTGlyph name="P" xMin="80" yMin="0" xMax="477" yMax="630">
      <contour>
        <pt x="80" y="630" on="1"/>
        <pt x="265" y="630" on="1"/>
        <pt x="311" y="630" on="0"/>
        <pt x="389" y="606" on="0"/>
        <pt x="446" y="559" on="0"/>
        <pt x="477" y="490" on="0"/>
        <pt x="477" y="444" on="1"/>
        <pt x="477" y="397" on="0"/>
        <pt x="443" y="326" on="0"/>
        <pt x="384" y="279" on="0"/>
        <pt x="303" y="255" on="0"/>
        <pt x="255" y="255" on="1"/>
        <pt x="152" y="255" on="1"/>
        <pt x="152" y="0" on="1"/>
        <pt x="80" y="0" on="1"/>
      </contour>
      <contour>
        <pt x="152" y="314" on="1"/>
        <pt x="224" y="314" on="1"/>
        <pt x="263" y="314" on="0"/>
        <pt x="329" y="326" on="0"/>
        <pt x="375" y="355" on="0"/>
        <pt x="401" y="405" on="0"/>
        <pt x="401" y="443" on="1"/>
        <pt x="401" y="480" on="0"/>
        <pt x="374" y="530" on="0"/>
        <pt x="331" y="560" on="0"/>
        <pt x="275" y="572" on="0"/>
        <pt x="246" y="572" on="1"/>
        <pt x="152" y="572" on="1"/>
      </contour>
    </TTGlyph>
    <TTGlyph name="Psmall" xMin="75" yMin="0" xMax="401" yMax="470">
      <contour>
        <pt x="75" y="470" on="1"/>
        <pt x="236" y="470" on="1"/>
        <pt x="269" y="470" on="0"/>
        <pt x="329" y="451" on="0"/>
        <pt x="374" y="415" on="0"/>
        <pt x="401" y="363" on="0"/>
        <pt x="401" y="330" on="1"/>
        <pt x="401" y="283" on="0"/>
        <pt x="364" y="226" on="0"/>
        <pt x="306" y="193" on="0"/>
        <pt x="234" y="182" on="0"/>
        <pt x="199" y="182" on="1"/>
        <pt x="143" y="182" on="1"/>
        <pt x="143" y="0" on="1"/>
        <pt x="75" y="0" on="1"/>
      </contour>
      <contour>
        <pt x="142" y="235" on="1"/>
        <pt x="202" y="235" on="1"/>
        <pt x="225" y="235" on="0"/>
        <pt x="271" y="243" on="0"/>
        <pt x="308" y="263" on="0"/>
        <pt x="331" y="299" on="0"/>
        <pt x="331" y="327" on="1"/>
        <pt x="331" y="355" on="0"/>
        <pt x="308" y="390" on="0"/>
        <pt x="272" y="410" on="0"/>
        <pt x="227" y="417" on="0"/>
        <pt x="205" y="417" on="1"/>
        <pt x="142" y="417" on="1"/>
      </contour>
    </TTGlyph>
    <TTGlyph name="Q" xMin="47" yMin="-179" xMax="643" yMax="638">
      <contour>
        <pt x="332" y="638" on="1"/>
        <pt x="395" y="638" on="0"/>
        <pt x="500" y="598" on="0"/>
        <pt x="576" y="517" on="0"/>
        <pt x="618" y="396" on="0"/>
        <pt x="618" y="315" on="1"/>
        <pt x="618" y="215" on="0"/>
        <pt x="538" y="61" on="0"/>
        <pt x="443" y="8" on="1"/>
        <pt x="299" y="-73" on="1"/>
        <pt x="329" y="-73" on="0"/>
        <pt x="383" y="-88" on="0"/>
        <pt x="437" y="-106" on="0"/>
        <pt x="495" y="-121" on="0"/>
        <pt x="530" y="-121" on="1"/>
        <pt x="550" y="-121" on="0"/>
        <pt x="598" y="-107" on="0"/>
        <pt x="616" y="-95" on="1"/>
        <pt x="643" y="-146" on="1"/>
        <pt x="617" y="-163" on="0"/>
        <pt x="556" y="-179" on="0"/>
        <pt x="527" y="-179" on="1"/>
        <pt x="491" y="-179" on="0"/>
        <pt x="426" y="-162" on="0"/>
        <pt x="363" y="-142" on="0"/>
        <pt x="300" y="-125" on="0"/>
        <pt x="268" y="-125" on="1"/>
        <pt x="212" y="-125" on="0"/>
        <pt x="159" y="-156" on="1"/>
        <pt x="130" y="-104" on="1"/>
        <pt x="300" y="-6" on="1"/>
        <pt x="242" y="-1" on="0"/>
        <pt x="149" y="47" on="0"/>
        <pt x="83" y="129" on="0"/>
        <pt x="47" y="244" on="0"/>
        <pt x="47" y="315" on="1"/>
        <pt x="47" y="394" on="0"/>
        <pt x="91" y="514" on="0"/>
        <pt x="167" y="596" on="0"/>
        <pt x="272" y="638" on="0"/>
      </contour>
      <contour>
        <pt x="124" y="315" on="1"/>
        <pt x="124" y="247" on="0"/>
        <pt x="156" y="146" on="0"/>
        <pt x="211" y="80" on="0"/>
        <pt x="286" y="47" on="0"/>
        <pt x="329" y="47" on="1"/>
        <pt x="373" y="47" on="0"/>
        <pt x="451" y="82" on="0"/>
        <pt x="508" y="151" on="0"/>
        <pt x="541" y="250" on="0"/>
        <pt x="541" y="315" on="1"/>
        <pt x="541" y="384" on="0"/>
        <pt x="509" y="485" on="0"/>
        <pt x="452" y="549" on="0"/>
        <pt x="375" y="580" on="0"/>
        <pt x="330" y="580" on="1"/>
        <pt x="288" y="580" on="0"/>
        <pt x="213" y="548" on="0"/>
        <pt x="157" y="482" on="0"/>
        <pt x="124" y="382" on="0"/>
      </contour>
    </TTGlyph>
    <TTGlyph name="Qsmall" xMin="42" yMin="-110" xMax="531" yMax="476">
      <contour>
        <pt x="302" y="-7" on="1"/>
        <pt x="320" y="-10" on="0"/>
        <pt x="352" y="-26" on="0"/>
        <pt x="386" y="-43" on="0"/>
        <pt x="424" y="-55" on="0"/>
        <pt x="447" y="-55" on="1"/>
        <pt x="470" y="-55" on="0"/>
        <pt x="499" y="-45" on="0"/>
        <pt x="512" y="-37" on="1"/>
        <pt x="531" y="-87" on="1"/>
        <pt x="517" y="-96" on="0"/>
        <pt x="473" y="-110" on="0"/>
        <pt x="447" y="-110" on="1"/>
        <pt x="413" y="-110" on="0"/>
        <pt x="360" y="-91" on="0"/>
        <pt x="313" y="-69" on="0"/>
        <pt x="266" y="-50" on="0"/>
        <pt x="239" y="-50" on="1"/>
        <pt x="207" y="-50" on="0"/>
        <pt x="159" y="-69" on="0"/>
        <pt x="136" y="-84" on="1"/>
        <pt x="109" y="-37" on="1"/>
        <pt x="127" y="-22" on="0"/>
        <pt x="176" y="-2" on="0"/>
        <pt x="196" y="1" on="1"/>
        <pt x="196" y="3" on="1"/>
        <pt x="163" y="11" on="0"/>
        <pt x="107" y="50" on="0"/>
        <pt x="66" y="108" on="0"/>
        <pt x="42" y="185" on="0"/>
        <pt x="42" y="232" on="1"/>
        <pt x="42" y="291" on="0"/>
        <pt x="77" y="382" on="0"/>
        <pt x="138" y="444" on="0"/>
        <pt x="220" y="476" on="0"/>
        <pt x="268" y="476" on="1"/>
        <pt x="316" y="476" on="0"/>
        <pt x="398" y="446" on="0"/>
        <pt x="458" y="386" on="0"/>
        <pt x="492" y="297" on="0"/>
        <pt x="492" y="239" on="1"/>
        <pt x="492" y="185" on="0"/>
        <pt x="462" y="99" on="0"/>
        <pt x="410" y="37" on="0"/>
        <pt x="341" y="0" on="0"/>
        <pt x="302" y="-5" on="1"/>
      </contour>
      <contour>
        <pt x="420" y="234" on="1"/>
        <pt x="420" y="285" on="0"/>
        <pt x="393" y="356" on="0"/>
        <pt x="350" y="401" on="0"/>
        <pt x="294" y="422" on="0"/>
        <pt x="265" y="422" on="1"/>
        <pt x="236" y="422" on="0"/>
        <pt x="182" y="404" on="0"/>
        <pt x="140" y="361" on="0"/>
        <pt x="114" y="290" on="0"/>
        <pt x="114" y="237" on="1"/>
        <pt x="114" y="186" on="0"/>
        <pt x="140" y="113" on="0"/>
        <pt x="182" y="65" on="0"/>
        <pt x="236" y="43" on="0"/>
        <pt x="265" y="43" on="1"/>
        <pt x="294" y="43" on="0"/>
        <pt x="350" y="63" on="0"/>
        <pt x="393" y="108" on="0"/>
        <pt x="420" y="181" on="0"/>
      </contour>
    </TTGlyph>
    <TTGlyph name="R" xMin="80" yMin="0" xMax="512" yMax="630">
      <contour>
        <pt x="80" y="630" on="1"/>
        <pt x="274" y="630" on="1"/>
        <pt x="323" y="630" on="0"/>
        <pt x="398" y="603" on="0"/>
        <pt x="448" y="555" on="0"/>
        <pt x="474" y="488" on="0"/>
        <pt x="474" y="448" on="1"/>
        <pt x="474" y="412" on="0"/>
        <pt x="452" y="353" on="0"/>
        <pt x="415" y="309" on="0"/>
        <pt x="367" y="279" on="0"/>
        <pt x="341" y="270" on="1"/>
        <pt x="512" y="0" on="1"/>
        <pt x="430" y="0" on="1"/>
        <pt x="274" y="257" on="1"/>
        <pt x="147" y="257" on="1"/>
        <pt x="147" y="0" on="1"/>
        <pt x="80" y="0" on="1"/>
      </contour>
      <contour>
        <pt x="147" y="315" on="1"/>
        <pt x="243" y="315" on="1"/>
        <pt x="276" y="315" on="0"/>
        <pt x="333" y="330" on="0"/>
        <pt x="375" y="362" on="0"/>
        <pt x="399" y="411" on="0"/>
        <pt x="399" y="445" on="1"/>
        <pt x="399" y="511" on="0"/>
        <pt x="324" y="572" on="0"/>
        <pt x="251" y="572" on="1"/>
        <pt x="147" y="572" on="1"/>
      </contour>
    </TTGlyph>
    <TTGlyph name="R.alt" xMin="80" yMin="0" xMax="512" yMax="630">
      <contour>
        <pt x="80" y="630" on="1"/>
        <pt x="274" y="630" on="1"/>
        <pt x="323" y="630" on="0"/>
        <pt x="398" y="603" on="0"/>
        <pt x="448" y="555" on="0"/>
        <pt x="474" y="488" on="0"/>
        <pt x="474" y="448" on="1"/>
        <pt x="474" y="412" on="0"/>
        <pt x="452" y="353" on="0"/>
        <pt x="415" y="309" on="0"/>
        <pt x="367" y="279" on="0"/>
        <pt x="341" y="270" on="1"/>
        <pt x="512" y="0" on="1"/>
        <pt x="430" y="0" on="1"/>
        <pt x="274" y="257" on="1"/>
        <pt x="147" y="257" on="1"/>
        <pt x="147" y="0" on="1"/>
        <pt x="80" y="0" on="1"/>
      </contour>
      <contour>
        <pt x="147" y="315" on="1"/>
        <pt x="243" y="315" on="1"/>
        <pt x="276" y="315" on="0"/>
        <pt x="333" y="330" on="0"/>
        <pt x="375" y="362" on="0"/>
        <pt x="399" y="411" on="0"/>
        <pt x="399" y="445" on="1"/>
        <pt x="399" y="511" on="0"/>
        <pt x="324" y="572" on="0"/>
        <pt x="251" y="572" on="1"/>
        <pt x="147" y="572" on="1"/>
      </contour>
    </TTGlyph>
    <TTGlyph name="Racute" xMin="80" yMin="0" xMax="512" yMax="834">
      <contour>
        <pt x="80" y="630" on="1"/>
        <pt x="274" y="630" on="1"/>
        <pt x="323" y="630" on="0"/>
        <pt x="398" y="603" on="0"/>
        <pt x="448" y="555" on="0"/>
        <pt x="474" y="488" on="0"/>
        <pt x="474" y="448" on="1"/>
        <pt x="474" y="412" on="0"/>
        <pt x="452" y="353" on="0"/>
        <pt x="415" y="309" on="0"/>
        <pt x="367" y="279" on="0"/>
        <pt x="341" y="270" on="1"/>
        <pt x="512" y="0" on="1"/>
        <pt x="430" y="0" on="1"/>
        <pt x="274" y="257" on="1"/>
        <pt x="147" y="257" on="1"/>
        <pt x="147" y="0" on="1"/>
        <pt x="80" y="0" on="1"/>
      </contour>
      <contour>
        <pt x="147" y="315" on="1"/>
        <pt x="243" y="315" on="1"/>
        <pt x="276" y="315" on="0"/>
        <pt x="333" y="330" on="0"/>
        <pt x="375" y="362" on="0"/>
        <pt x="399" y="411" on="0"/>
        <pt x="399" y="445" on="1"/>
        <pt x="399" y="511" on="0"/>
        <pt x="324" y="572" on="0"/>
        <pt x="251" y="572" on="1"/>
        <pt x="147" y="572" on="1"/>
      </contour>
      <contour>
        <pt x="247" y="710" on="1"/>
        <pt x="190" y="710" on="1"/>
        <pt x="275" y="834" on="1"/>
        <pt x="358" y="834" on="1"/>
      </contour>
    </TTGlyph>
    <TTGlyph name="Rcaron" xMin="80" yMin="0" xMax="512" yMax="845">
      <contour>
        <pt x="80" y="630" on="1"/>
        <pt x="274" y="630" on="1"/>
        <pt x="323" y="630" on="0"/>
        <pt x="398" y="603" on="0"/>
        <pt x="448" y="555" on="0"/>
        <pt x="474" y="488" on="0"/>
        <pt x="474" y="448" on="1"/>
        <pt x="474" y="412" on="0"/>
        <pt x="452" y="353" on="0"/>
        <pt x="415" y="309" on="0"/>
        <pt x="367" y="279" on="0"/>
        <pt x="341" y="270" on="1"/>
        <pt x="512" y="0" on="1"/>
        <pt x="430" y="0" on="1"/>
        <pt x="274" y="257" on="1"/>
        <pt x="147" y="257" on="1"/>
        <pt x="147" y="0" on="1"/>
        <pt x="80" y="0" on="1"/>
      </contour>
      <contour>
        <pt x="147" y="315" on="1"/>
        <pt x="243" y="315" on="1"/>
        <pt x="276" y="315" on="0"/>
        <pt x="333" y="330" on="0"/>
        <pt x="375" y="362" on="0"/>
        <pt x="399" y="411" on="0"/>
        <pt x="399" y="445" on="1"/>
        <pt x="399" y="511" on="0"/>
        <pt x="324" y="572" on="0"/>
        <pt x="251" y="572" on="1"/>
        <pt x="147" y="572" on="1"/>
      </contour>
      <contour>
        <pt x="97" y="845" on="1"/>
        <pt x="165" y="845" on="1"/>
        <pt x="249" y="752" on="1"/>
        <pt x="333" y="845" on="1"/>
        <pt x="403" y="845" on="1"/>
        <pt x="278" y="711" on="1"/>
        <pt x="219" y="711" on="1"/>
      </contour>
    </TTGlyph>
    <TTGlyph name="Rcommaaccent" xMin="80" yMin="-311" xMax="512" yMax="630">
      <contour>
        <pt x="80" y="630" on="1"/>
        <pt x="274" y="630" on="1"/>
        <pt x="323" y="630" on="0"/>
        <pt x="398" y="603" on="0"/>
        <pt x="448" y="555" on="0"/>
        <pt x="474" y="488" on="0"/>
        <pt x="474" y="448" on="1"/>
        <pt x="474" y="412" on="0"/>
        <pt x="452" y="353" on="0"/>
        <pt x="415" y="309" on="0"/>
        <pt x="367" y="279" on="0"/>
        <pt x="341" y="270" on="1"/>
        <pt x="512" y="0" on="1"/>
        <pt x="430" y="0" on="1"/>
        <pt x="274" y="257" on="1"/>
        <pt x="147" y="257" on="1"/>
        <pt x="147" y="0" on="1"/>
        <pt x="80" y="0" on="1"/>
      </contour>
      <contour>
        <pt x="147" y="315" on="1"/>
        <pt x="243" y="315" on="1"/>
        <pt x="276" y="315" on="0"/>
        <pt x="333" y="330" on="0"/>
        <pt x="375" y="362" on="0"/>
        <pt x="399" y="411" on="0"/>
        <pt x="399" y="445" on="1"/>
        <pt x="399" y="511" on="0"/>
        <pt x="324" y="572" on="0"/>
        <pt x="251" y="572" on="1"/>
        <pt x="147" y="572" on="1"/>
      </contour>
      <contour>
        <pt x="278" y="-185" on="1"/>
        <pt x="262" y="-182" on="0"/>
        <pt x="233" y="-156" on="0"/>
        <pt x="233" y="-132" on="1"/>
        <pt x="233" y="-111" on="0"/>
        <pt x="260" y="-82" on="0"/>
        <pt x="283" y="-82" on="1"/>
        <pt x="293" y="-82" on="0"/>
        <pt x="314" y="-90" on="0"/>
        <pt x="331" y="-108" on="0"/>
        <pt x="342" y="-137" on="0"/>
        <pt x="342" y="-159" on="1"/>
        <pt x="342" y="-182" on="0"/>
        <pt x="326" y="-226" on="0"/>
        <pt x="298" y="-266" on="0"/>
        <pt x="260" y="-300" on="0"/>
        <pt x="239" y="-311" on="1"/>
        <pt x="216" y="-280" on="1"/>
        <pt x="245" y="-264" on="0"/>
        <pt x="286" y="-213" on="0"/>
        <pt x="290" y="-188" on="1"/>
      </contour>
    </TTGlyph>
    <TTGlyph name="Ring" xMin="27" yMin="710" xMax="217" yMax="876">
      <contour>
        <pt x="27" y="793" on="1"/>
        <pt x="27" y="836" on="0"/>
        <pt x="83" y="876" on="0"/>
        <pt x="122" y="876" on="1"/>
        <pt x="162" y="876" on="0"/>
        <pt x="217" y="836" on="0"/>
        <pt x="217" y="793" on="1"/>
        <pt x="217" y="771" on="0"/>
        <pt x="201" y="740" on="0"/>
        <pt x="175" y="720" on="0"/>
        <pt x="141" y="710" on="0"/>
        <pt x="122" y="710" on="1"/>
        <pt x="84" y="710" on="0"/>
        <pt x="27" y="751" on="0"/>
      </contour>
      <contour>
        <pt x="71" y="793" on="1"/>
        <pt x="71" y="768" on="0"/>
        <pt x="98" y="740" on="0"/>
        <pt x="122" y="740" on="1"/>
        <pt x="146" y="740" on="0"/>
        <pt x="173" y="768" on="0"/>
        <pt x="173" y="793" on="1"/>
        <pt x="173" y="817" on="0"/>
        <pt x="145" y="845" on="0"/>
        <pt x="122" y="845" on="1"/>
        <pt x="99" y="845" on="0"/>
        <pt x="71" y="817" on="0"/>
      </contour>
    </TTGlyph>
    <TTGlyph name="Rsmall" xMin="74" yMin="0" xMax="408" yMax="470">
      <contour>
        <pt x="74" y="470" on="1"/>
        <pt x="235" y="470" on="1"/>
        <pt x="267" y="470" on="0"/>
        <pt x="325" y="453" on="0"/>
        <pt x="369" y="418" on="0"/>
        <pt x="395" y="365" on="0"/>
        <pt x="395" y="329" on="1"/>
        <pt x="395" y="278" on="0"/>
        <pt x="339" y="208" on="0"/>
        <pt x="294" y="192" on="1"/>
        <pt x="408" y="0" on="1"/>
        <pt x="330" y="0" on="1"/>
        <pt x="234" y="179" on="1"/>
        <pt x="139" y="179" on="1"/>
        <pt x="139" y="0" on="1"/>
        <pt x="74" y="0" on="1"/>
      </contour>
      <contour>
        <pt x="138" y="232" on="1"/>
        <pt x="207" y="232" on="1"/>
        <pt x="262" y="232" on="0"/>
        <pt x="326" y="278" on="0"/>
        <pt x="326" y="326" on="1"/>
        <pt x="326" y="378" on="0"/>
        <pt x="264" y="417" on="0"/>
        <pt x="210" y="417" on="1"/>
        <pt x="138" y="417" on="1"/>
      </contour>
    </TTGlyph>
    <TTGlyph name="S" xMin="45" yMin="-9" xMax="449" yMax="638">
      <contour>
        <pt x="251" y="638" on="1"/>
        <pt x="296" y="638" on="0"/>
        <pt x="379" y="622" on="0"/>
        <pt x="420" y="603" on="1"/>
        <pt x="402" y="544" on="1"/>
        <pt x="359" y="564" on="0"/>
        <pt x="290" y="580" on="0"/>
        <pt x="254" y="580" on="1"/>
        <pt x="193" y="580" on="0"/>
        <pt x="119" y="525" on="0"/>
        <pt x="119" y="475" on="1"/>
        <pt x="119" y="431" on="0"/>
        <pt x="175" y="380" on="0"/>
        <pt x="234" y="361" on="1"/>
        <pt x="301" y="339" on="1"/>
        <pt x="378" y="313" on="0"/>
        <pt x="449" y="224" on="0"/>
        <pt x="449" y="167" on="1"/>
        <pt x="449" y="126" on="0"/>
        <pt x="418" y="61" on="0"/>
        <pt x="362" y="16" on="0"/>
        <pt x="284" y="-9" on="0"/>
        <pt x="237" y="-9" on="1"/>
        <pt x="189" y="-9" on="0"/>
        <pt x="94" y="9" on="0"/>
        <pt x="46" y="31" on="1"/>
        <pt x="65" y="90" on="1"/>
        <pt x="107" y="69" on="0"/>
        <pt x="188" y="50" on="0"/>
        <pt x="233" y="50" on="1"/>
        <pt x="294" y="50" on="0"/>
        <pt x="375" y="104" on="0"/>
        <pt x="375" y="160" on="1"/>
        <pt x="375" y="180" on="0"/>
        <pt x="364" y="215" on="0"/>
        <pt x="336" y="245" on="0"/>
        <pt x="288" y="272" on="0"/>
        <pt x="251" y="284" on="1"/>
        <pt x="186" y="305" on="1"/>
        <pt x="123" y="325" on="0"/>
        <pt x="45" y="402" on="0"/>
        <pt x="45" y="466" on="1"/>
        <pt x="45" y="545" on="0"/>
        <pt x="151" y="638" on="0"/>
      </contour>
    </TTGlyph>
    <TTGlyph name="Sacute" xMin="45" yMin="-9" xMax="449" yMax="834">
      <contour>
        <pt x="251" y="638" on="1"/>
        <pt x="296" y="638" on="0"/>
        <pt x="379" y="622" on="0"/>
        <pt x="420" y="603" on="1"/>
        <pt x="402" y="544" on="1"/>
        <pt x="359" y="564" on="0"/>
        <pt x="290" y="580" on="0"/>
        <pt x="254" y="580" on="1"/>
        <pt x="193" y="580" on="0"/>
        <pt x="119" y="525" on="0"/>
        <pt x="119" y="475" on="1"/>
        <pt x="119" y="431" on="0"/>
        <pt x="175" y="380" on="0"/>
        <pt x="234" y="361" on="1"/>
        <pt x="301" y="339" on="1"/>
        <pt x="378" y="313" on="0"/>
        <pt x="449" y="224" on="0"/>
        <pt x="449" y="167" on="1"/>
        <pt x="449" y="126" on="0"/>
        <pt x="418" y="61" on="0"/>
        <pt x="362" y="16" on="0"/>
        <pt x="284" y="-9" on="0"/>
        <pt x="237" y="-9" on="1"/>
        <pt x="189" y="-9" on="0"/>
        <pt x="94" y="9" on="0"/>
        <pt x="46" y="31" on="1"/>
        <pt x="65" y="90" on="1"/>
        <pt x="107" y="69" on="0"/>
        <pt x="188" y="50" on="0"/>
        <pt x="233" y="50" on="1"/>
        <pt x="294" y="50" on="0"/>
        <pt x="375" y="104" on="0"/>
        <pt x="375" y="160" on="1"/>
        <pt x="375" y="180" on="0"/>
        <pt x="364" y="215" on="0"/>
        <pt x="336" y="245" on="0"/>
        <pt x="288" y="272" on="0"/>
        <pt x="251" y="284" on="1"/>
        <pt x="186" y="305" on="1"/>
        <pt x="123" y="325" on="0"/>
        <pt x="45" y="402" on="0"/>
        <pt x="45" y="466" on="1"/>
        <pt x="45" y="545" on="0"/>
        <pt x="151" y="638" on="0"/>
      </contour>
      <contour>
        <pt x="232" y="710" on="1"/>
        <pt x="175" y="710" on="1"/>
        <pt x="260" y="834" on="1"/>
        <pt x="343" y="834" on="1"/>
      </contour>
    </TTGlyph>
    <TTGlyph name="Scaron" xMin="45" yMin="-9" xMax="449" yMax="845">
      <contour>
        <pt x="251" y="638" on="1"/>
        <pt x="296" y="638" on="0"/>
        <pt x="379" y="622" on="0"/>
        <pt x="420" y="603" on="1"/>
        <pt x="402" y="544" on="1"/>
        <pt x="359" y="564" on="0"/>
        <pt x="290" y="580" on="0"/>
        <pt x="254" y="580" on="1"/>
        <pt x="193" y="580" on="0"/>
        <pt x="119" y="525" on="0"/>
        <pt x="119" y="475" on="1"/>
        <pt x="119" y="431" on="0"/>
        <pt x="175" y="380" on="0"/>
        <pt x="234" y="361" on="1"/>
        <pt x="301" y="339" on="1"/>
        <pt x="378" y="313" on="0"/>
        <pt x="449" y="224" on="0"/>
        <pt x="449" y="167" on="1"/>
        <pt x="449" y="126" on="0"/>
        <pt x="418" y="61" on="0"/>
        <pt x="362" y="16" on="0"/>
        <pt x="284" y="-9" on="0"/>
        <pt x="237" y="-9" on="1"/>
        <pt x="189" y="-9" on="0"/>
        <pt x="94" y="9" on="0"/>
        <pt x="46" y="31" on="1"/>
        <pt x="65" y="90" on="1"/>
        <pt x="107" y="69" on="0"/>
        <pt x="188" y="50" on="0"/>
        <pt x="233" y="50" on="1"/>
        <pt x="294" y="50" on="0"/>
        <pt x="375" y="104" on="0"/>
        <pt x="375" y="160" on="1"/>
        <pt x="375" y="180" on="0"/>
        <pt x="364" y="215" on="0"/>
        <pt x="336" y="245" on="0"/>
        <pt x="288" y="272" on="0"/>
        <pt x="251" y="284" on="1"/>
        <pt x="186" y="305" on="1"/>
        <pt x="123" y="325" on="0"/>
        <pt x="45" y="402" on="0"/>
        <pt x="45" y="466" on="1"/>
        <pt x="45" y="545" on="0"/>
        <pt x="151" y="638" on="0"/>
      </contour>
      <contour>
        <pt x="101" y="845" on="1"/>
        <pt x="169" y="845" on="1"/>
        <pt x="253" y="752" on="1"/>
        <pt x="337" y="845" on="1"/>
        <pt x="407" y="845" on="1"/>
        <pt x="282" y="711" on="1"/>
        <pt x="223" y="711" on="1"/>
      </contour>
    </TTGlyph>
    <TTGlyph name="Scedilla" xMin="45" yMin="-214" xMax="449" yMax="638">
      <contour>
        <pt x="251" y="638" on="1"/>
        <pt x="296" y="638" on="0"/>
        <pt x="379" y="622" on="0"/>
        <pt x="420" y="603" on="1"/>
        <pt x="402" y="544" on="1"/>
        <pt x="359" y="564" on="0"/>
        <pt x="290" y="580" on="0"/>
        <pt x="254" y="580" on="1"/>
        <pt x="193" y="580" on="0"/>
        <pt x="119" y="525" on="0"/>
        <pt x="119" y="475" on="1"/>
        <pt x="119" y="431" on="0"/>
        <pt x="175" y="380" on="0"/>
        <pt x="234" y="361" on="1"/>
        <pt x="301" y="339" on="1"/>
        <pt x="378" y="313" on="0"/>
        <pt x="449" y="224" on="0"/>
        <pt x="449" y="167" on="1"/>
        <pt x="449" y="129" on="0"/>
        <pt x="422" y="67" on="0"/>
        <pt x="372" y="22" on="0"/>
        <pt x="302" y="-5" on="0"/>
        <pt x="259" y="-8" on="1"/>
        <pt x="242" y="-47" on="1"/>
        <pt x="270" y="-48" on="0"/>
        <pt x="309" y="-62" on="0"/>
        <pt x="334" y="-84" on="0"/>
        <pt x="345" y="-111" on="0"/>
        <pt x="345" y="-126" on="1"/>
        <pt x="345" y="-168" on="0"/>
        <pt x="276" y="-214" on="0"/>
        <pt x="224" y="-214" on="1"/>
        <pt x="201" y="-214" on="0"/>
        <pt x="162" y="-207" on="0"/>
        <pt x="150" y="-202" on="1"/>
        <pt x="160" y="-165" on="1"/>
        <pt x="173" y="-170" on="0"/>
        <pt x="203" y="-174" on="0"/>
        <pt x="217" y="-174" on="1"/>
        <pt x="254" y="-174" on="0"/>
        <pt x="290" y="-149" on="0"/>
        <pt x="290" y="-128" on="1"/>
        <pt x="290" y="-118" on="0"/>
        <pt x="282" y="-100" on="0"/>
        <pt x="259" y="-86" on="0"/>
        <pt x="218" y="-78" on="0"/>
        <pt x="184" y="-78" on="1"/>
        <pt x="217" y="-8" on="1"/>
        <pt x="174" y="-6" on="0"/>
        <pt x="88" y="11" on="0"/>
        <pt x="46" y="31" on="1"/>
        <pt x="65" y="90" on="1"/>
        <pt x="107" y="69" on="0"/>
        <pt x="188" y="50" on="0"/>
        <pt x="233" y="50" on="1"/>
        <pt x="294" y="50" on="0"/>
        <pt x="375" y="104" on="0"/>
        <pt x="375" y="160" on="1"/>
        <pt x="375" y="180" on="0"/>
        <pt x="364" y="215" on="0"/>
        <pt x="336" y="245" on="0"/>
        <pt x="288" y="272" on="0"/>
        <pt x="251" y="284" on="1"/>
        <pt x="186" y="305" on="1"/>
        <pt x="123" y="325" on="0"/>
        <pt x="45" y="402" on="0"/>
        <pt x="45" y="466" on="1"/>
        <pt x="45" y="545" on="0"/>
        <pt x="151" y="638" on="0"/>
      </contour>
    </TTGlyph>
    <TTGlyph name="Scircumflex" xMin="45" yMin="-9" xMax="449" yMax="844">
      <contour>
        <pt x="251" y="638" on="1"/>
        <pt x="296" y="638" on="0"/>
        <pt x="379" y="622" on="0"/>
        <pt x="420" y="603" on="1"/>
        <pt x="402" y="544" on="1"/>
        <pt x="359" y="564" on="0"/>
        <pt x="290" y="580" on="0"/>
        <pt x="254" y="580" on="1"/>
        <pt x="193" y="580" on="0"/>
        <pt x="119" y="525" on="0"/>
        <pt x="119" y="475" on="1"/>
        <pt x="119" y="431" on="0"/>
        <pt x="175" y="380" on="0"/>
        <pt x="234" y="361" on="1"/>
        <pt x="301" y="339" on="1"/>
        <pt x="378" y="313" on="0"/>
        <pt x="449" y="224" on="0"/>
        <pt x="449" y="167" on="1"/>
        <pt x="449" y="126" on="0"/>
        <pt x="418" y="61" on="0"/>
        <pt x="362" y="16" on="0"/>
        <pt x="284" y="-9" on="0"/>
        <pt x="237" y="-9" on="1"/>
        <pt x="189" y="-9" on="0"/>
        <pt x="94" y="9" on="0"/>
        <pt x="46" y="31" on="1"/>
        <pt x="65" y="90" on="1"/>
        <pt x="107" y="69" on="0"/>
        <pt x="188" y="50" on="0"/>
        <pt x="233" y="50" on="1"/>
        <pt x="294" y="50" on="0"/>
        <pt x="375" y="104" on="0"/>
        <pt x="375" y="160" on="1"/>
        <pt x="375" y="180" on="0"/>
        <pt x="364" y="215" on="0"/>
        <pt x="336" y="245" on="0"/>
        <pt x="288" y="272" on="0"/>
        <pt x="251" y="284" on="1"/>
        <pt x="186" y="305" on="1"/>
        <pt x="123" y="325" on="0"/>
        <pt x="45" y="402" on="0"/>
        <pt x="45" y="466" on="1"/>
        <pt x="45" y="545" on="0"/>
        <pt x="151" y="638" on="0"/>
      </contour>
      <contour>
        <pt x="218" y="844" on="1"/>
        <pt x="277" y="844" on="1"/>
        <pt x="402" y="710" on="1"/>
        <pt x="332" y="710" on="1"/>
        <pt x="247" y="801" on="1"/>
        <pt x="162" y="710" on="1"/>
        <pt x="96" y="710" on="1"/>
      </contour>
    </TTGlyph>
</ttFont>
